<?xml version="1.0" encoding="UTF-8"?>
<svg width="417px" height="337px" viewBox="0 0 417 337" version="1.1" xmlns="http://www.w3.org/2000/svg" xmlns:xlink="http://www.w3.org/1999/xlink">
    <title>切片</title>
    <defs>
        <radialGradient cx="50%" cy="45.5468424%" fx="50%" fy="45.5468424%" r="81.4586751%" gradientTransform="translate(0.500000,0.455468),scale(0.808394,1.000000),rotate(88.925216),scale(1.000000,2.200689),translate(-0.500000,-0.455468)" id="radialGradient-1">
            <stop stop-color="#0028AC" offset="0%"></stop>
            <stop stop-color="#0029BB" stop-opacity="0" offset="100%"></stop>
        </radialGradient>
    </defs>
    <g id="页面-1" stroke="none" stroke-width="1" fill="none" fill-rule="evenodd" opacity="0.8" stroke-linecap="square">
        <g id="民联新经济大屏2" transform="translate(-49.000000, -481.000000)" stroke="url(#radialGradient-1)" stroke-width="0.5">
            <g id="bg_sc" transform="translate(49.945799, 481.604927)">
                <path d="M0.38990509,54.9887133 L415.248921,54.9887133 M11.7562077,0.677419355 L11.7562077,335.322581 M26.9255079,0.677419355 L26.9255079,335.322581 M42.0948081,0.677419355 L42.0948081,335.322581 M57.2641084,0.677419355 L57.2641084,335.322581 M72.4334086,0.677419355 L72.4334086,335.322581 M87.6027088,0.677419355 L87.6027088,335.322581 M102.772009,0.677419355 L102.772009,335.322581 M117.941309,0.677419355 L117.941309,335.322581 M133.110609,0.677419355 L133.110609,335.322581 M148.27991,0.677419355 L148.27991,335.322581 M163.44921,0.677419355 L163.44921,335.322581 M178.61851,0.677419355 L178.61851,335.322581 M193.78781,0.677419355 L193.78781,335.322581 M208.957111,0.677419355 L208.957111,335.322581 M224.126411,0.677419355 L224.126411,335.322581 M239.295711,0.677419355 L239.295711,335.322581 M254.465011,0.677419355 L254.465011,335.322581 M269.634312,0.677419355 L269.634312,335.322581 M284.803612,0.677419355 L284.803612,335.322581 M299.972912,0.677419355 L299.972912,335.322581 M315.142212,0.677419355 L315.142212,335.322581 M330.311512,0.677419355 L330.311512,335.322581 M345.480813,0.677419355 L345.480813,335.322581 M360.650113,0.677419355 L360.650113,335.322581 M375.819413,0.677419355 L375.819413,335.322581 M390.988713,0.677419355 L390.988713,335.322581 M406.158014,0.677419355 L406.158014,335.322581 M0.38990509,39.8194131 L415.248921,39.8194131 M0.38990509,24.6501129 L415.248921,24.6501129 M0.38990509,9.48081264 L415.248921,9.48081264 M0.38990509,70.1580135 L415.248921,70.1580135 M0.38990509,85.3273138 L415.248921,85.3273138 M0.38990509,100.496614 L415.248921,100.496614 M0.38990509,115.665914 L415.248921,115.665914 M0.38990509,130.835214 L415.248921,130.835214 M0.38990509,146.004515 L415.248921,146.004515 M0.38990509,161.173815 L415.248921,161.173815 M0.38990509,176.343115 L415.248921,176.343115 M0.38990509,191.512415 L415.248921,191.512415 M0.38990509,206.681716 L415.248921,206.681716 M0.38990509,221.851016 L415.248921,221.851016 M0.38990509,237.020316 L415.248921,237.020316 M0.38990509,252.189616 L415.248921,252.189616 M0.38990509,267.358916 L415.248921,267.358916 M0.38990509,282.528217 L415.248921,282.528217 M0.38990509,297.697517 L415.248921,297.697517 M0.38990509,312.866817 L415.248921,312.866817 M0.38990509,328.036117 L415.248921,328.036117" id="形状结合"></path>
            </g>
        </g>
    </g>
</svg>