<?xml version="1.0" encoding="UTF-8"?>
<svg width="155px" height="78px" viewBox="0 0 155 78" version="1.1" xmlns="http://www.w3.org/2000/svg" xmlns:xlink="http://www.w3.org/1999/xlink">
    <title>切片</title>
    <g id="页面-1" stroke="none" stroke-width="1" fill="none" fill-rule="evenodd">
        <g id="民联新经济大屏2" transform="translate(-1218.000000, -624.000000)" fill="#FFFFFF">
            <g id="编组-8" transform="translate(1004.000000, 618.000000)">
                <g id="编组-21" transform="translate(213.886229, 6.091830)">
                    <path d="M84.7406451,0.403282624 L85.1255454,0.403243628 C85.236887,0.403191482 85.3271564,0.493442541 85.3271676,0.604784146 C85.3271676,0.604797769 85.3271676,0.604811392 85.3271268,0.604825011 L85.3268483,3.35103192 C85.3267961,3.46235756 85.2365517,3.552602 85.125226,3.55265416 L84.7403257,3.55269315 C84.6289841,3.5527453 84.5387148,3.46249424 84.5387035,3.35115263 C84.5387035,3.35113901 84.5387035,3.35112539 84.5387443,3.35111177 L84.5390228,0.604904858 C84.539075,0.493579218 84.6293195,0.403334778 84.7406451,0.403282624 Z" id="矩形" opacity="0.119051" transform="translate(84.932936, 1.977968) rotate(6.000000) translate(-84.932936, -1.977968) "></path>
                    <rect id="矩形" opacity="0.278366815" x="76.8270978" y="0" width="1" height="6.84927977" rx="0.201601809"></rect>
                    <path d="M92.3589654,1.60867296 L92.7438409,1.60859668 C92.8551825,1.60849467 92.9454606,1.69873698 92.9454826,1.81007859 C92.9454827,1.81010524 92.9454827,1.81013189 92.9454027,1.81015852 L92.9448579,4.55646468 C92.9447558,4.66777504 92.8545265,4.75800441 92.7432161,4.75810644 L92.3583406,4.75818273 C92.246999,4.75828474 92.1567209,4.66804242 92.1566988,4.55670082 C92.1566988,4.55667417 92.1566988,4.55664752 92.1567788,4.55662088 L92.1573236,1.81031473 C92.1574256,1.69900436 92.247655,1.60877499 92.3589654,1.60867296 Z" id="矩形" opacity="0.119051" transform="translate(92.551091, 3.183390) rotate(12.000000) translate(-92.551091, -3.183390) "></path>
                    <path d="M99.8094229,3.60296552 L100.194258,3.60285528 C100.3056,3.60270788 100.395886,3.69294223 100.395918,3.80428383 C100.395918,3.80432234 100.395918,3.80436085 100.395802,3.80439934 L100.395015,6.55086607 C100.394867,6.66216252 100.304652,6.75237817 100.193355,6.75252562 L99.80852,6.75263586 C99.6971784,6.75278326 99.6068923,6.66254892 99.6068604,6.55120732 C99.6068604,6.5511688 99.6068604,6.55113029 99.6069759,6.55109181 L99.6077633,3.80462507 C99.6079108,3.69332862 99.6981264,3.60311298 99.8094229,3.60296552 Z" id="矩形" opacity="0.119051" transform="translate(100.001389, 5.177746) rotate(18.000000) translate(-100.001389, -5.177746) "></path>
                    <path d="M107.010384,6.36431248 L107.395165,6.36417312 C107.506507,6.36398676 107.5968,6.45421427 107.59684,6.56555587 C107.59684,6.56560456 107.59684,6.56565325 107.596694,6.5657019 L107.595699,9.31238353 C107.595512,9.42366803 107.505308,9.5138719 107.394024,9.51405835 L107.009242,9.51419771 C106.8979,9.51438407 106.807608,9.42415656 106.807567,9.31281496 C106.807567,9.31276627 106.807567,9.31271757 106.807713,9.31266893 L106.808709,6.56598729 C106.808895,6.45470279 106.899099,6.36449892 107.010384,6.36431248 Z" id="矩形" opacity="0.119051" transform="translate(107.202204, 7.939185) rotate(24.000000) translate(-107.202204, -7.939185) "></path>
                    <path d="M113.883696,9.86203095 L114.268413,9.86186855 C114.379754,9.86165139 114.470052,9.95187349 114.470099,10.0632151 C114.470099,10.0632718 114.470099,10.0633286 114.469929,10.0633852 L114.467273,16.3542399 C114.467055,16.4655149 114.376861,16.5557095 114.265586,16.5559268 L113.880869,16.5560892 C113.769527,16.5563063 113.679229,16.4660842 113.679182,16.3547426 C113.679182,16.3546859 113.679182,16.3546291 113.679352,16.3545725 L113.682009,10.0637178 C113.682226,9.95244279 113.772421,9.86224823 113.883696,9.86203095 Z" id="矩形" opacity="0.278366815" transform="translate(114.074641, 13.208979) rotate(30.000000) translate(-114.074641, -13.208979) "></path>
                    <path d="M120.351813,14.0590945 L120.736457,14.0589161 C120.847798,14.0586777 120.9381,14.148896 120.938152,14.2602376 C120.938152,14.2602999 120.938152,14.2603622 120.937965,14.2604245 L120.936691,17.0076593 C120.936452,17.1189278 120.846264,17.2091159 120.734996,17.2093546 L120.350352,17.2095329 C120.239011,17.2097714 120.148709,17.119553 120.148657,17.0082114 C120.148657,17.0081491 120.148657,17.0080868 120.148844,17.0080246 L120.150118,14.2607897 C120.150357,14.1495212 120.240545,14.0593331 120.351813,14.0590945 Z" id="矩形" opacity="0.119051" transform="translate(120.543404, 15.634225) rotate(36.000000) translate(-120.543404, -15.634225) "></path>
                    <path d="M126.346103,18.9082323 L126.730668,18.9080458 C126.84201,18.9077964 126.932314,18.9980129 126.932367,19.1093545 C126.932368,19.1094196 126.932368,19.1094848 126.932172,19.1095499 L126.93084,21.8570988 C126.93059,21.968364 126.840405,22.0585488 126.72914,22.0587984 L126.344575,22.0589848 C126.233234,22.0592342 126.14293,21.9690178 126.142876,21.8576762 C126.142876,21.857611 126.142876,21.8575458 126.143071,21.8574808 L126.144404,19.1099318 C126.144653,18.9986666 126.234838,18.9084818 126.346103,18.9082323 Z" id="矩形" opacity="0.119051" transform="translate(126.537622, 20.483515) rotate(42.000000) translate(-126.537622, -20.483515) "></path>
                    <path d="M131.80014,24.3567532 L132.184625,24.3565668 C132.295966,24.3563174 132.38627,24.4465339 132.386324,24.5578754 C132.386324,24.5579406 132.386324,24.5580058 132.386129,24.5580708 L132.384797,27.305941 C132.384547,27.4172061 132.294362,27.507391 132.183097,27.5076405 L131.798613,27.5078269 C131.687271,27.5080763 131.596967,27.4178599 131.596913,27.3065183 C131.596913,27.3064531 131.596913,27.306388 131.597108,27.3063229 L131.598441,24.5584528 C131.59869,24.4471876 131.688875,24.3570028 131.80014,24.3567532 Z" id="矩形" opacity="0.119051" transform="translate(131.991619, 25.932197) rotate(48.000000) translate(-131.991619, -25.932197) "></path>
                    <path d="M136.654168,30.3449675 L137.038574,30.3447893 C137.149915,30.3445508 137.240217,30.4347691 137.240269,30.5461107 C137.240269,30.546173 137.240269,30.5462353 137.240082,30.5462976 L137.238808,33.2944818 C137.238569,33.4057503 137.148381,33.4959384 137.037113,33.4961771 L136.652707,33.4963553 C136.541365,33.4965938 136.451063,33.4063755 136.451011,33.2950339 C136.451011,33.2949716 136.451011,33.2949093 136.451198,33.294847 L136.452472,30.5466628 C136.452711,30.4353943 136.542899,30.3452062 136.654168,30.3449675 Z" id="矩形" opacity="0.119051" transform="translate(136.845640, 31.920572) rotate(54.000000) translate(-136.845640, -31.920572) "></path>
                    <path d="M140.855752,36.8059761 L141.240084,36.8058138 C141.351426,36.8055966 141.441724,36.8958187 141.441771,37.0071603 C141.441771,37.007217 141.441771,37.0072738 141.441601,37.0073304 L141.438944,43.3014494 C141.438727,43.4127245 141.348532,43.502919 141.237257,43.5031364 L140.852925,43.5032987 C140.741583,43.5035158 140.651285,43.4132938 140.651238,43.3019522 C140.651238,43.3018954 140.651238,43.3018387 140.651408,43.301782 L140.654065,37.007663 C140.654282,36.896388 140.744477,36.8061934 140.855752,36.8059761 Z" id="矩形" opacity="0.278366815" transform="translate(141.046504, 40.154556) rotate(60.000000) translate(-141.046504, -40.154556) "></path>
                    <path d="M144.356623,43.6728701 L144.740891,43.6727308 C144.852232,43.6725445 144.942525,43.7627719 144.942565,43.8741135 C144.942566,43.8741622 144.942566,43.8742109 144.942419,43.8742596 L144.941424,46.622997 C144.941237,46.7342815 144.851034,46.8244854 144.739749,46.8246719 L144.355481,46.8248111 C144.24414,46.8249975 144.153847,46.73477 144.153807,46.6234284 C144.153807,46.6233797 144.153807,46.623331 144.153953,46.6232824 L144.154948,43.874545 C144.155135,43.7632605 144.245338,43.6730566 144.356623,43.6728701 Z" id="矩形" opacity="0.119051" transform="translate(144.548186, 45.248771) rotate(66.000000) translate(-144.548186, -45.248771) "></path>
                    <path d="M147.120664,50.8665448 L147.504878,50.8664347 C147.61622,50.8662873 147.706506,50.9565216 147.706538,51.0678632 C147.706538,51.0679017 147.706538,51.0679402 147.706422,51.0679787 L147.705635,53.816931 C147.705487,53.9282275 147.615272,54.0184431 147.503975,54.0185906 L147.119761,54.0187007 C147.00842,54.0188482 146.918134,53.9286139 146.918102,53.8172722 C146.918102,53.8172337 146.918102,53.8171952 146.918217,53.8171567 L146.919005,51.0682044 C146.919152,50.956908 147.009368,50.8666923 147.120664,50.8665448 Z" id="矩形" opacity="0.119051" transform="translate(147.312320, 52.442568) rotate(72.000000) translate(-147.312320, -52.442568) "></path>
                    <path d="M149.116847,58.309485 L149.501021,58.3094088 C149.612362,58.3093068 149.70264,58.3995491 149.702662,58.5108907 C149.702662,58.5109173 149.702662,58.510944 149.702582,58.5109706 L149.702037,61.2600835 C149.701935,61.3713938 149.611706,61.4616232 149.500396,61.4617253 L149.116222,61.4618015 C149.00488,61.4619035 148.914602,61.3716612 148.91458,61.2603196 C148.91458,61.260293 148.91458,61.2602663 148.91466,61.2602397 L148.915205,58.5111268 C148.915307,58.3998165 149.005536,58.3095871 149.116847,58.309485 Z" id="矩形" opacity="0.119051" transform="translate(149.308621, 59.885605) rotate(78.000000) translate(-149.308621, -59.885605) "></path>
                    <path d="M150.323304,65.9201474 L150.707453,65.9201085 C150.818794,65.9200563 150.909064,66.0103073 150.909075,66.121649 C150.909075,66.1216626 150.909075,66.1216762 150.909034,66.1216898 L150.908755,68.8709019 C150.908703,68.9822276 150.818459,69.072472 150.707133,69.0725242 L150.322984,69.0725631 C150.211643,69.0726153 150.121373,68.9823642 150.121362,68.8710226 C150.121362,68.871009 150.121362,68.8709954 150.121403,68.8709818 L150.121681,66.1217697 C150.121734,66.010444 150.211978,65.9201996 150.323304,65.9201474 Z" id="矩形" opacity="0.119051" transform="translate(150.515218, 67.496336) rotate(84.000000) translate(-150.515218, -67.496336) "></path>
                    <path d="M150.831502,73.3242426 L151.234096,73.3242426 C151.345437,73.3242426 151.435697,73.4145028 151.435697,73.5258444 L151.435697,79.9786023 C151.435697,80.0899439 151.345437,80.1802041 151.234096,80.1802041 L150.831502,80.1802041 C150.72016,80.1802041 150.6299,80.0899439 150.6299,79.9786023 L150.6299,73.5258444 C150.6299,73.4145028 150.72016,73.3242426 150.831502,73.3242426 Z" id="矩形" opacity="0.278366815" transform="translate(151.032799, 76.752223) rotate(90.000000) translate(-151.032799, -76.752223) "></path>
                    <path d="M3.22668374,73.3242426 L3.62927774,73.3242426 C3.74061935,73.3242426 3.83087955,73.4145028 3.83087955,73.5258444 L3.83087955,79.9786023 C3.83087955,80.0899439 3.74061935,80.1802041 3.62927774,80.1802041 L3.22668374,80.1802041 C3.11534214,80.1802041 3.02508193,80.0899439 3.02508193,79.9786023 L3.02508193,73.5258444 C3.02508193,73.4145028 3.11534214,73.3242426 3.22668374,73.3242426 Z" id="矩形" opacity="0.278366815" transform="translate(3.427981, 76.752223) rotate(270.000000) translate(-3.427981, -76.752223) "></path>
                    <path d="M3.75332673,65.9201085 L4.13747574,65.9201474 C4.24880138,65.9201996 4.33904582,66.010444 4.33909797,66.1217697 L4.33937651,68.8709818 C4.33942866,68.9823234 4.2491776,69.0725927 4.13783599,69.072604 C4.13782237,69.072604 4.13780875,69.072604 4.13779513,69.0725631 L3.75364611,69.0725242 C3.64232047,69.072472 3.55207603,68.9822276 3.55202388,68.8709019 L3.55174534,66.1216898 C3.5516932,66.0103482 3.64194426,65.9200789 3.75328586,65.9200676 C3.75329948,65.9200676 3.75331311,65.9200676 3.75332673,65.9201085 Z" id="矩形" opacity="0.119051" transform="translate(3.945561, 67.496336) rotate(276.000000) translate(-3.945561, -67.496336) "></path>
                    <path d="M4.95975885,58.3094088 L5.34393268,58.309485 C5.45524304,58.3095871 5.54547241,58.3998165 5.54557444,58.5111268 L5.54611934,61.2602397 C5.54622135,61.3715813 5.45597903,61.4618594 5.34463743,61.4618814 C5.34461078,61.4618814 5.34458413,61.4618814 5.34455749,61.4618015 L4.96038366,61.4617253 C4.8490733,61.4616232 4.75884393,61.3713938 4.7587419,61.2600835 L4.758197,58.5109706 C4.758095,58.399629 4.84833731,58.3093509 4.95967891,58.3093289 C4.95970556,58.3093289 4.95973221,58.3093289 4.95975885,58.3094088 Z" id="矩形" opacity="0.119051" transform="translate(5.152158, 59.885605) rotate(282.000000) translate(-5.152158, -59.885605) "></path>
                    <path d="M6.95590114,50.8664347 L7.34011513,50.8665448 C7.45141157,50.8666923 7.54162722,50.956908 7.54177468,51.0682044 L7.54256211,53.8171567 C7.54270952,53.9284983 7.45247517,54.0187844 7.34113357,54.0188163 C7.34109506,54.0188163 7.34105654,54.0188163 7.34101806,54.0187007 L6.95680408,54.0185906 C6.84550763,54.0184431 6.75529199,53.9282275 6.75514453,53.816931 L6.75435709,51.0679787 C6.75420969,50.9566371 6.84444403,50.8663511 6.95578563,50.8663192 C6.95582415,50.8663192 6.95586266,50.8663192 6.95590114,50.8664347 Z" id="矩形" opacity="0.119051" transform="translate(7.148460, 52.442568) rotate(288.000000) translate(-7.148460, -52.442568) "></path>
                    <path d="M9.71988867,43.6727308 L10.1041564,43.6728701 C10.2154409,43.6730566 10.3056448,43.7632605 10.3058312,43.874545 L10.3068268,46.6232824 C10.3070131,46.7346239 10.2167856,46.8249168 10.105444,46.8249572 C10.1053953,46.8249572 10.1053466,46.8249572 10.105298,46.8248111 L9.72103026,46.8246719 C9.60974576,46.8244854 9.51954189,46.7342815 9.51935545,46.622997 L9.51835989,43.8742596 C9.51817354,43.762918 9.60840105,43.6726251 9.71974264,43.6725848 C9.71979134,43.6725848 9.71984003,43.6725848 9.71988867,43.6727308 Z" id="矩形" opacity="0.119051" transform="translate(9.912593, 45.248771) rotate(294.000000) translate(-9.912593, -45.248771) "></path>
                    <path d="M13.2206951,36.8058138 L13.6050277,36.8059761 C13.7163028,36.8061934 13.8064974,36.896388 13.8067146,37.007663 L13.8093714,43.301782 C13.8095886,43.4131235 13.7193665,43.5034218 13.6080249,43.5034688 C13.6079682,43.5034689 13.6079114,43.5034689 13.6078548,43.5032987 L13.2235221,43.5031364 C13.112247,43.502919 13.0220525,43.4127245 13.0218352,43.3014494 L13.0191784,37.0073304 C13.0189612,36.8959889 13.1091833,36.8056906 13.2205249,36.8056436 C13.2205817,36.8056436 13.2206384,36.8056436 13.2206951,36.8058138 Z" id="矩形" opacity="0.278366815" transform="translate(13.414275, 40.154556) rotate(300.000000) translate(-13.414275, -40.154556) "></path>
                    <path d="M17.4222057,30.3447893 L17.8066117,30.3449675 C17.9178802,30.3452062 18.0080684,30.4353943 18.008307,30.5466628 L18.009581,33.294847 C18.0098195,33.4061885 17.9196012,33.4964906 17.8082596,33.4965422 C17.8081973,33.4965422 17.8081349,33.4965422 17.8080727,33.4963553 L17.4236667,33.4961771 C17.3123982,33.4959384 17.2222101,33.4057503 17.2219714,33.2944818 L17.2206974,30.5462976 C17.2204589,30.434956 17.3106772,30.344654 17.4220188,30.3446024 C17.4220812,30.3446024 17.4221435,30.3446024 17.4222057,30.3447893 Z" id="矩形" opacity="0.119051" transform="translate(17.615139, 31.920572) rotate(306.000000) translate(-17.615139, -31.920572) "></path>
                    <path d="M22.2761545,24.3565668 L22.6606391,24.3567532 C22.7719042,24.3570028 22.8620891,24.4471876 22.8623386,24.5584528 L22.8636709,27.3063229 C22.8639202,27.4176644 22.7737038,27.5079684 22.6623622,27.5080223 C22.6622971,27.5080224 22.6622319,27.5080224 22.6621668,27.5078269 L22.2776823,27.5076405 C22.1664171,27.507391 22.0762323,27.4172061 22.0759827,27.305941 L22.0746505,24.5580708 C22.0744011,24.4467293 22.1646175,24.3564254 22.2759591,24.3563714 C22.2760243,24.3563714 22.2760894,24.3563714 22.2761545,24.3565668 Z" id="矩形" opacity="0.119051" transform="translate(22.469161, 25.932197) rotate(312.000000) translate(-22.469161, -25.932197) "></path>
                    <path d="M27.7301113,18.9080458 L28.1146762,18.9082323 C28.2259413,18.9084818 28.3161262,18.9986666 28.3163757,19.1099318 L28.3177079,21.8574808 C28.3179573,21.9688223 28.2277409,22.0591262 28.1163993,22.0591802 C28.1163341,22.0591802 28.116269,22.0591802 28.1162039,22.0589848 L27.7316391,22.0587984 C27.6203739,22.0585488 27.5301891,21.968364 27.5299395,21.8570988 L27.5286073,19.1095499 C27.5283579,18.9982084 27.6185743,18.9079044 27.7299159,18.9078504 C27.7299811,18.9078504 27.7300462,18.9078504 27.7301113,18.9080458 Z" id="矩形" opacity="0.119051" transform="translate(27.923158, 20.483515) rotate(318.000000) translate(-27.923158, -20.483515) "></path>
                    <path d="M33.7243227,14.0589161 L34.1089661,14.0590945 C34.2202346,14.0593331 34.3104227,14.1495212 34.3106614,14.2607897 L34.3119354,17.0080246 C34.3121739,17.1193661 34.2219555,17.2096681 34.1106139,17.2097198 C34.1105516,17.2097198 34.1104893,17.2097198 34.1104271,17.2095329 L33.7257837,17.2093546 C33.6145152,17.2091159 33.5243271,17.1189278 33.5240884,17.0076593 L33.5228144,14.2604245 C33.5225759,14.149083 33.6127943,14.0587809 33.7241358,14.0587293 C33.7241982,14.0587292 33.7242605,14.0587292 33.7243227,14.0589161 Z" id="矩形" opacity="0.119051" transform="translate(33.917375, 15.634225) rotate(324.000000) translate(-33.917375, -15.634225) "></path>
                    <path d="M40.1923668,9.86186855 L40.5770835,9.86203095 C40.6883585,9.86224823 40.7785531,9.95244279 40.7787704,10.0637178 L40.7814272,16.3545725 C40.7816443,16.465914 40.6914223,16.5562123 40.5800807,16.5562593 C40.5800239,16.5562593 40.5799672,16.5562593 40.5799105,16.5560892 L40.1951938,16.5559268 C40.0839187,16.5557095 39.9937242,16.4655149 39.9935069,16.3542399 L39.9908501,10.0633852 C39.9906329,9.95204372 40.080855,9.86174541 40.1921966,9.86169839 C40.1922534,9.86169836 40.1923101,9.86169836 40.1923668,9.86186855 Z" id="矩形" opacity="0.278366815" transform="translate(40.386139, 13.208979) rotate(330.000000) translate(-40.386139, -13.208979) "></path>
                    <path d="M47.0656141,6.36417312 L47.4503957,6.36431248 C47.5616802,6.36449892 47.6518841,6.45470279 47.6520706,6.56598729 L47.6530661,9.31266893 C47.6532525,9.42401047 47.563025,9.51430339 47.4516834,9.51434374 C47.4516347,9.51434376 47.451586,9.51434376 47.4515373,9.51419771 L47.0667557,9.51405835 C46.9554712,9.5138719 46.8652673,9.42366803 46.8650808,9.31238353 L46.8640854,6.5657019 C46.863899,6.45436035 46.9541265,6.36406744 47.0654681,6.36402709 C47.0655167,6.36402707 47.0655654,6.36402707 47.0656141,6.36417312 Z" id="矩形" opacity="0.119051" transform="translate(47.258576, 7.939185) rotate(336.000000) translate(-47.258576, -7.939185) "></path>
                    <path d="M54.2665211,3.60285528 L54.6513565,3.60296552 C54.7626529,3.60311298 54.8528686,3.69332862 54.8530161,3.80462507 L54.8538034,6.55109181 C54.8539508,6.66243337 54.7637165,6.75271945 54.6523749,6.75275137 C54.6523364,6.75275138 54.6522979,6.75275138 54.6522594,6.75263586 L54.267424,6.75252562 C54.1561276,6.75237817 54.0659119,6.66216252 54.0657644,6.55086607 L54.0649771,3.80439934 C54.0648297,3.69305777 54.155064,3.60277169 54.2664056,3.60273977 C54.2664441,3.60273976 54.2664826,3.60273976 54.2665211,3.60285528 Z" id="矩形" opacity="0.119051" transform="translate(54.459390, 5.177746) rotate(342.000000) translate(-54.459390, -5.177746) "></path>
                    <path d="M61.7169385,1.60859668 L62.101814,1.60867296 C62.2131243,1.60877499 62.3033537,1.69900436 62.3034558,1.81031473 L62.3040006,4.55662088 C62.3041026,4.66796247 62.2138603,4.75824058 62.1025187,4.75826267 C62.1024921,4.75826267 62.1024654,4.75826267 62.1024388,4.75818273 L61.7175633,4.75810644 C61.6062529,4.75800441 61.5160235,4.66777504 61.5159215,4.55646468 L61.5153766,1.81015852 C61.5152746,1.69881694 61.6055169,1.60853883 61.7168585,1.60851674 C61.7168852,1.60851673 61.7169118,1.60851673 61.7169385,1.60859668 Z" id="矩形" opacity="0.119051" transform="translate(61.909689, 3.183390) rotate(348.000000) translate(-61.909689, -3.183390) "></path>
                    <path d="M69.3352339,0.403243628 L69.7201343,0.403282624 C69.8314599,0.403334778 69.9217043,0.493579218 69.9217565,0.604904858 L69.922035,3.35111177 C69.9220872,3.46245337 69.8318361,3.55272273 69.7204945,3.55273402 C69.7204809,3.55273402 69.7204673,3.55273402 69.7204536,3.55269315 L69.3355533,3.55265416 C69.2242277,3.552602 69.1339832,3.46235756 69.1339311,3.35103192 L69.1336526,0.604825011 C69.1336004,0.493483411 69.2238515,0.403214054 69.3351931,0.403202762 C69.3352067,0.403202761 69.3352203,0.403202761 69.3352339,0.403243628 Z" id="矩形" opacity="0.119051" transform="translate(69.527844, 1.977968) rotate(354.000000) translate(-69.527844, -1.977968) "></path>
                </g>
            </g>
        </g>
    </g>
</svg>