<?xml version="1.0" encoding="UTF-8"?>
<svg width="8px" height="11px" viewBox="0 0 8 11" version="1.1" xmlns="http://www.w3.org/2000/svg" xmlns:xlink="http://www.w3.org/1999/xlink">
    <title>切片</title>
    <g id="页面-1" stroke="none" stroke-width="1" fill="none" fill-rule="evenodd">
        <g id="民联新经济大屏2" transform="translate(-1219.000000, -468.000000)" fill="#FF6A8E">
            <g id="编组-28" transform="translate(1147.000000, 459.000000)">
                <g id="编组-20" transform="translate(72.000000, 3.000000)">
                    <g id="d_d" transform="translate(0.000000, 5.600000)">
                        <g id="ic_arr_up" transform="translate(-0.000000, 0.400000)">
                            <path d="M4.5,0.0555557766 C4.77614237,0.0555557766 5,0.279413402 5,0.555555777 L4.999,4.727 L7.47835458,4.72701164 C7.63658719,4.72701166 7.78419367,4.79579898 7.88213108,4.91067577 L7.9346209,4.98495099 C7.97774363,5.06007263 8.0000005,5.14317201 8.0000005,5.22560637 C8.00000049,5.31801262 7.9728749,5.4104188 7.92001477,5.49152356 L7.92001477,5.49152356 L4.44167896,10.7673221 C4.34569609,10.912247 4.17946507,10.9999997 4.00001885,10.9999997 C3.82057264,10.9999996 3.65434129,10.9122469 3.55835844,10.767322 L3.55835844,10.767322 L0.0800233519,5.49152287 C-0.0208281894,5.33795563 -0.0270879608,5.14383586 0.0654172668,4.98495029 C0.156531441,4.82606472 0.331109537,4.72701101 0.521684199,4.72701103 L0.521684199,4.72701103 L2.999,4.727 L3,0.555555777 C3,0.279413402 3.22385763,0.0555557766 3.5,0.0555557766 L4.5,0.0555557766 Z" id="形状结合" transform="translate(4.000000, 5.500000) scale(1, -1) translate(-4.000000, -5.500000) "></path>
                        </g>
                    </g>
                </g>
            </g>
        </g>
    </g>
</svg>