<?xml version="1.0" encoding="UTF-8"?>
<svg width="72px" height="152px" viewBox="0 0 72 152" version="1.1" xmlns="http://www.w3.org/2000/svg" xmlns:xlink="http://www.w3.org/1999/xlink">
    <title>切片</title>
    <defs>
        <rect id="path-1" x="0" y="0" width="72" height="152"></rect>
        <filter x="-171.8%" y="-173.4%" width="443.7%" height="446.7%" filterUnits="objectBoundingBox" id="filter-3">
            <feGaussianBlur stdDeviation="14.446579" in="SourceGraphic"></feGaussianBlur>
        </filter>
        <linearGradient x1="50%" y1="-5.67532132e-12%" x2="50%" y2="180.637789%" id="linearGradient-4">
            <stop stop-color="#82CAF1" stop-opacity="0" offset="0%"></stop>
            <stop stop-color="#6ABFF4" stop-opacity="0.113800262" offset="29.2857659%"></stop>
            <stop stop-color="#0090FF" offset="100%"></stop>
        </linearGradient>
        <linearGradient x1="50%" y1="50%" x2="50%" y2="100%" id="linearGradient-5">
            <stop stop-color="#003DE5" stop-opacity="0" offset="0%"></stop>
            <stop stop-color="#67BDFF" offset="100%"></stop>
        </linearGradient>
        <linearGradient x1="50%" y1="-5.67532132e-12%" x2="50%" y2="180.637789%" id="linearGradient-6">
            <stop stop-color="#82CAF1" stop-opacity="0" offset="0%"></stop>
            <stop stop-color="#6ABFF4" stop-opacity="0.113800262" offset="13.8782225%"></stop>
            <stop stop-color="#0090FF" offset="100%"></stop>
        </linearGradient>
        <linearGradient x1="50%" y1="32.3351187%" x2="50%" y2="100%" id="linearGradient-7">
            <stop stop-color="#003DE5" stop-opacity="0" offset="0%"></stop>
            <stop stop-color="#67BDFF" offset="100%"></stop>
        </linearGradient>
        <path d="M31.1401926,0.635897483 L57.1025675,13.5032148 C57.8174472,13.8575193 58.1097512,14.7242642 57.7554468,15.4391439 C57.6150966,15.7223284 57.3857519,15.9516731 57.1025675,16.0920233 L31.1401926,28.9593406 C30.331748,29.3600171 29.3825377,29.3600171 28.5740931,28.9593406 L2.61171823,16.0920233 C1.89683853,15.7377188 1.6045345,14.8709739 1.95883892,14.1560942 C2.0991891,13.8729097 2.3285338,13.643565 2.61171823,13.5032148 L28.5740931,0.635897483 C29.3825377,0.235220976 30.331748,0.235220976 31.1401926,0.635897483 Z" id="path-8"></path>
        <linearGradient x1="54.3345854%" y1="28.755989%" x2="54.3345854%" y2="76.1456077%" id="linearGradient-10">
            <stop stop-color="#89E3FF" stop-opacity="0" offset="0%"></stop>
            <stop stop-color="#20A1FF" offset="100%"></stop>
        </linearGradient>
        <filter x="-12.6%" y="-14.8%" width="125.1%" height="129.7%" filterUnits="objectBoundingBox" id="filter-11">
            <feGaussianBlur stdDeviation="1.4446579" in="SourceGraphic"></feGaussianBlur>
        </filter>
        <linearGradient x1="76.2310404%" y1="23.3712516%" x2="50%" y2="100%" id="linearGradient-12">
            <stop stop-color="#FFFFFF" stop-opacity="0" offset="0%"></stop>
            <stop stop-color="#FFFFFF" offset="100%"></stop>
        </linearGradient>
        <filter x="-22.8%" y="-21.5%" width="145.6%" height="143.0%" filterUnits="objectBoundingBox" id="filter-13">
            <feGaussianBlur stdDeviation="1.4446579" in="SourceGraphic"></feGaussianBlur>
        </filter>
        <linearGradient x1="49.9199696%" y1="3.09989168%" x2="42.8192348%" y2="100%" id="linearGradient-14">
            <stop stop-color="#0B3A9E" stop-opacity="0.438947771" offset="0%"></stop>
            <stop stop-color="#4099D6" offset="100%"></stop>
        </linearGradient>
        <linearGradient x1="50%" y1="0%" x2="50%" y2="100%" id="linearGradient-15">
            <stop stop-color="#89E6FF" offset="0%"></stop>
            <stop stop-color="#4B89FF" offset="0%"></stop>
            <stop stop-color="#51C9FF" offset="100%"></stop>
        </linearGradient>
        <linearGradient x1="26.8561151%" y1="40.24442%" x2="53.6735681%" y2="59.1162324%" id="linearGradient-16">
            <stop stop-color="#FFFFFF" stop-opacity="0.613035402" offset="0%"></stop>
            <stop stop-color="#FFFFFF" stop-opacity="0" offset="100%"></stop>
        </linearGradient>
    </defs>
    <g id="页面-1" stroke="none" stroke-width="1" fill="none" fill-rule="evenodd">
        <g id="民联新经济大屏2" transform="translate(-537.000000, -584.000000)">
            <g id="ic_data_ia" transform="translate(537.000000, 584.000000)">
                <mask id="mask-2" fill="white">
                    <use xlink:href="#path-1"></use>
                </mask>
                <g id="蒙版"></g>
                <g id="ic_jx_e3备份-3" mask="url(#mask-2)">
                    <g transform="translate(6.142857, 43.683330)">
                        <g id="编组-2" stroke="none" stroke-width="1" fill="none" fill-rule="evenodd" transform="translate(0.000000, 29.328575)">
                            <ellipse id="椭圆形" fill="#246CF9" opacity="0.583914621" filter="url(#filter-3)" cx="29.8571429" cy="29.3154762" rx="12.6106195" ry="12.5"></ellipse>
                            <path d="M28.8146649,15.9189181 C29.4715262,15.5933684 30.2427595,15.5933684 30.8996208,15.9189181 L30.8996208,15.9189181 L50.7548528,25.7594497 C50.9782527,25.8701699 51.1356252,26.0609588 51.2094676,26.2799178 C51.2833101,26.4988767 51.2736225,26.7460055 51.1629024,26.9694054 C51.0751835,27.1463957 50.9318431,27.2897362 50.7548528,27.377455 L50.7548528,27.377455 L30.8996208,37.2179867 C30.2427595,37.5435363 29.4715262,37.5435363 28.8146649,37.2179867 L28.8146649,37.2179867 L8.95943293,27.377455 C8.73603302,27.2667349 8.57866056,27.0759459 8.50481811,26.856987 C8.43097566,26.6380281 8.44066322,26.3908992 8.55138335,26.1674993 C8.63910222,25.990509 8.78244265,25.8471686 8.95943293,25.7594497 L8.95943293,25.7594497 Z" id="矩形备份" stroke="url(#linearGradient-5)" stroke-width="1.08349343" fill="url(#linearGradient-4)" opacity="0.659946987"></path>
                            <path d="M28.8948555,1.28309959 C29.501189,0.982592209 30.2130967,0.982592209 30.8194302,1.28309959 L30.8194302,1.28309959 L56.781805,14.1504169 C56.960525,14.238993 57.0864229,14.3916242 57.1454969,14.5667914 C57.2045708,14.7419585 57.1968208,14.9396616 57.1082447,15.1183815 L57.1082447,15.1183815 L30.8194302,28.3121385 C30.2130967,28.6126459 29.501189,28.6126459 28.8948555,28.3121385 L28.8948555,28.3121385 L2.93248068,15.4448212 C2.75376075,15.356245 2.62786279,15.2036139 2.56878883,15.0284467 C2.50971487,14.8532796 2.51746492,14.6555765 2.60604102,14.4768566 L2.60604102,14.4768566 Z" id="矩形" stroke="url(#linearGradient-7)" stroke-width="1.4446579" fill="url(#linearGradient-6)"></path>
                            <g id="蒙版">
                                <mask id="mask-9" fill="white">
                                    <use xlink:href="#path-8"></use>
                                </mask>
                                <use fill="url(#linearGradient-6)" xlink:href="#path-8"></use>
                                <path d="M28.5,33.2767586 C37.4943516,33.2767586 44.5642542,39.5769414 46.3897668,33.2767586 C48.8348139,24.8384469 36.1573463,6.86117418 28.5,6.86117418 C20.8426537,6.86117418 12.2142857,14.8223437 12.2142857,23.7377976 C12.2142857,30.2261712 19.5056484,33.2767586 28.5,33.2767586 Z" fill="url(#linearGradient-10)" filter="url(#filter-11)" mask="url(#mask-9)" transform="translate(29.456075, 21.469007) scale(1, -1) translate(-29.456075, -21.469007) "></path>
                                <polygon id="路径-13" fill="url(#linearGradient-12)" fill-rule="nonzero" filter="url(#filter-13)" mask="url(#mask-9)" transform="translate(43.428571, 20.851190) scale(1, -1) translate(-43.428571, -20.851190) " points="49.4042678 10.7619048 52.9285714 13.2168383 40.8643032 30.9404762 33.9285714 25.8181186 37.452875 20.2702461 40.8642377 22.9375186"></polygon>
                            </g>
                        </g>
                        <path d="M30.2077751,18.6635059 C32.4824142,15.1702217 34.0733837,10.4763047 34.0733837,6.46572905 C34.0733837,5.40403793 35.0376915,4.41721776 36.9663071,3.50526855 C33.3836726,1.54524201 31.1262146,0.437711285 30.1939329,0.182676384 C29.0273511,-0.136453612 27.6750242,-0.0348538256 26.2484548,0.467090776 C22.0101291,1.95836394 18.4256557,5.98287088 18.4256557,12.4482453 C18.4256557,16.6995888 20.0144954,20.2617096 22.2593171,22.0094088 C23.0388283,24.3077148 21.6033351,25.8700365 21.3221999,26.1354286 C16.6813398,30.0189041 11.5357143,35.7612191 11.5357143,39.1565501 L11.5357143,40.4404338 C11.5357143,42.6167843 12.0513539,44.0703157 13.0826332,44.7953602 C13.371908,44.997368 18.0083476,48.0353108 18.7819587,48.2494732 C19.5555698,48.4636356 17.2101972,43.3614152 17.5976224,43.1771252 C22.2849867,40.9474443 29.3160333,37.602923 38.6907621,33.1435612 C39.209533,32.8968004 39.6938489,32.3792237 39.9808615,31.7655939 C40.6344174,30.3716683 40.9611954,28.7648817 40.9611954,26.9417218 L45.7335243,27.4741113 C44.7857143,26.6275055 40.467267,24.0609923 39.6476973,23.4802617 C37.8143255,22.1811712 34.3513997,21.7531043 31.1427625,21.8932499 C30.8935745,21.8591333 29.4282639,21.5589954 30.2077751,18.6635059 Z" id="路径备份" stroke="none" fill="url(#linearGradient-14)" fill-rule="nonzero"></path>
                        <path d="M31.7600033,3.39339488 C33.8741393,2.64952704 35.8263705,2.80570147 37.2057079,3.98167565 C38.4805684,5.06857658 39.2519551,7.00704435 39.2519551,9.82882429 C39.2519551,13.795032 37.6760457,18.4359688 35.4268454,21.8901853 C35.1041026,23.0419311 35.1169017,23.780286 35.2552107,24.2859298 C35.3545277,24.6490228 35.5191447,24.9014054 35.6955773,25.0789593 C35.9827653,25.3679727 36.3066218,25.4616646 36.4703571,25.4929999 C39.0723044,25.3921925 41.7605925,25.6343419 43.6653548,26.3843538 C44.449439,26.6930918 45.0988958,27.0867303 45.5382384,27.5845158 C45.9212497,28.0184766 46.1397668,28.5320662 46.1397668,29.1347816 L46.1397668,29.1347816 L46.1397668,30.304817 C46.1397668,32.0875301 45.8222549,33.6593021 45.1829794,35.0227702 C44.9219414,35.5808667 44.4847593,36.0559953 44.0119442,36.2808965 L44.0119442,36.2808965 L19.4854046,47.9476568 C17.6721403,47.262946 17.2142857,45.861822 17.2142857,43.8035291 L17.2142857,43.8035291 L17.2142857,42.5196454 C17.2142857,39.1653553 22.3386831,33.5165455 26.9112094,29.6902518 C27.113261,29.5001297 27.8056336,28.7598714 28.066483,27.6113814 C28.2143757,26.9602267 28.2249682,26.1776857 27.9246417,25.292205 C25.6429613,23.4635986 24.1042272,19.9684399 24.1042272,15.8113406 C24.1042272,12.7798947 24.9039197,10.1430929 26.1945565,8.05542269 C27.6018228,5.77909814 29.5922315,4.15613474 31.7600033,3.39339488 Z" id="路径" stroke="url(#linearGradient-16)" stroke-width="0.5" fill="url(#linearGradient-15)" fill-rule="nonzero"></path>
                        <polygon id="路径-13备份" stroke="none" fill="#A0C9F1" fill-rule="nonzero" points="46.1926788 25.3138257 48.9069645 26.6590638 41.4545868 44.5053906 38.7403011 43.1601525 32.687853 38.6298384 35.7633273 33.7231904 38.477613 35.0684285 38.7402439 36.0821789"></polygon>
                        <polygon id="路径-13" stroke="none" fill="#FFFFFF" fill-rule="nonzero" points="48.9069645 26.6590638 51.9824388 28.8302555 41.4545868 44.5053906 35.4021387 39.9750765 38.477613 35.0684285 41.4545296 37.427417"></polygon>
                    </g>
                </g>
            </g>
        </g>
    </g>
</svg>