<?xml version="1.0" encoding="UTF-8"?>
<svg width="26px" height="26px" viewBox="0 0 26 26" version="1.1" xmlns="http://www.w3.org/2000/svg" xmlns:xlink="http://www.w3.org/1999/xlink">
    <title>切片</title>
    <defs>
        <linearGradient x1="65.0717722%" y1="-4.91202315%" x2="-8.26891116%" y2="83.0389295%" id="linearGradient-1">
            <stop stop-color="#E9C158" offset="0%"></stop>
            <stop stop-color="#F2C753" offset="43.4631774%"></stop>
            <stop stop-color="#D3AD44" stop-opacity="0.321787587" offset="100%"></stop>
        </linearGradient>
    </defs>
    <g id="页面-1" stroke="none" stroke-width="1" fill="none" fill-rule="evenodd">
        <g id="民联新经济大屏2" transform="translate(-59.000000, -14.000000)" fill="url(#linearGradient-1)">
            <g id="ic_logo_1" transform="translate(59.000000, 14.000000)">
                <g id="编组" transform="translate(1.000000, 1.000000)">
                    <path d="M12.2458541,0 C15.3276303,0 18.0608926,1.53329946 19.7625627,3.89798963 C18.2107358,2.71836934 16.2909603,2.02105263 14.2126872,2.02105263 C9.05299068,2.02105263 4.87023023,6.31911903 4.87023023,11.6210526 C4.87023023,13.756703 5.54889413,15.7294733 6.69670102,17.3240668 C4.39593333,15.5760398 2.90339719,12.7671251 2.90339719,9.6 C2.90339719,4.2980664 7.08615764,0 12.2458541,0 Z" id="形状结合"></path>
                    <path d="M16.2855734,2.77950142 C19.3673495,2.77950142 22.1006118,4.31280087 23.802282,6.67749104 C22.250455,5.49787076 20.3306796,4.80055405 18.2524064,4.80055405 C13.0927099,4.80055405 8.90994949,9.09862045 8.90994949,14.400554 C8.90994949,16.5362044 9.58861339,18.5089747 10.7364203,20.1035682 C8.43565259,18.3555412 6.94311645,15.5466265 6.94311645,12.3795014 C6.94311645,7.07756782 11.1258769,2.77950142 16.2855734,2.77950142 Z" id="形状结合备份" transform="translate(15.372338, 11.440531) rotate(-270.000000) translate(-15.372338, -11.440531) "></path>
                    <path d="M13.5806167,6.67794088 C16.6623928,6.67794088 19.3956551,8.21124033 21.0973252,10.5759305 C19.5454983,9.39631022 17.6257229,8.69899351 15.5474497,8.69899351 C10.3877532,8.69899351 6.20499276,12.9970599 6.20499276,18.2989935 C6.20499276,20.4346439 6.88365665,22.4074142 8.03146354,24.0020077 C5.73069586,22.2539807 4.23815972,19.445066 4.23815972,16.2779409 C4.23815972,10.9760073 8.42092016,6.67794088 13.5806167,6.67794088 Z" id="形状结合备份-3" transform="translate(12.667381, 15.338970) rotate(-180.000000) translate(-12.667381, -15.338970) "></path>
                    <path d="M9.54089739,3.89843946 C12.6226735,3.89843946 15.3559358,5.43173892 17.057606,7.79642909 C15.505779,6.6168088 13.5860036,5.91949209 11.5077304,5.91949209 C6.34803394,5.91949209 2.1652735,10.2175585 2.1652735,15.5194921 C2.1652735,17.6551425 2.84393739,19.6279128 3.99174428,21.2225062 C1.6909766,19.4744793 0.198440456,16.6655645 0.198440456,13.4984395 C0.198440456,8.19650586 4.3812009,3.89843946 9.54089739,3.89843946 Z" id="形状结合备份-2" transform="translate(8.627662, 12.559469) rotate(-90.000000) translate(-8.627662, -12.559469) "></path>
                </g>
            </g>
        </g>
    </g>
</svg>