<?xml version="1.0" encoding="UTF-8"?>
<svg width="64px" height="85px" viewBox="0 0 64 85" version="1.1" xmlns="http://www.w3.org/2000/svg" xmlns:xlink="http://www.w3.org/1999/xlink">
    <title>切片</title>
    <defs>
        <polygon id="path-1" points="0 0 64 0 64 85 0 85"></polygon>
    </defs>
    <g id="页面-1" stroke="none" stroke-width="1" fill="none" fill-rule="evenodd">
        <g id="民联新经济大屏2" transform="translate(-402.000000, -718.000000)">
            <g id="编组-15" transform="translate(402.000000, 718.000000)">
                <mask id="mask-2" fill="white">
                    <use xlink:href="#path-1"></use>
                </mask>
                <use id="Clip-2" stroke-opacity="0.129807692" stroke="#2DA1FF" stroke-width="0.5" fill-opacity="0.046984" fill="#2DA1FF" xlink:href="#path-1"></use>
                <g id="编组-14" mask="url(#mask-2)">
                    <g transform="translate(-83.155008, -101.414038)">
                        <path d="M139.091008,99.1224003 C138.349847,98.6084772 137.246082,99.3411585 137.036627,99.4455871 C136.831677,99.5498288 136.436791,99.8674112 136.149261,100.374983 C135.863231,100.879752 136.017882,100.834356 135.663536,101.426741 C135.301307,102.032576 135.22417,102.703049 134.835665,103.610027 C134.452604,104.509345 134.133542,104.877554 134.147055,105.605939 C134.153436,105.929312 134.168451,106.113697 134.171454,106.256422 C134.174457,106.421565 134.180463,106.462104 134.117589,106.711126 C134.068228,106.897378 134.019994,107.069433 134.019243,107.166202 C134.025812,107.317521 134.111583,107.389071 134.275806,107.599609 C134.557894,107.959411 134.590175,108.056554 134.82309,108.515367 C135.054504,108.978664 135.216662,109.096356 135.701448,109.376763 C136.195806,109.668939 136.339196,109.719939 136.479395,110.173334 C136.623161,110.63084 136.599888,110.829609 136.826609,110.887708 C136.9578,110.90751 136.991208,110.937587 137.10363,111.03006 C137.128217,111.052664 137.159935,111.070411 137.201601,111.070598 C137.399794,111.003719 137.34424,110.803268 137.360568,110.506235 C137.352498,110.235917 137.234633,109.976994 137.229002,109.633071 C137.225812,109.478576 137.243454,109.308016 137.304826,109.113917 C137.510527,108.444005 137.489131,108.398422 137.687137,108.180598 C137.911043,107.932884 138.254879,107.307994 138.392639,106.740642 C138.526082,106.188609 138.635501,105.644422 138.691806,104.88895 C138.740228,104.245939 138.823184,104.028301 138.819618,103.723983 C138.818868,103.675224 138.813988,103.625345 138.809108,103.575279 C138.79597,103.468609 138.787524,103.373521 138.785835,103.284598 C138.781143,103.063038 138.816428,102.867257 138.960756,102.577323 C139.106961,102.27618 139.239841,102.002873 139.232521,101.635411 C139.229519,101.488763 139.204181,101.330159 139.152756,101.150071 C139.048029,100.794191 139.530187,99.4267189 139.091008,99.1224003 Z M100.178258,121.615268 C99.5241813,122.6334 99.3301168,121.958071 98.6334365,122.345708 C98.281718,122.581653 99.0393954,122.711675 97.7047796,123.53795 C96.8059643,124.443807 96.9425977,125.736554 97.6203221,126.872005 C97.8278998,127.219664 98.6660933,127.565082 99.6662576,127.704071 C99.9059291,127.73751 100.233812,127.891818 100.510832,127.758433 C101.017765,127.514455 101.040099,127.452807 101.279395,127.385928 C102.127161,127.149796 101.577436,126.621301 103.039114,126.167345 C103.76207,125.942609 103.51095,124.917378 104.183231,123.740268 C104.288146,123.287246 104.32024,123.05373 104.850258,122.603137 C105.201413,121.788071 104.383489,121.004202 104.169906,121.151598 C103.971337,121.269104 103.876557,121.284983 103.659595,121.346257 C103.505319,121.389785 103.332087,121.310576 102.972299,121.310576 C102.649108,121.310576 102.518105,121.556422 102.074797,121.556983 C101.310551,121.55773 100.605988,121.445455 100.178258,121.615268 Z M57.7220464,91.9427959 C58.6317473,92.7063014 59.6343514,93.2149937 59.9496593,93.0728288 C60.2651549,92.9310376 60.5149614,92.6280266 60.5052019,92.3993673 C60.4952546,92.170708 60.6442752,91.7429058 60.8360875,91.448675 C61.0278998,91.1544442 61.4588206,91.165653 61.7936476,91.4738948 C62.1284746,91.7819497 62.5490728,92.1040156 62.7281227,92.1895761 C62.9071725,92.2753233 63.1335186,92.8103563 63.2311139,93.378642 C63.3287092,93.9471145 63.6353837,94.4029387 63.9125919,94.3913563 C64.1898001,94.3797739 64.4583749,95.3405541 64.5098001,96.5268178 C64.5647913,97.8025651 64.3403221,98.8494662 64.0486623,100.073279 C63.9386799,100.534895 63.3461637,101.03406 62.9989497,101.356873 C62.7241813,101.612433 62.3441227,101.686411 62.0656007,101.931884 C61.7837004,102.180532 61.5813778,102.539961 61.3159936,102.810466 C61.0684394,103.062477 60.691196,103.292444 60.571454,103.638049 C60.4550904,103.974312 60.6009203,104.358774 60.5363573,104.707367 C60.4614716,105.110697 60.2604628,105.317686 60.4186799,105.777433 C60.5468675,106.149939 60.0996183,106.715049 60.3233367,107.055983 C60.6694247,107.58373 61.4753367,106.829005 61.9526153,106.833675 C62.2303866,106.83629 62.8401696,106.834422 63.307501,106.829378 C63.7748323,106.824148 64.0454716,107.000126 63.9092136,107.220565 C63.5593719,107.785488 64.0456593,108.708906 64.1663397,109.286719 C64.2556769,109.714521 64.4437356,110.030235 64.8423749,110.235917 C65.0865508,110.362016 65.9876183,110.401807 65.8720054,110.834279 C65.8217062,111.022213 65.6807561,111.356049 65.5583866,111.576115 C65.2321931,112.163829 64.8194775,113.870741 65.9746681,113.822543 C66.5435362,113.798818 67.0673602,114.022994 67.1386799,114.320587 C67.2099995,114.617994 67.4937766,115.098104 67.7692957,115.38729 C68.0448148,115.67629 68.5592546,115.959312 68.9124746,116.01629 C69.2656945,116.073082 69.7898939,116.027686 70.077237,115.915785 C70.3647678,115.80351 70.8127678,115.656115 71.0728969,115.587928 C71.3328382,115.519928 71.5578705,115.744851 71.5726975,116.087653 C71.5875244,116.430642 71.7616945,116.868159 71.9602634,117.060389 C72.158457,117.252433 72.5593485,117.399642 72.851196,117.387686 C73.1428558,117.375356 73.3705156,117.1084 73.3568148,116.793994 C73.3433016,116.479587 73.3838411,116.033104 73.4469027,115.801268 C73.5099643,115.569807 73.4255068,114.999466 73.2592194,114.534115 C73.0929321,114.068763 73.0672194,113.472642 73.201976,113.209235 C73.3367326,112.946016 73.7500112,112.823466 74.1201227,112.936862 C74.4904218,113.050257 74.9986681,112.912202 75.249413,112.629741 C75.5003455,112.347279 76.0716535,112.288433 76.5192781,112.498785 C76.966715,112.709137 77.6008969,112.717917 77.9285919,112.51784 C78.3989262,112.231455 78.7189262,112.4334 79.1810024,112.530169 C80.0983983,112.72184 80.8196652,112.365213 81.6449086,112.039972 C82.1983866,111.821961 82.813237,111.831862 83.3663397,111.610488 C83.8819057,111.40406 84.3766388,111.070038 84.8411549,110.773005 C85.2962869,110.482323 85.9426681,110.502126 86.2778705,110.817466 C86.6128851,111.13262 87.2472546,111.422367 87.6873719,111.461411 C88.1276769,111.500268 88.8252957,111.600027 89.2381989,111.683159 C89.649413,111.76573 89.9983162,112.112082 90.0153954,112.45395 C90.0371667,112.890345 89.7417532,113.216148 89.6884511,113.613873 C89.5824101,114.406334 90.752803,115.253532 91.4453543,115.416433 C91.9620464,115.538049 92.7610142,115.762411 93.2206505,115.915038 C93.6804746,116.067664 94.2622928,116.254104 94.513976,116.329763 C94.7656593,116.405049 95.1650494,116.247939 95.4019057,115.980609 C95.6911256,115.65462 96.0282048,115.135653 96.5524042,115.143499 C97.1192077,115.152093 97.7744101,115.786884 98.2483104,116.043939 C98.5174482,116.190213 98.9600054,116.195257 99.2317708,116.055148 C99.5033485,115.915038 99.9609203,115.989576 100.248639,116.221038 C100.536357,116.452312 100.665859,116.962126 100.536733,117.35406 C100.407419,117.745994 100.364252,118.403389 100.440451,118.815312 C100.516651,119.227049 100.790105,119.742653 101.047982,119.961038 C101.306046,120.179235 101.707876,120.349983 101.941167,120.340491 C102.174457,120.330554 102.452979,120.131598 102.559771,119.898082 C102.66675,119.664565 102.565777,119.270763 102.336052,119.022675 C102.105953,118.774587 101.946797,118.406565 101.981894,118.20462 C102.016991,118.002862 102.25441,117.688455 102.509659,117.505939 C102.764721,117.323796 103.385765,117.028631 103.889507,116.850224 C104.393436,116.671818 105.209671,116.473796 105.703841,116.410279 C106.198011,116.346763 106.758246,116.030675 106.948932,115.707862 C107.139806,115.385049 107.81678,115.005631 108.453589,114.864587 C109.090586,114.723543 109.927841,114.454532 110.314469,114.266785 C110.700721,114.078851 111.080592,113.735115 111.158293,113.502906 C111.235994,113.270697 111.438879,113.26229 111.609108,113.484038 C111.779337,113.706159 112.136498,113.667862 112.402633,113.399038 C112.668768,113.1304 112.866586,112.45451 112.842563,111.897433 C112.818351,111.340356 113.219243,111.206411 113.732932,111.600027 C114.246997,111.993829 115.031888,112.171862 115.477261,111.995884 C115.922633,111.819906 116.768521,111.46851 117.356721,111.215191 C117.94492,110.961499 118.789683,110.586752 119.233929,110.382378 C119.677988,110.177818 120.510926,109.803444 121.084299,109.550686 C121.658046,109.297741 122.33014,108.801378 122.577882,108.447367 C122.825812,108.09373 123.213753,107.667609 123.440475,107.500785 C123.667008,107.333774 124.130211,106.986862 124.46973,106.729246 C124.809436,106.471818 125.220463,106.021411 125.383184,105.728488 C125.383184,105.728488 125.383184,105.728488 125.54234,105.721763 C125.701495,105.715224 125.701495,105.715224 125.701495,105.715224 C126.336052,105.517016 126.964228,105.116115 127.097859,104.824312 C127.231302,104.53251 127.199583,104.077246 127.027478,103.812345 C126.855372,103.547631 127.11719,103.24406 127.609483,103.137576 C128.101777,103.031279 128.717565,102.619169 128.978258,102.221818 C129.238762,101.824466 129.477307,100.983246 129.508463,100.352191 C129.508463,100.352191 129.508463,100.352191 129.767466,100.184994 C130.088967,99.9787519 130.562492,99.9720266 130.922844,99.8649827 C131.828791,99.5957849 131.443102,98.387664 131.412134,97.670675 C131.39224,97.2133563 131.308346,96.6547849 131.225577,96.4293014 C131.142809,96.2038178 131.031513,95.8453233 130.978586,95.6329167 C130.925472,95.4205101 131.226703,95.1970816 131.648052,95.1365541 C132.069214,95.0762134 132.497131,94.7421915 132.599043,94.3945321 C132.700956,94.046686 132.985483,93.437675 133.231348,93.0410706 C133.477401,92.6440926 133.662832,91.9573673 133.643689,91.51462 C133.624545,91.071686 133.953366,90.3787959 134.374152,89.9747189 C134.749331,89.6149167 135.213847,89.1703014 135.410164,88.6567519 C135.611548,88.1308728 135.327395,87.5057959 135.355548,86.9524552 C135.399653,86.088631 135.597847,85.1373783 135.883501,84.3168948 C136.065554,83.7941915 135.981284,83.4810926 135.73448,83.1765871 C135.487489,82.8718948 135.093167,82.112686 134.685519,82.0353453 C134.222879,81.9477299 133.76024,81.7941695 133.436486,81.8969167 C132.991489,82.0379607 132.486621,82.356664 132.116134,82.3800156 C131.80458,82.3998178 131.468815,82.3252794 131.39787,82.1481805 C131.317542,81.9484772 132.133026,81.6165101 132.355618,81.4782684 C132.718035,81.2527849 132.857671,80.9488398 133.308862,80.5722244 C133.76024,80.1957959 134.460111,80.2847189 134.772416,80.0713783 C135.084721,79.8578508 135.158105,79.1427299 134.973612,78.9359277 C134.789495,78.7287519 134.389354,78.1873673 133.794211,77.7491036 C133.291407,77.3790266 133.157026,77.1948288 132.557565,76.8553893 C131.994703,76.536686 131.953413,76.4677519 132.150856,76.3018618 C132.348486,76.1361585 132.617812,76.2555321 133.051173,76.3418398 C133.305671,76.3924662 133.277894,76.3894772 133.764557,76.5004442 C134.295137,76.621686 134.254598,76.5708728 134.361577,76.3575321 C134.377343,76.3265211 134.351442,76.1215871 134.351442,76.1215871 C134.323665,75.8223123 134.35651,75.3717189 133.849953,75.1495981 C133.343583,74.9274772 132.927302,74.6295101 132.477237,74.3619937 C132.02736,74.0944772 131.476885,73.5319827 131.254293,73.1118398 C131.031325,72.691697 130.635501,71.8299277 130.374246,71.1968178 C130.113178,70.5635211 129.73312,69.7947849 129.529859,69.4882244 C129.326598,69.1820376 129.010164,68.7734772 128.826422,68.5808728 C128.642868,68.3880816 127.88519,68.0097849 127.142715,67.7402134 C126.400428,67.470642 125.639747,67.0219167 125.452252,66.7435651 C125.264944,66.4652134 125.602961,65.4321365 126.20336,64.4483783 C126.803759,63.4642464 127.226422,62.4513453 127.14234,62.1972794 C127.058258,61.9432134 127.17631,61.6338508 127.404909,61.5098069 C127.633319,61.3857629 127.950692,61.5365211 128.110222,61.8447629 C128.110222,61.8447629 128.110222,61.8447629 128.267126,61.7861036 C128.424029,61.727631 128.424029,61.727631 128.424029,61.727631 C128.762985,61.4558178 129.035126,60.8355981 129.028557,60.3491365 C129.022175,59.8628618 129.22675,59.3392244 129.483126,59.1852904 C129.739689,59.0315431 130.453073,58.6622134 131.068674,58.36462 C131.684087,58.0670266 132.417554,57.8843233 132.698516,57.9584882 C132.97929,58.032653 133.277706,58.0203233 133.361413,57.9308398 C133.445495,57.8415431 133.604087,57.3664772 133.714445,56.8753453 C133.824803,56.3840266 133.461636,56.0010596 132.907219,56.0242244 C132.352803,56.0472025 131.664568,56.1695651 131.377788,56.2960376 C131.091008,56.4223233 130.677354,56.5332904 130.458516,56.5424442 C130.239677,56.5515981 129.641718,56.2719387 129.129718,55.9211036 C128.61753,55.5702684 127.922914,55.5407519 127.585648,55.8553453 C127.248568,56.1699387 126.758527,56.7290706 126.496709,57.097653 C126.235079,57.4664222 125.754422,57.9665211 125.428791,58.2090047 C125.103161,58.451675 124.511958,58.6050486 124.115008,58.5501255 C123.718246,58.4950156 123.319794,58.1368948 123.230457,57.7541145 C123.140744,57.3713343 123.131548,56.8800156 123.209812,56.6620047 C123.288076,56.4441805 123.222011,56.0251585 123.063231,55.7313014 C122.904451,55.4372574 122.492862,55.3257299 122.149026,55.4832134 C121.805002,55.6405101 121.251337,55.8275101 120.918199,55.898686 C120.585061,55.9698618 120.158832,55.7884662 119.970774,55.4957299 C119.782715,55.2029937 119.45746,54.5958508 119.248193,54.1465651 C119.038739,53.6974662 118.96085,52.9980376 119.074774,52.5924662 C119.188885,52.1870816 119.530093,51.7863673 119.83339,51.7021145 C120.136686,51.6180486 120.531571,51.6249607 120.710809,51.71762 C120.890234,51.8102794 121.379712,51.7901036 121.798434,51.6724112 C122.217155,51.5547189 122.777202,50.957664 123.043149,50.3454772 C123.308909,49.7332904 124.057765,48.8003453 124.707149,48.2724112 C125.356533,47.7444772 126.203736,46.596697 126.5898,45.7218508 C126.975865,44.8471915 127.6138,44.1178728 128.007747,44.1014332 C128.401695,44.0851805 128.860017,43.9021036 129.026492,43.6949277 C129.19278,43.4875651 129.40824,43.4901805 129.505085,43.7009058 C129.601741,43.911631 129.918363,44.3200047 130.208521,44.6084442 C130.49868,44.8968838 130.654269,45.4524662 130.554046,45.8430926 C130.454011,46.2337189 130.059126,46.7771585 129.676439,47.050653 C129.293565,47.3243343 129.069659,47.9542684 129.178703,48.450631 C129.287935,48.9469937 129.548815,49.4513893 129.758645,49.5715101 C129.968287,49.6914442 130.026844,49.9350486 129.888334,50.1125211 C129.749824,50.2899937 129.38309,50.656708 129.073225,50.9272134 C128.76336,51.1977189 128.704991,51.504653 128.943161,51.6090816 C129.181706,51.713697 129.762398,51.3148508 130.233483,50.722653 C130.233483,50.722653 130.233483,50.722653 130.390387,50.6641805 C130.54729,50.6055211 130.54729,50.6055211 130.54729,50.6055211 C131.096263,49.7813014 131.88153,48.858631 132.292181,48.5552464 C132.702832,48.2518618 133.459384,47.7753014 133.973448,47.4963893 C134.487513,47.2174772 135.241812,46.9634112 135.649648,46.9322134 C136.057483,46.9008288 136.635736,46.4435101 136.93434,45.9159497 C137.232944,45.3882025 137.983302,44.4903783 138.601718,43.9207849 C139.386609,43.1978178 140.299689,42.5028728 140.762516,41.5235981 C141.055302,40.9041255 140.991865,40.1742464 141.2458,39.5413233 C141.440991,39.0548618 142.192475,38.3214332 142.667689,39.0152574 C142.839231,39.2657739 143.313507,39.4451145 143.721343,39.4139167 C144.129178,39.3825321 144.722445,39.2758618 145.03963,39.1768508 C145.356815,39.077653 145.61075,38.8680486 145.603994,38.7109387 C145.597237,38.5538288 145.527419,38.3225541 145.448967,38.1970156 C145.370516,38.0714772 145.226563,37.7849058 145.129343,37.5599827 C144.925143,37.088653 146.087653,36.8035761 146.345906,36.6582354 C147.025882,36.2754552 147.171149,35.1327189 147.829354,34.8709937 C148.030739,34.7910376 148.172815,34.2113563 148.145788,33.5827299 C148.118574,32.9541036 148.623255,32.7340376 149.267008,33.093653 C149.911137,33.4532684 150.430082,33.5604992 150.419947,33.3318398 C150.410187,33.1033673 150.594868,32.6740706 150.830785,32.3777849 C151.300181,31.7878288 151.277472,30.9505321 151.186821,30.2479277 C151.086035,29.4648069 151.011524,28.7734112 150.974175,27.982631 C150.945835,27.3812794 149.566175,25.3892904 150.30058,25.035653 C150.65868,24.8632244 151.019782,24.3681695 151.103489,23.9353233 C151.187008,23.5024772 152.035337,23.2095541 152.988392,23.2842794 C153.941636,23.3591915 154.709824,23.1514552 154.69556,22.8228508 C154.681296,22.4944332 154.659149,21.9801365 154.646199,21.6801145 C154.611665,20.8824222 154.894316,20.0496091 154.951747,19.2513563 C155.036205,18.0718178 154.970516,16.8887299 154.919653,15.7093783 C154.905953,15.3951585 155.097577,14.8483563 155.345319,14.4945321 C155.593249,14.1408948 155.787313,13.6527519 155.777211,13.409708 C155.766293,13.1668508 155.551771,12.9064332 155.300087,12.8311475 C155.048404,12.755675 154.853589,12.4007299 154.86729,12.0424222 C154.881178,11.6841145 154.641695,11.4012794 154.335395,11.4139827 C154.029096,11.426686 153.619947,11.6428288 153.426258,11.8942794 C153.232381,12.1455431 152.842187,12.5247739 152.559161,12.7369937 C152.276134,12.9490266 151.757941,13.1347189 151.407912,13.1492904 C151.407912,13.1492904 151.407912,13.1492904 151.251008,13.2077629 C151.094105,13.2664222 151.094105,13.2664222 151.094105,13.2664222 C150.827032,13.8500266 150.460862,14.5092904 150.280498,14.7314112 C150.100134,14.9535321 149.657014,15.2062904 149.295348,15.2929717 C148.535419,15.4751145 147.063043,15.9888508 146.352099,15.4414882 C146.140392,15.2785871 145.956838,14.8999167 145.9437,14.5998948 C145.918363,14.0149827 145.747571,13.3725321 145.161436,13.0969827 C144.93753,12.9918069 144.82736,12.6568508 144.916697,12.3525321 C145.005659,12.0482134 144.625225,11.8182464 144.070809,11.8412244 C144.070809,11.8412244 144.070809,11.8412244 143.911653,11.8479497 C143.752686,11.8544882 143.752686,11.8544882 143.752686,11.8544882 C143.153038,11.5073893 142.465929,11.1027519 142.225695,10.9553563 C141.985648,10.8077739 141.591137,10.8124442 141.349401,10.965631 C141.107478,11.1190047 140.654035,11.1378728 140.341542,11.007664 C140.028862,10.877642 139.645425,10.8584003 139.489272,10.9650706 C139.333307,11.0717409 138.979712,11.1918618 138.70363,11.2320266 C138.427923,11.2720047 138.003571,11.1374992 137.760897,10.9329387 C137.518222,10.7283783 137.18546,10.2269717 137.0218,9.81878487 C136.101401,7.52453213 134.256662,5.68516949 132.977976,3.55904861 C132.504263,2.77163103 131.997519,1.94983982 131.244909,1.38585081 C130.332017,0.701554105 129.281178,0.753674984 128.212134,0.506707951 C126.690961,0.155685973 125.264005,-0.349643697 123.752029,0.352400259 C122.36092,0.998400259 120.351958,1.28740026 119.325519,2.48244421 C119.064076,2.78713652 118.815958,3.50879586 119.107994,3.8691585 C119.350856,4.16880685 119.512451,3.92987279 119.777272,4.02794971 C120.278387,4.21382883 120.476017,5.2347629 120.288897,5.67508158 C120.196181,5.89346619 119.877683,6.26989476 119.581143,6.5112574 C119.284604,6.75262004 119.088287,7.46344421 119.144404,8.0907629 C119.144404,8.0907629 119.144404,8.0907629 119.049812,8.35491674 C118.954844,8.61907059 118.575161,9.67587279 118.482633,9.9919607 C118.390105,10.3080486 118.156252,11.0463343 118.006105,11.2607959 C117.855958,11.4752574 117.855958,11.4752574 117.855958,11.4752574 C117.578938,11.8303893 117.65007,12.3659827 118.013612,12.6658178 C118.013612,12.6658178 118.013612,12.6658178 117.916392,12.8780376 C117.819548,13.0902574 117.819548,13.0902574 117.819548,13.0902574 C117.509495,13.3607629 117.006504,13.6159497 116.701331,13.6572354 C116.396346,13.6985211 116.099994,13.7577409 116.04275,13.7887519 C116.04275,13.7887519 116.04275,13.7887519 115.906117,14.3150047 C115.769296,14.8410706 115.769296,14.8410706 115.769296,14.8410706 C115.609014,15.1911585 115.05929,15.4717519 114.547478,15.4644662 C114.035665,15.4569937 113.277237,15.3364992 112.861894,15.1962025 C112.446739,15.0560926 111.963079,15.4861365 111.787219,16.1519387 C111.787219,16.1519387 111.787219,16.1519387 111.793976,16.3077409 C111.800733,16.4635431 111.29136,18.2022134 111.245002,18.3602574 C111.198645,18.5183014 110.911677,19.2588288 110.872263,19.5728618 C110.832662,19.886708 110.832662,19.886708 110.832662,19.886708 C110.59712,20.5263563 110.315595,21.2054222 110.206926,21.3961585 C110.098258,21.586708 110.313906,21.8704772 110.685894,22.026653 C111.05807,22.1830156 111.75719,22.0367409 112.239536,21.7019717 C112.239536,21.7019717 112.239536,21.7019717 112.394375,21.5913783 C112.549026,21.4807849 112.549026,21.4807849 112.549026,21.4807849 C113.249085,21.451642 114.018586,21.5484112 114.258821,21.6958069 C114.498868,21.8432025 114.865038,21.7342904 115.072052,21.453697 C115.279067,21.1732904 115.969554,20.8284332 116.606551,20.6872025 C116.606551,20.6872025 116.606551,20.6872025 116.818821,20.6784222 C117.03109,20.669642 117.928217,20.5282244 118.103137,20.8852244 C118.27787,21.2422244 118.713671,21.4843343 119.211219,21.9321255 C119.708768,22.3797299 120.529131,22.9181255 120.646434,23.1733123 C120.763736,23.4288728 121.162,24.0367629 121.168944,24.1925651 C121.1757,24.3485541 121.1757,24.3485541 121.1757,24.3485541 C120.931524,24.7881255 120.313108,25.1415761 119.801296,25.1342904 C119.289483,25.1270047 118.383348,24.9071255 117.787454,24.6455871 C117.787454,24.6455871 117.787454,24.6455871 117.212768,24.8777959 C116.638269,25.1098178 116.183325,25.6491475 115.927137,25.8680926 C115.67095,26.0870376 115.67095,26.0870376 115.67095,26.0870376 C115.282821,25.902653 114.960568,25.9161036 114.954563,26.1167409 C114.948744,26.3173783 114.74248,26.5249277 114.496428,26.5783563 C114.250187,26.6314112 113.743067,26.7930047 113.36939,26.9374112 C112.995524,27.0818178 112.503607,27.5940596 112.275947,28.0758508 C112.048287,28.557642 111.809554,29.3990486 111.745741,29.9454772 C111.745741,29.9454772 111.745741,29.9454772 111.588838,30.0041365 C111.431935,30.0626091 111.431935,30.0626091 111.431935,30.0626091 C110.369648,30.5077849 109.181049,30.6742354 108.790668,30.4328728 C108.790668,30.4328728 108.790668,30.4328728 108.441765,30.9679058 C108.093049,31.5027519 108.093049,31.5027519 108.093049,31.5027519 C107.026258,32.5205101 105.858868,33.1780926 105.498891,32.9640047 C105.138914,32.7499167 104.592193,32.5502134 104.284205,32.5201365 C103.975841,32.4900596 103.363994,32.4452244 102.924815,32.4205651 C102.485261,32.3959058 101.981519,32.6393233 101.805659,32.9615761 C101.629425,33.2838288 101.432357,33.9828838 101.367794,34.5151145 C101.303043,35.0473453 101.548721,35.751631 101.913765,36.0798618 C101.913765,36.0798618 101.913765,36.0798618 102.033319,36.3871695 C102.152686,36.6944772 102.152686,36.6944772 102.152686,36.6944772 C102.086246,37.1839277 101.715571,37.7378288 101.329319,37.9257629 C100.942692,38.113697 100.269847,38.5865211 99.8336711,38.9767739 C98.8252488,39.8788948 97.8168265,40.896653 96.5161813,41.3814332 C95.1530376,41.8895651 93.6757825,42.0031475 92.2540816,42.275708 C89.9040992,42.7264882 87.2647092,43.3411036 85.2245919,44.6334772 C84.7411197,44.9398508 84.1379057,45.0937849 83.8841579,44.9755321 C83.6307854,44.8572794 83.309847,44.624697 83.1711491,44.45862 C83.0324511,44.2927299 82.6801696,44.1668178 82.3885098,44.1789607 C82.0968499,44.1911036 81.6342106,44.2805871 81.3607561,44.3779167 C81.0873016,44.4752464 80.5188089,44.3231805 80.0974599,44.0401585 C79.6759233,43.7573233 78.6318411,43.3907959 77.7771315,43.2260266 C77.7771315,43.2260266 77.7771315,43.2260266 77.617976,43.2325651 C77.4588206,43.2392904 77.4588206,43.2392904 77.4588206,43.2392904 C76.9336828,43.2611475 76.4160523,42.9078838 76.3088851,42.4543014 C76.2015303,42.0009058 75.2066212,41.667631 74.097976,41.7137739 C74.097976,41.7137739 74.097976,41.7137739 73.9365684,41.6683783 C73.7751608,41.6229827 72.1105977,41.2239497 71.7393602,41.2394552 C71.3786329,41.2544003 71.3683104,41.2549607 71.367935,41.2549607 C69.7641813,41.321653 68.1613661,41.1649167 66.5831373,40.8932904 C65.4452136,40.6975101 63.6779878,40.6027959 62.68702,39.9784662 C62.2161227,39.68162 61.8816711,39.1194992 61.5261989,38.7008508 C60.6682986,37.6907519 60.5759584,36.3221585 59.9515362,35.1939937 C59.5667854,34.498675 58.9530611,33.9402904 58.3678646,33.4065651 C57.5443104,32.6552025 56.5968851,32.0773893 55.5552429,31.662664 C54.7970024,31.3607739 53.986023,31.2186091 53.2230904,30.9288618 C52.4412019,30.6318288 51.6983514,30.2361585 50.8744218,30.0547629 C50.2779643,29.92362 49.5413074,29.8197519 49.0957473,29.3663563 C48.5161813,28.7764003 48.6165919,27.8828728 49.2732957,27.3936091 C50.0966623,26.7801145 50.5043104,25.6097299 50.4530728,24.6233563 C50.4267972,24.1165321 50.2798411,23.5970047 49.9251197,23.2134772 C49.7496359,23.0238618 49.4033602,22.8163123 49.2764863,22.559631 C49.0848617,22.1719937 49.2901872,21.7641805 49.2100464,21.3612244 C49.1193954,20.9054003 48.9268323,20.3968948 48.5585977,20.0851036 C48.0428441,19.6485211 47.3219526,19.2920816 46.9565332,19.2930156 C46.5913016,19.2939497 45.7236417,18.580697 45.0277121,17.7073453 C44.5994189,17.169697 44.359935,16.546675 44.2349379,15.880686 C44.1114423,15.2227299 44.1656828,14.9623123 43.4881461,14.7499058 C42.9331667,14.5759827 42.1296945,14.3495651 41.5715244,14.6243673 C40.7008617,15.0527299 41.2663514,16.2810266 40.4947854,16.7790706 C39.9022693,17.161664 39.0130259,16.7043453 38.4869497,17.2425541 C38.0734834,17.6658728 38.1887209,18.3880926 38.1303514,18.921631 C38.0594071,19.5709937 38.2438998,20.5928618 37.6491315,21.0810047 C36.9038411,21.6924442 35.7462106,21.2332574 34.9628206,20.9472464 C34.2299174,20.6799167 33.4099291,20.6593673 32.704803,20.3139497 C32.3161109,20.1228398 32.0608617,19.7107299 31.6723573,19.5130816 C30.9906916,19.1661695 30.818586,20.3070376 30.461237,20.7751915 C30.0648499,21.2943453 29.1534599,22.2459717 29.1525215,22.9487629 C29.1521461,23.2779277 29.0939643,23.8658288 29.02302,24.2553343 C28.9520758,24.644653 28.6371432,25.1027189 28.3229614,25.2732794 C28.0087796,25.4438398 27.3578939,25.318675 26.8761109,24.9951145 C26.8761109,24.9951145 26.8761109,24.9951145 26.6598998,24.9004003 C25.8241461,24.5342464 24.6742106,24.6199937 23.7997942,24.7814003 C22.4509145,25.0304222 22.2981403,25.4440266 22.5610845,26.7569497 C22.7371315,27.6357189 22.7891197,28.066697 22.6370963,28.9710596 C22.6370963,28.9710596 22.6370963,28.9710596 22.6438529,29.1268618 C22.6506095,29.2828508 22.6506095,29.2828508 22.6506095,29.2828508 C22.7632194,30.5374882 22.6706916,31.7123563 22.4445332,31.8935651 C22.4445332,31.8935651 22.4445332,31.8935651 21.8304335,32.43962 C21.2163338,32.985675 21.1962517,32.5178948 20.8077473,33.3669607 C20.4192429,34.2158398 20.0151608,34.7009937 20.0219174,34.8567959 C20.0284863,35.0127849 16.0948323,36.2175431 15.6175538,36.2373453 C15.1400875,36.2571475 15.1400875,36.2571475 15.1382106,36.2575211 C13.7867033,36.4912244 10.8779878,35.5741585 9.96622238,37.0451255 C9.86693792,37.2054112 9.86693792,37.2054112 9.86543645,37.2069058 C9.36845112,37.7365211 7.3093778,39.431664 7.22585874,37.5799717 C7.19658015,36.9293014 4.93180596,37.0748288 4.4911256,37.0128069 C4.4911256,37.0128069 4.4911256,37.0128069 4.18069745,37.0768838 C3.61370625,37.1938288 2.74266813,37.2037299 2.21621651,37.5682025 C1.57133675,38.0144992 1.74043939,39.1775981 1.19859774,39.4382025 C0.419899797,39.8125761 0.101401264,39.984631 0.0115009704,40.9074882 C-0.0851559211,41.9009607 0.436978976,42.2871036 1.21830449,42.7431145 C2.09910214,43.2572244 2.43073851,43.8978069 2.41760068,44.8752134 C2.41084408,45.3741915 2.46039247,46.3510376 2.11580596,46.7551145 C1.72598777,47.2124332 0.300533228,46.9172684 0.299031762,47.3882244 C0.296779563,48.1659277 0.591066953,48.8797409 0.753037627,48.9299937 C1.5459995,49.1762134 3.61727223,50.3570596 3.59681475,51.3624882 C3.59212267,51.591708 3.47163,52.1237519 3.32823997,52.5465101 C2.47446871,55.0742794 8.63629862,55.6913233 8.45837487,58.1098069 C8.39437487,58.9893233 9.18733675,59.6745541 9.32115493,60.4980266 C9.45441006,61.3188838 9.0351256,62.0207409 8.81121945,62.7814442 C8.58806402,63.5395321 8.69316666,64.1087519 8.98782942,64.8261145 C9.01710801,65.5021915 9.06759481,66.5369497 8.66989393,67.1375541 C8.11960654,67.9683123 8.12692619,66.8868508 7.75212267,66.6535211 C7.3251432,66.3874992 6.5032781,66.8283783 6.38353616,67.2763563 C6.28293792,67.6527849 6.24765346,68.4973673 6.30527223,69.1532684 C6.30527223,69.1532684 6.30527223,69.1532684 6.31653323,69.4131255 C6.32760654,69.6729827 6.12453323,69.8894992 6.32404056,70.8179607 C6.52354789,71.7464222 6.52354789,71.7464222 6.52373557,71.7466091 C6.81914906,72.2358728 7.29755376,72.623697 7.79885581,72.8988728 C8.32737194,73.1893673 8.96605816,73.1378069 9.35906695,73.6420156 C9.66104936,74.0292794 9.64565933,74.7318838 10.0668206,75.0341475 C10.3410259,75.2308618 10.3410259,75.2308618 10.3410259,75.2308618 C10.8592194,75.6709937 11.4018118,76.1793123 12.0699643,76.3883563 C12.7602634,76.6044992 13.4214716,76.2928948 14.1138353,76.4529937 C14.5860464,76.5620926 15.1355831,77.1012354 15.334715,77.6512134 C15.533847,78.2010047 16.0409672,78.8709167 16.4617532,79.1395541 C16.8827268,79.4083783 17.63102,80.126675 18.1250024,80.735686 C18.6189848,81.3450706 19.3723455,81.8991585 19.7991373,81.9671585 C20.2259291,82.0353453 20.5761461,82.3955211 20.5776476,82.7674662 C20.5791491,83.1397849 20.9012136,83.676686 21.2934716,83.9608288 C21.6857297,84.2451585 22.2136828,84.5627409 22.4666799,84.6666091 C22.7194892,84.770664 23.0102106,85.1332684 23.112498,85.4725211 C23.112498,85.4725211 23.112498,85.4725211 23.1192546,85.626642 C23.1577297,86.5332464 24.444674,85.923675 24.5246271,86.7929167 C24.5554071,87.1261915 24.5966975,87.6279717 24.9317121,87.8497189 C25.3656359,88.1370376 25.9069145,87.7417409 26.3567913,87.991697 C26.3567913,87.991697 26.3567913,87.991697 26.5181989,88.0369058 C27.1407444,88.2117629 27.7219995,87.8134772 28.3246505,88.1725321 C28.838152,88.4785321 29.0530494,88.9573343 29.6754071,89.096697 C30.1896593,89.2115871 30.7853661,89.1568508 31.3093778,89.1673123 C31.7269731,89.1757189 33.7879233,89.0191695 33.8179526,89.7109387 C33.8179526,89.7109387 33.8179526,89.7109387 33.8267737,89.9188618 C33.8357825,90.1265981 33.5976124,90.7610156 33.6109379,91.07262 C33.6244511,91.3844112 33.6244511,91.3844112 33.6244511,91.3844112 C33.8423514,91.6902244 34.1640406,91.6651915 34.3395244,91.3285541 C34.5148206,90.9922904 35.426023,90.2164552 36.364064,89.6050156 C36.364064,89.6050156 36.364064,89.6050156 36.5164628,89.4424882 C36.6688617,89.2799607 37.5639233,89.0866091 37.8889907,89.2291475 C38.2140582,89.3718728 38.2140582,89.3718728 38.2140582,89.3718728 C39.5903397,90.1157629 41.0507033,90.7107629 41.4594775,90.6939497 C42.1182458,90.6668618 42.1167444,91.2857739 42.330891,91.7178728 C42.5974013,92.255708 43.4956535,92.3705981 43.6780816,92.8394992 C43.7379526,92.9932464 43.7379526,92.9932464 43.7379526,92.9932464 C43.5632194,93.6874442 43.8242869,94.4729937 44.3180816,94.7384552 C44.8118763,95.0042904 45.7649321,95.1987629 46.4358998,95.1709277 C47.1070552,95.1429058 48.0205098,94.9760816 48.4658822,94.8001036 C48.9112546,94.6241255 49.5009555,94.1544772 49.7759115,93.7567519 C50.0510552,93.3588398 51.0658587,93.0472354 52.0311139,93.0644222 C52.0311139,93.0644222 52.0311139,93.0644222 52.4509614,92.9428069 C52.8709966,92.8211915 52.8709966,92.8211915 52.8713719,92.8210047 C53.383935,92.6056091 53.8722869,92.2940047 54.2831256,91.9244882 C54.8679467,91.3984222 54.9747385,91.1600486 55.8099291,91.3444332 C56.3444511,91.4623123 57.0837356,91.5631915 57.5583866,91.8454662 C57.7220464,91.9427959 57.7220464,91.9427959 57.7220464,91.9427959 Z" id="Stroke-3" stroke="#2DA1FF" stroke-width="0.5" fill-opacity="0.305556" fill="#2DA1FF"></path>
                        <g id="编组-9" stroke="none" stroke-width="1" fill="none" transform="translate(95.835380, 101.273367)">
                            <path d="M45.8389012,4.14314286 L46.284649,0 L46.8099745,0.056043956 L46.3642267,4.199 L45.8389012,4.14314286 Z M41.8849774,15.0039011 L44.3592062,11.1073516 L44.8058924,11.3864505 L42.3294114,15.2818791 L41.8849774,15.0039011 Z M37.7587604,25.874 C37.7610126,25.862978 38.250866,23.2625385 38.9967194,21.3973956 L39.4852589,21.5883187 C38.7724378,23.3693956 38.2838982,25.9334066 38.2790185,25.9698352 L37.7587604,25.874 Z M36.95191,32.6045055 C36.952473,32.4451538 36.9528484,32.3145714 36.9652355,32.2011758 L37.4892472,32.2594615 C37.4830537,32.3212967 37.4802384,32.4490769 37.479863,32.6061868 C37.4761094,33.8430769 37.622127,36.8862637 37.622127,36.8886923 L37.6245669,36.8911209 L37.0953,36.9148462 C37.0953,36.9126044 36.9479686,33.8714725 36.95191,32.6045055 Z M3.3684261,34.3228132 L3.37086598,34.3228132 L3.6636519,33.8841758 C3.69987478,33.9047253 5.50313577,35.1350769 5.79648475,38.0844835 L5.26947008,38.1336154 C4.99751701,35.3943736 3.37086598,34.3254286 3.3684261,34.3228132 Z M36.4494773,51.0453956 C36.4468542,51.0397912 37.6046724,48.6597912 37.840215,46.6067143 L38.3631006,46.6683626 C38.1065375,48.8503407 36.9280742,51.2620989 36.9256343,51.2751758 L36.9256343,51.277044 L36.4494773,51.0453956 Z M6.40457859,51.5983626 C6.93647302,50.2850659 7.07460791,49.1753956 7.0770478,48.3833077 C7.07948768,47.5557253 6.94135278,47.0999011 6.94135278,47.0999011 L6.94379267,47.0999011 L7.44790997,46.9523187 C7.45522962,46.971 7.60762844,47.4959451 7.60500088,48.3833077 C7.60237331,49.2351758 7.4542912,50.4158352 6.89687184,51.7945165 L6.40457859,51.5983626 Z M25.7661739,65.5589121 C25.7661739,65.5589121 27.8988191,62.9640769 28.8708308,61.8095714 L29.2751006,62.1477033 C28.3081563,63.2984725 26.1777633,65.8877033 26.1753235,65.8914396 L26.1753235,65.8933077 L25.7661739,65.5589121 Z M7.41904142e-05,67.4550659 C0.00307712297,66.4686923 0.11549941,65.7120989 0.115687094,65.7046264 L0.118126976,65.7083626 L0.638385041,65.7830879 C0.640824924,65.7868242 0.528402636,66.5116593 0.525399704,67.4569341 C0.522396771,68.3984725 0.629563926,69.5511099 1.03495982,70.3506703 L0.561997944,70.5841868 C0.0952296156,69.6445165 -0.00311642542,68.4377033 7.41904142e-05,67.4550659 Z M13.5660097,78.8207802 C13.5684496,78.817044 16.302995,78.293967 17.770866,77.287044 L18.0681563,77.7204505 C16.4602736,78.8095714 13.7490009,79.3177033 13.6675463,79.3382527 L13.5660097,78.8207802 Z" id="Fill-4" fill="#2DA1FF"></path>
                            <path d="M11.7546783,32.17857 C11.9742677,32.1793187 12.1535053,32.3452088 12.1527569,32.5471538 C12.1521915,32.7489121 11.9720155,32.9136813 11.7524261,32.9131223 C11.5315229,32.9125604 11.3535991,32.7464835 11.3541608,32.5447253 C11.3549129,32.342967 11.5337751,32.178011 11.7546783,32.17857" id="Fill-7" fill="#2DA1FF"></path>
                            <path d="M11.1771768,32.5428571 C11.1803674,32.2336813 11.4457516,32.0012857 11.7565551,32.0024026 L11.755429,32.3526813 C11.6180449,32.3521209 11.5281446,32.4509451 11.5279569,32.543978 C11.5275815,32.6383187 11.6171064,32.7350879 11.7541152,32.7354615 C11.8839921,32.7358352 11.9742677,32.6396264 11.9744554,32.5452857 C11.9748308,32.4522527 11.8851182,32.3528681 11.755429,32.3526813 L11.7565551,32.0024026 C12.0609774,32.0031538 12.3248601,32.237044 12.3288015,32.5464066 C12.3229833,32.8542747 12.0575991,33.0866703 11.7531768,33.0881648 C11.442561,33.0848022 11.1786783,32.8509121 11.1771768,32.5428571" id="Fill-8" fill="#2DA1FF"></path>
                            <path d="M13.8390889,30.3476128 C14.0599921,30.3483626 14.2388542,30.5131319 14.2382925,30.716011 C14.2377281,30.9177692 14.0575522,31.0814176 13.8370243,31.0808586 C13.6172472,31.0801099 13.4381974,30.9153407 13.4387591,30.7135824 C13.4393235,30.5107033 13.6193117,30.3468681 13.8390889,30.3476128" id="Fill-9" fill="#2DA1FF"></path>
                            <path d="M13.2613997,30.713022 C13.2660918,30.4014176 13.532602,30.1703297 13.8383381,30.1712609 L13.8379628,30.3476154 L13.8373997,30.5204176 C13.7039569,30.5198571 13.6136812,30.6173736 13.6133059,30.7141429 C13.6131182,30.8060549 13.7028308,30.9041319 13.8362736,30.9045055 C13.9697164,30.9050659 14.0598044,30.8073626 14.0599921,30.7154505 C14.0603674,30.6188681 13.9708425,30.5207912 13.8373997,30.5204176 L13.8379628,30.3476154 L13.8383381,30.1712609 C14.1465141,30.1721978 14.4128367,30.404967 14.4143381,30.7165714 C14.4109598,31.0257473 14.1431358,31.2545934 13.8351475,31.2559011 C13.5292238,31.2527253 13.264215,31.0221978 13.2613997,30.713022" id="Fill-10" fill="#2DA1FF"></path>
                            <path d="M14.8627135,33.7485469 C15.0823029,33.7492967 15.2615405,33.9153736 15.2609787,34.1171319 C15.2602267,34.3187033 15.0802384,34.4825385 14.8604613,34.4817938 C14.6408718,34.4812308 14.461822,34.3162747 14.4623837,34.1145165 C14.4629481,33.9129451 14.643124,33.7478022 14.8627135,33.7485469" id="Fill-11" fill="#2DA1FF"></path>
                            <path d="M14.2838982,34.1141429 C14.2899041,33.8025385 14.5551006,33.5725714 14.8632765,33.5710769 L14.8627135,33.7474286 L14.8623381,33.9237802 C14.7287076,33.9234066 14.6386196,34.0209231 14.6382443,34.1150769 C14.6378689,34.2068022 14.7275815,34.3039451 14.8610243,34.3043187 C14.992215,34.3048791 15.0821152,34.2082967 15.0823029,34.1165714 C15.0826783,34.0222308 14.9933411,33.9241538 14.8623381,33.9237802 L14.8627135,33.7474286 L14.8632765,33.5710769 C15.1690126,33.5744396 15.4353352,33.8059011 15.4368367,34.1175055 C15.4334584,34.4266813 15.165822,34.6557143 14.8600859,34.6568352 C14.5517223,34.6536593 14.2878396,34.4233187 14.2838982,34.1141429" id="Fill-12" fill="#2DA1FF"></path>
                            <path d="M33.1045903,35.1031293 C33.3256812,35.1036923 33.5034173,35.2686484 33.5026689,35.4715275 C33.5021035,35.6732857 33.323429,35.8371209 33.1023381,35.8363762 C32.8827487,35.8356264 32.7035111,35.6708571 32.7042595,35.4690989 C32.7048249,35.2662198 32.8850009,35.1023846 33.1045903,35.1031293" id="Fill-13" fill="#2DA1FF"></path>
                            <path d="M32.5259628,35.4685385 C32.5302795,35.1569341 32.7982912,34.9271538 33.1051534,34.9256593 L33.1040273,35.2783626 C32.9705845,35.277989 32.8803088,35.3741978 32.8803088,35.4696593 C32.8799334,35.5613846 32.9694584,35.6583407 33.1029012,35.6587143 C33.236344,35.6592747 33.3241798,35.5626923 33.3245551,35.470967 C33.3247428,35.3756923 33.2376578,35.2787363 33.1040273,35.2783626 L33.1051534,34.9256593 C33.4110771,34.929022 33.6773997,35.1604835 33.6787135,35.4720879 C33.6755229,35.7812637 33.4076988,36.0099231 33.1017751,36.0114176 C32.7949129,36.0080549 32.5284026,35.7777143 32.5259628,35.4685385" id="Fill-14" fill="#2DA1FF"></path>
                            <path d="M22.0085669,49.6685824 C22.2292824,49.6685824 22.4073938,49.832978 22.4068321,50.0347363 C22.4060801,50.2383626 22.2272179,50.4008901 22.0063147,50.4008901 C21.7865375,50.4008901 21.6074877,50.2364945 21.6082361,50.0328681 C21.6088015,49.8311099 21.7887897,49.6667143 22.0085669,49.6685824" id="Fill-15" fill="#2DA1FF"></path>
                            <path d="M21.4297516,50.0328681 C21.4355698,49.7208901 21.7007663,49.4911099 22.010256,49.4911099 L22.009693,49.6685824 L22.0093176,49.8423187 C21.874561,49.8404505 21.7842853,49.9394615 21.7840977,50.0328681 C21.7837223,50.1281429 21.8732472,50.2234176 22.0080038,50.2234176 C22.1390067,50.2234176 22.2292824,50.130011 22.2294701,50.0347363 C22.2296578,49.9394615 22.1403205,49.8423187 22.0093176,49.8423187 L22.009693,49.6685824 L22.010256,49.4911099 C22.3159921,49.492978 22.5798748,49.7246264 22.5813762,50.0347363 C22.5779979,50.3448462 22.3128015,50.5746264 22.0068777,50.5764945 C21.697388,50.5727582 21.4314408,50.3411099 21.4297516,50.0328681" id="Fill-16" fill="#2DA1FF"></path>
                            <path d="M15.124344,76.2222088 C15.3439334,76.2222088 15.5229833,76.3866044 15.5224216,76.5883626 C15.5218572,76.791989 15.3416812,76.9563846 15.1219041,76.9545165 C14.9025023,76.9545165 14.7232648,76.7901209 14.7238265,76.5864945 C14.7243909,76.3847363 14.9047545,76.2222088 15.124344,76.2222088" id="Fill-17" fill="#2DA1FF"></path>
                            <path d="M14.5455287,76.5846264 C14.5513469,76.2745165 14.8178572,76.0447363 15.124907,76.0447363 L15.1237809,76.3978132 C14.9890243,76.3959451 14.899124,76.4930879 14.8987487,76.5864945 C14.898561,76.6799011 14.9877106,76.7789121 15.1224672,76.7789121 C15.2536578,76.7789121 15.3450595,76.6817692 15.3452472,76.5864945 C15.3456226,76.494956 15.2547839,76.3978132 15.1237809,76.3978132 L15.124907,76.0447363 C15.429517,76.0466044 15.6958396,76.2782527 15.6984672,76.5883626 C15.6937751,76.8984725 15.4261387,77.1282527 15.1215287,77.1301209 C14.8146666,77.1263846 14.5470302,76.8947363 14.5455287,76.5846264" id="Fill-18" fill="#2DA1FF"></path>
                            <path d="M16.7318513,70.9017692 C16.9514408,70.9036374 17.1304906,71.068033 17.1301158,71.2697912 C17.1295522,71.4715495 16.9493762,71.6359451 16.7297868,71.6359451 C16.5100097,71.6340769 16.3309598,71.4696813 16.3315215,71.2679231 C16.3320859,71.0661648 16.5124496,70.9017692 16.7318513,70.9017692" id="Fill-19" fill="#2DA1FF"></path>
                            <path d="M16.1530361,71.2679231 C16.1590419,70.9578132 16.4229246,70.7242967 16.7312883,70.7261648 L16.7309129,70.9017692 L16.7303499,71.0773736 C16.5989716,71.0773736 16.5066314,71.1745165 16.506256,71.2679231 C16.5060683,71.3575934 16.5954056,71.4584725 16.7290361,71.4584725 C16.8613528,71.4603407 16.9514408,71.3594615 16.9516284,71.2697912 C16.9520038,71.1763846 16.8624789,71.0773736 16.7303499,71.0773736 L16.7309129,70.9017692 L16.7312883,70.7261648 C17.0381504,70.7261648 17.3022208,70.9615495 17.3046607,71.2716593 C17.3001563,71.5817692 17.0349598,71.8096813 16.7280977,71.8096813 C16.4221739,71.8078132 16.1571651,71.578033 16.1530361,71.2679231" id="Fill-20" fill="#2DA1FF"></path>
                            <path d="M18.7522619,67.3766044 C18.9718513,67.3766044 19.1509012,67.541 19.1503394,67.7427582 C19.1497751,67.9463846 18.9695991,68.1107802 18.7500097,68.1089121 C18.5304202,68.1089121 18.3511827,67.9445165 18.3517444,67.7408901 C18.3524965,67.5391319 18.5326724,67.3747363 18.7522619,67.3766044" id="Fill-21" fill="#2DA1FF"></path>
                            <path d="M18.1747604,67.7408901 C18.1781387,67.427044 18.4444613,67.1991319 18.7528249,67.1991319 L18.7516988,67.5522088 C18.618256,67.5503407 18.528168,67.6493516 18.5277927,67.7408901 C18.527605,67.8361648 18.6169422,67.9314396 18.7505727,67.9314396 C18.8828894,67.9314396 18.9729774,67.8361648 18.9731651,67.7427582 C18.9735405,67.6493516 18.8840155,67.5522088 18.7516988,67.5522088 L18.7528249,67.1991319 C19.0572472,67.2028681 19.3248836,67.4307802 19.326385,67.7446264 C19.3230067,68.0528681 19.0542443,68.2826484 18.7494466,68.2845165 C18.4412707,68.2807802 18.1762619,68.0491319 18.1747604,67.7408901" id="Fill-22" fill="#2DA1FF"></path>
                            <path d="M20.1105258,65.2693516 C20.3312413,65.2693516 20.5091651,65.4337473 20.5087903,65.6355055 C20.5082267,65.8391319 20.3289891,66.0016593 20.1082736,66.0016593 C19.8888718,66.0016593 19.7096343,65.8372637 19.710196,65.6336374 C19.7109481,65.4318791 19.8909364,65.2674835 20.1105258,65.2693516" id="Fill-23" fill="#2DA1FF"></path>
                            <path d="M19.5317106,65.6317692 C19.5377164,65.3197912 19.804039,65.0918791 20.1099628,65.0918791 L20.1088367,65.444956 C19.9753938,65.444956 19.8851182,65.5402308 19.8849305,65.6336374 C19.8845551,65.7289121 19.9742677,65.8223187 20.1077106,65.8223187 C20.2424672,65.8241868 20.3299276,65.7289121 20.3301152,65.6336374 C20.3304906,65.5402308 20.2434056,65.444956 20.1088367,65.444956 L20.1099628,65.0918791 C20.4168249,65.0937473 20.6808953,65.3253956 20.6833352,65.6355055 C20.6790185,65.9456154 20.4136343,66.1753956 20.1065845,66.1772637 C19.8006607,66.1735275 19.533212,65.9418791 19.5317106,65.6317692" id="Fill-24" fill="#2DA1FF"></path>
                            <path d="M12.5564613,59.933967 C12.7773645,59.933967 12.9564144,60.0983626 12.9558526,60.3001209 C12.9551006,60.5018791 12.7749246,60.6681429 12.5543968,60.6662747 C12.3346196,60.6662747 12.1568836,60.500011 12.1572583,60.2982527 C12.157822,60.0964945 12.3368718,59.9320989 12.5564613,59.933967" id="Fill-25" fill="#2DA1FF"></path>
                            <path d="M11.9787721,60.2982527 C11.9823381,59.9881429 12.2499745,59.7564945 12.5570243,59.7564945 L12.5558982,60.1077033 C12.4213293,60.1077033 12.3336812,60.202978 12.3333059,60.2982527 C12.3329305,60.3916593 12.4235815,60.4888022 12.5549598,60.4888022 C12.6884026,60.4888022 12.7783029,60.3916593 12.7786783,60.3001209 C12.7790537,60.2067143 12.6893411,60.1077033 12.5558982,60.1077033 L12.5570243,59.7564945 C12.8627604,59.7583626 13.1302091,59.9881429 13.1318982,60.301989 C13.1283323,60.6102308 12.8595698,60.840011 12.5538337,60.8418791 C12.2441563,60.8381429 11.9804613,60.6064945 11.9787721,60.2982527" id="Fill-26" fill="#2DA1FF"></path>
                            <path d="M20.9171886,59.0092418 C21.1379041,59.0092418 21.3158279,59.1755055 21.3152661,59.3772637 C21.3147018,59.579022 21.1356519,59.7434176 20.9149364,59.7415495 C20.6953469,59.7415495 20.5162971,59.5771538 20.5166718,59.3753956 C20.5172355,59.1736374 20.6974114,59.0092418 20.9171886,59.0092418" id="Fill-27" fill="#2DA1FF"></path>
                            <path d="M20.3383733,59.3735275 C20.3443792,59.0634176 20.6082619,58.8336374 20.9164378,58.8317692 L20.9158748,59.0092418 L20.9154994,59.182978 C20.7843088,59.182978 20.6917809,59.281989 20.6914056,59.3753956 C20.6912179,59.4669341 20.7807428,59.5640769 20.9143733,59.5640769 C21.0478161,59.5659451 21.1390302,59.4706703 21.1394056,59.3753956 C21.1395933,59.281989 21.0487545,59.182978 20.9154994,59.182978 L20.9158748,59.0092418 L20.9164378,58.8317692 C21.2248015,58.8355055 21.4896226,59.0671538 21.4913117,59.3772637 C21.4877457,59.6855055 21.2214232,59.9152857 20.9132472,59.9171538 C20.6073235,59.9134176 20.3423147,59.6855055 20.3383733,59.3735275" id="Fill-28" fill="#2DA1FF"></path>
                            <path d="M22.0590537,53.4123187 C22.2799569,53.4123187 22.4578806,53.5785824 22.4571323,53.7803407 C22.4565669,53.9820989 22.2777047,54.1464945 22.0569891,54.1464945 C21.837212,54.1446264 21.6581622,53.9802308 21.6587239,53.7766044 C21.6592883,53.5748462 21.8392765,53.4123187 22.0590537,53.4123187" id="Fill-29" fill="#2DA1FF"></path>
                            <path d="M21.4815522,53.7766044 C21.4849305,53.4646264 21.7523792,53.2348462 22.0583029,53.2367143 L22.0571768,53.5860549 C21.9239217,53.5860549 21.8338337,53.6831978 21.8334584,53.7784725 C21.833083,53.870011 21.9227956,53.9671538 22.0562384,53.969022 C22.1908073,53.969022 22.2784554,53.8718791 22.2788308,53.7784725 C22.2790185,53.6850659 22.1919334,53.5879231 22.0571768,53.5860549 L22.0583029,53.2367143 C22.3655405,53.2367143 22.6316754,53.4683626 22.6331768,53.7803407 C22.6297985,54.0904505 22.3621622,54.3202308 22.0551123,54.3202308 C21.7493762,54.3183626 21.4830537,54.0867143 21.4815522,53.7766044" id="Fill-30" fill="#2DA1FF"></path>
                            <path d="M24.5227721,50.9613297 C24.7436754,50.9613297 24.9214114,51.1275934 24.9208497,51.3293516 C24.9202853,51.5311099 24.7414232,51.6936374 24.5205199,51.6936374 C24.3009305,51.6936374 24.121693,51.5292418 24.1222547,51.3256154 C24.1228191,51.1257253 24.302995,50.9594615 24.5227721,50.9613297" id="Fill-31" fill="#2DA1FF"></path>
                            <path d="M23.9452707,51.3256154 C23.9497751,51.0155055 24.2151592,50.7838571 24.5233352,50.7838571 L24.5222091,51.1350659 C24.3887663,51.1350659 24.2986783,51.2322088 24.2983029,51.3256154 C24.2981152,51.419022 24.3876402,51.5161648 24.5208953,51.5161648 C24.6545258,51.5161648 24.7421739,51.4208901 24.7425493,51.3274835 C24.7427369,51.2322088 24.6533997,51.1350659 24.5222091,51.1350659 L24.5233352,50.7838571 C24.8315111,50.7857253 25.0953938,51.0192418 25.0982091,51.3274835 C25.093517,51.6394615 24.825693,51.8673736 24.5201446,51.8692418 C24.2117809,51.8655055 23.9478982,51.6357253 23.9452707,51.3256154" id="Fill-32" fill="#2DA1FF"></path>
                            <path d="M30.1448249,54.6695714 C30.3644144,54.6714396 30.5436519,54.8358352 30.5429035,55.0375934 C30.5423381,55.2393516 30.3621622,55.4037473 30.1427604,55.4037473 C29.923171,55.4037473 29.7441211,55.2374835 29.7444959,55.0357253 C29.7450595,54.833967 29.9252355,54.6695714 30.1448249,54.6695714" id="Fill-33" fill="#2DA1FF"></path>
                            <path d="M29.5673235,55.0338571 C29.5707018,54.7218791 29.8383381,54.4920989 30.1442619,54.493967 L30.1431358,54.8433077 C30.009693,54.8433077 29.919605,54.9404505 29.9194173,55.0357253 C29.9190419,55.1272637 30.0108191,55.2262747 30.1421974,55.2262747 C30.2743264,55.2262747 30.3644144,55.1291319 30.3647897,55.0375934 C30.3649774,54.9404505 30.2754525,54.8451758 30.1431358,54.8433077 L30.1442619,54.493967 C30.451124,54.493967 30.7150067,54.7256154 30.7189481,55.0375934 C30.7133176,55.3477033 30.4481211,55.5774835 30.1410713,55.5793516 C29.8327076,55.5756154 29.5688249,55.343967 29.5673235,55.0338571" id="Fill-34" fill="#2DA1FF"></path>
                            <path d="M22.6361798,33.1137557 C22.857083,33.1143187 23.0350067,33.2802088 23.034632,33.481967 C23.0338806,33.6839121 22.8548308,33.8473736 22.6341152,33.8470006 C22.4145258,33.8462527 22.2352883,33.6814835 22.2360367,33.4797253 C22.236602,33.277967 22.416778,33.113011 22.6361798,33.1137557" id="Fill-35" fill="#2DA1FF"></path>
                            <path d="M22.0586783,33.4791648 C22.0622443,33.1675604 22.3274408,32.9374066 22.6356167,32.9362857 L22.6352413,33.1124505 L22.6346783,33.2888022 C22.5034877,33.2882418 22.4109598,33.3859451 22.4105845,33.4802857 C22.4103968,33.572011 22.4999217,33.6687802 22.6333645,33.6691538 C22.766995,33.6695275 22.8568953,33.5733187 22.8572707,33.4814066 C22.8574584,33.3874396 22.7681211,33.2891758 22.6346783,33.2888022 L22.6352413,33.1124505 L22.6356167,32.9362857 C22.9439803,32.9394615 23.2076754,33.1707363 23.2091768,33.4825275 C23.2059862,33.7918901 22.9407897,34.0203626 22.6322384,34.022044 C22.3265023,34.0184945 22.0601798,33.7883407 22.0586783,33.4791648" id="Fill-36" fill="#2DA1FF"></path>
                            <path d="M22.1652824,62.8538571 C22.3848718,62.8538571 22.5641094,63.0201209 22.563361,63.2218791 C22.5627956,63.4236374 22.3826196,63.588033 22.1630302,63.588033 C21.9432531,63.5861648 21.7642032,63.4217692 21.7649516,63.220011 C21.765517,63.0182527 21.9455053,62.8538571 22.1652824,62.8538571" id="Fill-43" fill="#2DA1FF"></path>
                            <path d="M21.5875933,63.220011 C21.5909716,62.908033 21.8574818,62.6782527 22.1658455,62.6763846 L22.1647194,63.0294615 C22.0312765,63.0294615 21.9410009,63.1266044 21.9408132,63.220011 C21.9404378,63.3115495 22.0301504,63.4105604 22.1635933,63.4105604 C22.2957223,63.4105604 22.3858103,63.3134176 22.3859979,63.2218791 C22.3863733,63.1284725 22.2932824,63.0294615 22.1647194,63.0294615 L22.1658455,62.6763846 C22.4727076,62.6801209 22.7365903,62.9117692 22.7380918,63.2237473 C22.7347135,63.5338571 22.4670771,63.7617692 22.1624672,63.7617692 C21.8541035,63.7599011 21.5890947,63.5301209 21.5875933,63.220011" id="Fill-44" fill="#2DA1FF"></path>
                            <path d="M5.38658445,64.7892418 C5.6073,64.7911099 5.78522375,64.9555055 5.78466203,65.1591319 C5.78409765,65.359022 5.6050478,65.5234176 5.38433225,65.5234176 C5.16474281,65.5215495 4.98569296,65.3571538 4.98606774,65.1553956 C4.98663138,64.9536374 5.16680733,64.7892418 5.38658445,64.7892418" id="Fill-45" fill="#2DA1FF"></path>
                            <path d="M4.8088953,65.1553956 C4.81377507,64.8434176 5.07897155,64.6136374 5.38583372,64.6117692 L5.38470762,64.9648462 C5.25257859,64.9648462 5.16249061,65.061989 5.16211525,65.1553956 C5.16192756,65.2469341 5.25145249,65.3459451 5.38376921,65.3459451 C5.51721202,65.3478132 5.6073,65.2506703 5.60748768,65.1572637 C5.60786305,65.0638571 5.51815044,64.9648462 5.38470762,64.9648462 L5.38583372,64.6117692 C5.69419736,64.6155055 5.95920616,64.8471538 5.96070762,65.1591319 C5.95732932,65.4673736 5.69081906,65.6971538 5.38264311,65.6971538 C5.07559325,65.6952857 4.81189824,65.4655055 4.8088953,65.1553956" id="Fill-46" fill="#2DA1FF"></path>
                            <path d="M12.9338924,63.9448462 C13.1534818,63.9448462 13.3327194,64.1092418 13.331971,64.3128681 C13.3314056,64.5146264 13.1512296,64.6771538 12.9316402,64.6771538 C12.7120507,64.6771538 12.5328132,64.5108901 12.5333749,64.3091319 C12.534127,64.1073736 12.7141152,63.942978 12.9338924,63.9448462" id="Fill-47" fill="#2DA1FF"></path>
                            <path d="M12.3550771,64.3091319 C12.3586431,63.9971538 12.6272179,63.7673736 12.9331416,63.7655055 L12.9320155,64.1167143 C12.7985727,64.1167143 12.7073586,64.2138571 12.707171,64.3091319 C12.7067956,64.4006703 12.7976343,64.4996813 12.9310771,64.4996813 C13.0643323,64.4996813 13.1519803,64.4025385 13.1523557,64.311 C13.1527311,64.2157253 13.0654584,64.1167143 12.9320155,64.1167143 L12.9331416,63.7655055 C13.2390654,63.7692418 13.5065141,64.0008901 13.5080155,64.311 C13.5021974,64.622978 13.2358748,64.8508901 12.929951,64.8527582 C12.624215,64.849022 12.3592062,64.6192418 12.3550771,64.3091319" id="Fill-48" fill="#2DA1FF"></path>
                            <path d="M16.1141856,58.8878132 C16.3337751,58.8896813 16.5130126,59.0559451 16.5124509,59.2577033 C16.5118865,59.4594615 16.3317106,59.621989 16.1121211,59.621989 C15.892344,59.621989 15.7132941,59.4557253 15.7138559,59.253967 C15.7146079,59.0522088 15.8945962,58.8878132 16.1141856,58.8878132" id="Fill-49" fill="#2DA1FF"></path>
                            <path d="M15.5366842,59.2520989 C15.5400625,58.941989 15.8052589,58.7122088 16.1147487,58.7103407 L16.1141856,58.8878132 L16.1138103,59.0634176 C15.9801798,59.0615495 15.888778,59.1605604 15.8885903,59.253967 C15.888215,59.3455055 15.9790537,59.4445165 16.1126842,59.4445165 C16.2434994,59.4445165 16.3335874,59.3473736 16.3339628,59.2558352 C16.3341504,59.1624286 16.2448132,59.0634176 16.1138103,59.0634176 L16.1141856,58.8878132 L16.1147487,58.7103407 C16.4204847,58.7140769 16.6854935,58.9457253 16.686995,59.2558352 C16.6838044,59.5678132 16.4172941,59.7957253 16.1115581,59.7975934 C15.8018806,59.7938571 15.5381856,59.5640769 15.5366842,59.2520989" id="Fill-50" fill="#2DA1FF"></path>
                            <path d="M29.2383147,50.7035275 C29.4579041,50.7035275 29.636954,50.8697912 29.6363922,51.0715495 C29.6358279,51.2733077 29.4556519,51.4377033 29.2360625,51.4358352 C29.0151592,51.4358352 28.8372355,51.2714396 28.8377972,51.0696813 C28.8383616,50.8679231 29.0172238,50.7016593 29.2383147,50.7035275" id="Fill-51" fill="#2DA1FF"></path>
                            <path d="M28.6606255,51.0678132 C28.6641915,50.7577033 28.9282619,50.5260549 29.2388777,50.5260549 L29.2377516,50.8772637 C29.1043088,50.8772637 29.0142208,50.9744066 29.0138455,51.0678132 C29.0136578,51.1630879 29.1007428,51.2583626 29.2364378,51.2583626 C29.3678161,51.2583626 29.4577164,51.1612198 29.4579041,51.0696813 C29.4582795,50.9762747 29.3689422,50.8772637 29.2377516,50.8772637 L29.2388777,50.5260549 C29.5446138,50.5279231 29.8084965,50.7614396 29.8124378,51.0715495 C29.8066196,51.3816593 29.5412355,51.6095714 29.2356871,51.6114396 C28.9271358,51.6077033 28.6623147,51.3760549 28.6606255,51.0678132" id="Fill-52" fill="#2DA1FF"></path>
                            <path d="M33.3512062,51.4601209 C33.5707956,51.461989 33.7498455,51.6263846 33.7492837,51.8281429 C33.7485317,52.0299011 33.5685434,52.1942967 33.348954,52.1942967 C33.1280507,52.1924286 32.9503147,52.028033 32.9506894,51.8262747 C32.9512531,51.6245165 33.1304906,51.4601209 33.3512062,51.4601209" id="Fill-53" fill="#2DA1FF"></path>
                            <path d="M32.7723909,51.8244066 C32.7757692,51.5124286 33.0435933,51.2826484 33.3515815,51.2845165 L33.3512062,51.4601209 L33.3506431,51.6338571 C33.2147604,51.6338571 33.1271123,51.731 33.1267369,51.8262747 C33.1263616,51.9196813 33.2136343,52.0168242 33.349517,52.0168242 C33.4818337,52.0168242 33.5719217,51.9215495 33.5721094,51.8281429 C33.5724847,51.7328681 33.4829598,51.6357253 33.3506431,51.6338571 L33.3512062,51.4601209 L33.3515815,51.2845165 C33.6548777,51.2845165 33.9225141,51.5161648 33.9240155,51.8281429 C33.9206372,52.1382527 33.6518748,52.368033 33.3485786,52.3699011 C33.040215,52.3661648 32.7738924,52.1345165 32.7723909,51.8244066" id="Fill-54" fill="#2DA1FF"></path>
                            <path d="M19.1270654,53.8382527 C19.3479686,53.8382527 19.5270185,54.0045165 19.5262701,54.2062747 C19.5257047,54.408033 19.3455287,54.5724286 19.1248132,54.5724286 C18.9052238,54.5705604 18.7273,54.4061648 18.7278617,54.2044066 C18.7284261,54.0026484 18.9072883,53.8363846 19.1270654,53.8382527" id="Fill-55" fill="#2DA1FF"></path>
                            <path d="M18.5493762,54.2025385 C18.5529422,53.8905604 18.8181387,53.6607802 19.1263147,53.6607802 L19.1251886,54.011989 C18.9941856,54.011989 18.9040977,54.1091319 18.90391,54.2044066 C18.9035346,54.2959451 18.9928718,54.3930879 19.1242501,54.394956 C19.2588191,54.394956 19.348907,54.2978132 19.3492824,54.2062747 C19.3496578,54.111 19.2599452,54.0138571 19.1251886,54.011989 L19.1263147,53.6607802 C19.4333645,53.6626484 19.6996871,53.8942967 19.7011886,54.2062747 C19.6976226,54.5163846 19.4299862,54.7461648 19.123124,54.7461648 C18.8147604,54.7442967 18.5510654,54.5126484 18.5493762,54.2025385" id="Fill-56" fill="#2DA1FF"></path>
                            <path d="M19.2000742,35.3381403 C19.4209774,35.3387033 19.6000273,35.5036593 19.5994655,35.7054176 C19.5989012,35.9082967 19.4187252,36.0719451 19.197822,36.0712004 C18.9780449,36.0706374 18.8003088,35.9056813 18.8008705,35.7028022 C18.8014349,35.5012308 18.9804847,35.3373956 19.2000742,35.3381403" id="Fill-57" fill="#2DA1FF"></path>
                            <path d="M18.6225727,35.7011209 C18.6270771,35.3919451 18.8949012,35.1595495 19.1995111,35.1604807 L19.198385,35.5131868 C19.0647545,35.513 18.9771064,35.6079011 18.9767311,35.7022418 C18.9765434,35.7963956 19.0636284,35.8944725 19.1970713,35.8948462 C19.3307018,35.8952198 19.4207897,35.7977033 19.4211651,35.7035495 C19.4215405,35.6118242 19.3318279,35.5135604 19.198385,35.5131868 L19.1995111,35.1604807 C19.5076871,35.1614176 19.773822,35.3928791 19.7753235,35.7046703 C19.7721328,36.0162747 19.5043088,36.2447473 19.1961328,36.2462418 C18.8915229,36.2430659 18.6252003,36.0127253 18.6225727,35.7011209" id="Fill-58" fill="#2DA1FF"></path>
                            <path d="M10.2849305,35.0007557 C10.5060214,35.0015055 10.6850713,35.1662747 10.6843229,35.368033 C10.6837575,35.5709121 10.5035815,35.7347473 10.2826783,35.7340025 C10.0630889,35.7334396 9.8851651,35.5684835 9.88572682,35.3656044 C9.88647888,35.1638462 10.0653411,35.000011 10.2849305,35.0007557" id="Fill-59" fill="#2DA1FF"></path>
                            <path d="M9.70742903,35.3639231 C9.71061964,35.0545604 9.97844369,34.8247802 10.2843674,34.8232857 L10.2832413,35.175989 C10.1496108,35.1756154 10.0619628,35.2695824 10.0617751,35.365044 C10.0613997,35.4591978 10.1484847,35.5561538 10.2821152,35.5565275 C10.4155581,35.5569011 10.5058337,35.4605055 10.5060214,35.3661648 C10.5063968,35.2744396 10.4166842,35.1763626 10.2832413,35.175989 L10.2843674,34.8232857 C10.5925434,34.8266484 10.858866,35.0554945 10.8601798,35.3672857 C10.8569891,35.6790769 10.5891651,35.9077363 10.2809891,35.9092308 C9.97506539,35.9058681 9.7089305,35.6757143 9.70742903,35.3639231" id="Fill-60" fill="#2DA1FF"></path>
                            <path d="M11.0071358,30.2002183 C11.2278513,30.200967 11.4059628,30.3657363 11.4052144,30.5674945 C11.404649,30.7703736 11.2257868,30.934022 11.0048836,30.933463 C10.7851064,30.9327143 10.6060566,30.7679451 10.606805,30.5650659 C10.6073704,30.3633077 10.7873586,30.1996593 11.0071358,30.2002183" id="Fill-61" fill="#2DA1FF"></path>
                            <path d="M10.4283205,30.5631978 C10.4328249,30.2515934 10.6993352,30.0229341 11.0075111,30.0238653 L11.0071358,30.2002198 L11.0065727,30.3754505 C10.8731299,30.3750769 10.7828542,30.4725934 10.7826666,30.5643187 C10.7822912,30.6586593 10.8720038,30.7556154 11.0054466,30.755989 C11.1388894,30.7563626 11.2263499,30.659967 11.2267252,30.5656264 C11.2269129,30.4714725 11.1400155,30.3756374 11.0065727,30.3754505 L11.0071358,30.2002198 L11.0075111,30.0238653 C11.3134349,30.0248022 11.5795698,30.2575714 11.5812589,30.5667473 C11.5778806,30.8783516 11.3102443,31.1071978 11.0043205,31.1085055 C10.6959569,31.1053297 10.4309481,30.8748022 10.4283205,30.5631978" id="Fill-62" fill="#2DA1FF"></path>
                        </g>
                        <path d="M123.970868,117.408981 C124.191771,117.40973 124.369507,117.574499 124.368945,117.776257 C124.368381,117.977829 124.189519,118.142972 123.968803,118.142227 C123.749026,118.141477 123.569976,117.9754 123.570351,117.773829 C123.571102,117.572071 123.75109,117.408422 123.970868,117.408981" id="Fill-5" stroke="none" fill="#2DA1FF"></path>
                        <path d="M123.393178,117.771961 C123.396744,117.460356 123.664193,117.231697 123.970117,117.232628 L123.968991,117.582906 C123.835736,117.582532 123.74546,117.681356 123.745085,117.773082 C123.744897,117.866115 123.836862,117.965312 123.968052,117.965873 C124.101495,117.966246 124.191583,117.867422 124.191771,117.774389 C124.192146,117.680235 124.102434,117.583466 123.968991,117.582906 L123.970117,117.232628 C124.277167,117.233378 124.543489,117.463906 124.544991,117.77551 C124.541612,118.084686 124.276228,118.317082 123.966926,118.31615 C123.65875,118.315213 123.394868,118.081323 123.393178,117.771961" id="Fill-6" stroke="none" fill="#2DA1FF"></path>
                        <path d="M131.882281,106.389431 C132.101683,106.39018 132.281108,106.554763 132.280546,106.756521 C132.279794,106.958466 132.099618,107.123235 131.880029,107.122491 C131.660439,107.122115 131.48139,106.955851 131.481951,106.754279 C131.482516,106.552521 131.662692,106.388686 131.882281,106.389431" id="Fill-37" stroke="none" fill="#2DA1FF"></path>
                        <path d="M131.303466,106.752411 C131.306844,106.440807 131.575794,106.211961 131.880404,106.212892 L131.879278,106.563169 C131.749589,106.562796 131.658,106.661807 131.657812,106.753532 C131.657436,106.846565 131.748275,106.945763 131.878152,106.946137 C132.011595,106.946697 132.102809,106.847873 132.103184,106.75484 C132.10356,106.662928 132.012721,106.563543 131.879278,106.563169 L131.880404,106.212892 C132.18858,106.213829 132.452651,106.444356 132.45509,106.755961 C132.450586,107.065137 132.18539,107.297532 131.877026,107.296415 C131.56885,107.295477 131.304967,107.061587 131.303466,106.752411" id="Fill-38" stroke="none" fill="#2DA1FF"></path>
                        <path d="M121.061964,117.369937 C121.282868,117.370686 121.461917,117.535642 121.461356,117.737213 C121.460604,117.940279 121.280615,118.103928 121.059712,118.103369 C120.84031,118.10262 120.662199,117.937851 120.662947,117.734785 C120.663513,117.533213 120.842375,117.369378 121.061964,117.369937" id="Fill-63" stroke="none" fill="#2DA1FF"></path>
                        <path d="M120.485777,117.734224 C120.488967,117.42262 120.754351,117.193961 121.062527,117.192466 L121.061964,117.368818 L121.061589,117.544983 C120.927958,117.544609 120.838058,117.641191 120.837683,117.735345 C120.837307,117.830807 120.926832,117.925334 121.060275,117.925895 C121.193718,117.926082 121.283994,117.832301 121.284369,117.736653 C121.284557,117.642499 121.195032,117.545543 121.061589,117.544983 L121.061964,117.368818 L121.062527,117.192466 C121.369765,117.195642 121.6359,117.426169 121.637401,117.737774 C121.634023,118.04695 121.366387,118.278038 121.059337,118.277106 C120.750973,118.276356 120.487278,118.0434 120.485777,117.734224" id="Fill-64" stroke="none" fill="#2DA1FF"></path>
                        <path d="M121.373331,115.575411 C121.59292,115.576159 121.77197,115.742235 121.771408,115.943994 C121.771032,116.145752 121.590856,116.310708 121.371266,116.309963 C121.151489,116.3094 120.972627,116.14351 120.973189,115.941565 C120.973753,115.739807 121.153554,115.575038 121.373331,115.575411" id="Fill-65" stroke="none" fill="#2DA1FF"></path>
                        <path d="M120.795829,115.939884 C120.799208,115.630521 121.064404,115.399433 121.37258,115.397939 L121.371829,115.749521 C121.240451,115.749148 121.148111,115.846851 121.147736,115.941005 C121.147548,116.035159 121.239513,116.132115 121.370516,116.132488 C121.501519,116.132862 121.594046,116.036466 121.594422,115.942126 C121.594609,115.847972 121.502645,115.750082 121.371829,115.749521 L121.37258,115.397939 C121.680944,115.401301 121.943513,115.634071 121.945014,115.943246 C121.941636,116.252609 121.677565,116.483697 121.36939,116.485191 C121.061026,116.481829 120.797331,116.24906 120.795829,115.939884" id="Fill-66" stroke="none" fill="#2DA1FF"></path>
                    </g>
                </g>
            </g>
        </g>
    </g>
</svg>