<?xml version="1.0" encoding="UTF-8"?>
<svg width="155px" height="78px" viewBox="0 0 155 78" version="1.1" xmlns="http://www.w3.org/2000/svg" xmlns:xlink="http://www.w3.org/1999/xlink">
    <title>切片</title>
    <g id="页面-1" stroke="none" stroke-width="1" fill="none" fill-rule="evenodd">
        <g id="民联新经济大屏2" transform="translate(-1008.000000, -624.000000)" fill="#FFFFFF">
            <g id="编组-8" transform="translate(1004.000000, 618.000000)">
                <g id="pic_chartbg_1" transform="translate(4.839502, 6.091830)">
                    <g id="d_p_r1" transform="translate(0.000000, 0.000000)">
                        <g id="编组-21" transform="translate(0.000000, 0.000000)">
                            <path d="M84.470251,0.0436552668 L84.8528086,0.0436552668 C84.9641502,0.0436552668 85.0544104,0.133915471 85.0544104,0.245257076 L85.0544104,2.98509852 C85.0544104,3.09644013 84.9641502,3.18670033 84.8528086,3.18670033 L84.470251,3.18670033 C84.3589094,3.18670033 84.2686491,3.09644013 84.2686491,2.98509852 L84.2686491,0.245257076 C84.2686491,0.133915471 84.3589094,0.0436552668 84.470251,0.0436552668 Z" id="矩形" opacity="0.119051" transform="translate(84.661530, 1.615178) rotate(6.000000) translate(-84.661530, -1.615178) "></path>
                            <rect id="矩形" opacity="0.278366815" x="77" y="0" width="1" height="7" rx="0.201601809"></rect>
                            <path d="M91.6245329,2.06961431 L92.0070905,2.06961431 C92.1184321,2.06961431 92.2086923,2.15987451 92.2086923,2.27121612 L92.2086923,5.01105756 C92.2086923,5.12239917 92.1184321,5.21265937 92.0070905,5.21265937 L91.6245329,5.21265937 C91.5131913,5.21265937 91.4229311,5.12239917 91.4229311,5.01105756 L91.4229311,2.27121612 C91.4229311,2.15987451 91.5131913,2.06961431 91.6245329,2.06961431 Z" id="矩形" opacity="0.119051" transform="translate(91.815812, 3.641137) rotate(12.000000) translate(-91.815812, -3.641137) "></path>
                            <path d="M99.7698766,4.07759271 L100.152434,4.07759271 C100.263776,4.07759271 100.354036,4.16785291 100.354036,4.27919452 L100.354036,7.01903596 C100.354036,7.13037757 100.263776,7.22063777 100.152434,7.22063777 L99.7698766,7.22063777 C99.658535,7.22063777 99.5682748,7.13037757 99.5682748,7.01903596 L99.5682748,4.27919452 C99.5682748,4.16785291 99.658535,4.07759271 99.7698766,4.07759271 Z" id="矩形" opacity="0.119051" transform="translate(99.961155, 5.649115) rotate(18.000000) translate(-99.961155, -5.649115) "></path>
                            <path d="M106.90469,6.06750306 L107.287247,6.06750306 C107.398589,6.06750306 107.488849,6.15776326 107.488849,6.26910487 L107.488849,9.00894631 C107.488849,9.12028792 107.398589,9.21054812 107.287247,9.21054812 L106.90469,9.21054812 C106.793348,9.21054812 106.703088,9.12028792 106.703088,9.00894631 L106.703088,6.26910487 C106.703088,6.15776326 106.793348,6.06750306 106.90469,6.06750306 Z" id="矩形" opacity="0.119051" transform="translate(107.095969, 7.639026) rotate(24.000000) translate(-107.095969, -7.639026) "></path>
                            <path d="M113.911477,9.80259379 L114.294034,9.80259379 C114.405376,9.80259379 114.495636,9.892854 114.495636,10.0041956 L114.495636,16.2799627 C114.495636,16.3913044 114.405376,16.4815646 114.294034,16.4815646 L113.911477,16.4815646 C113.800135,16.4815646 113.709875,16.3913044 113.709875,16.2799627 L113.709875,10.0041956 C113.709875,9.892854 113.800135,9.80259379 113.911477,9.80259379 Z" id="矩形" opacity="0.278366815" transform="translate(114.102755, 13.142079) rotate(30.000000) translate(-114.102755, -13.142079) "></path>
                            <path d="M120.136947,13.9937585 L120.519505,13.9937585 C120.630847,13.9937585 120.721107,14.0840187 120.721107,14.1953603 L120.721107,16.9352018 C120.721107,17.0465434 120.630847,17.1368036 120.519505,17.1368036 L120.136947,17.1368036 C120.025606,17.1368036 119.935346,17.0465434 119.935346,16.9352018 L119.935346,14.1953603 C119.935346,14.0840187 120.025606,13.9937585 120.136947,13.9937585 Z" id="矩形" opacity="0.119051" transform="translate(120.328226, 15.565281) rotate(36.000000) translate(-120.328226, -15.565281) "></path>
                            <path d="M126.231847,18.9309116 L126.614405,18.9309116 C126.725747,18.9309116 126.816007,19.0211718 126.816007,19.1325134 L126.816007,21.8723549 C126.816007,21.9836965 126.725747,22.0739567 126.614405,22.0739567 L126.231847,22.0739567 C126.120506,22.0739567 126.030246,21.9836965 126.030246,21.8723549 L126.030246,19.1325134 C126.030246,19.0211718 126.120506,18.9309116 126.231847,18.9309116 Z" id="矩形" opacity="0.119051" transform="translate(126.423126, 20.502434) rotate(42.000000) translate(-126.423126, -20.502434) "></path>
                            <path d="M131.311155,23.8516037 L131.693713,23.8516037 C131.805055,23.8516037 131.895315,23.9418639 131.895315,24.0532055 L131.895315,26.793047 C131.895315,26.9043886 131.805055,26.9946488 131.693713,26.9946488 L131.311155,26.9946488 C131.199814,26.9946488 131.109554,26.9043886 131.109554,26.793047 L131.109554,24.0532055 C131.109554,23.9418639 131.199814,23.8516037 131.311155,23.8516037 Z" id="矩形" opacity="0.119051" transform="translate(131.502434, 25.423126) rotate(48.000000) translate(-131.502434, -25.423126) "></path>
                            <path d="M136.374002,30.7567037 L136.75656,30.7567037 C136.867901,30.7567037 136.958162,30.8469639 136.958162,30.9583055 L136.958162,33.698147 C136.958162,33.8094886 136.867901,33.8997488 136.75656,33.8997488 L136.374002,33.8997488 C136.262661,33.8997488 136.1724,33.8094886 136.1724,33.698147 L136.1724,30.9583055 C136.1724,30.8469639 136.262661,30.7567037 136.374002,30.7567037 Z" id="矩形" opacity="0.119051" transform="translate(136.565281, 32.328226) rotate(54.000000) translate(-136.565281, -32.328226) "></path>
                            <path d="M139.9508,36.76327 L140.333358,36.76327 C140.4447,36.76327 140.53496,36.8535302 140.53496,36.9648718 L140.53496,43.240639 C140.53496,43.3519806 140.4447,43.4422408 140.333358,43.4422408 L139.9508,43.4422408 C139.839459,43.4422408 139.749199,43.3519806 139.749199,43.240639 L139.749199,36.9648718 C139.749199,36.8535302 139.839459,36.76327 139.9508,36.76327 Z" id="矩形" opacity="0.278366815" transform="translate(140.142079, 40.102755) rotate(60.000000) translate(-140.142079, -40.102755) "></path>
                            <path d="M143.447747,43.524446 L143.830304,43.524446 C143.941646,43.524446 144.031906,43.6147062 144.031906,43.7260478 L144.031906,46.4658893 C144.031906,46.5772309 143.941646,46.6674911 143.830304,46.6674911 L143.447747,46.6674911 C143.336405,46.6674911 143.246145,46.5772309 143.246145,46.4658893 L143.246145,43.7260478 C143.246145,43.6147062 143.336405,43.524446 143.447747,43.524446 Z" id="矩形" opacity="0.119051" transform="translate(143.639026, 45.095969) rotate(66.000000) translate(-143.639026, -45.095969) "></path>
                            <path d="M146.457836,50.3896329 L146.840394,50.3896329 C146.951736,50.3896329 147.041996,50.4798931 147.041996,50.5912347 L147.041996,53.3310762 C147.041996,53.4424178 146.951736,53.532678 146.840394,53.532678 L146.457836,53.532678 C146.346495,53.532678 146.256235,53.4424178 146.256235,53.3310762 L146.256235,50.5912347 C146.256235,50.4798931 146.346495,50.3896329 146.457836,50.3896329 Z" id="矩形" opacity="0.119051" transform="translate(146.649115, 51.961155) rotate(72.000000) translate(-146.649115, -51.961155) "></path>
                            <path d="M148.449858,58.2442892 L148.832416,58.2442892 C148.943757,58.2442892 149.034017,58.3345494 149.034017,58.445891 L149.034017,61.1857324 C149.034017,61.297074 148.943757,61.3873342 148.832416,61.3873342 L148.449858,61.3873342 C148.338516,61.3873342 148.248256,61.297074 148.248256,61.1857324 L148.248256,58.445891 C148.248256,58.3345494 148.338516,58.2442892 148.449858,58.2442892 Z" id="矩形" opacity="0.119051" transform="translate(148.641137, 59.815812) rotate(78.000000) translate(-148.641137, -59.815812) "></path>
                            <path d="M149.423899,66.0900073 L149.806457,66.0900073 C149.917798,66.0900073 150.008058,66.1802675 150.008058,66.2916091 L150.008058,69.0314505 C150.008058,69.1427921 149.917798,69.2330523 149.806457,69.2330523 L149.423899,69.2330523 C149.312557,69.2330523 149.222297,69.1427921 149.222297,69.0314505 L149.222297,66.2916091 C149.222297,66.1802675 149.312557,66.0900073 149.423899,66.0900073 Z" id="矩形" opacity="0.119051" transform="translate(149.615178, 67.661530) rotate(84.000000) translate(-149.615178, -67.661530) "></path>
                            <path d="M150.217268,73.0822454 L150.618242,73.0822454 C150.729583,73.0822454 150.819843,73.1725056 150.819843,73.2838472 L150.819843,79.7161528 C150.819843,79.8274944 150.729583,79.9177546 150.618242,79.9177546 L150.217268,79.9177546 C150.105926,79.9177546 150.015666,79.8274944 150.015666,79.7161528 L150.015666,73.2838472 C150.015666,73.1725056 150.105926,73.0822454 150.217268,73.0822454 Z" id="矩形" opacity="0.278366815" transform="translate(150.417755, 76.500000) rotate(90.000000) translate(-150.417755, -76.500000) "></path>
                            <path d="M3.21726761,73.0822454 L3.61824153,73.0822454 C3.72958314,73.0822454 3.81984334,73.1725056 3.81984334,73.2838472 L3.81984334,79.7161528 C3.81984334,79.8274944 3.72958314,79.9177546 3.61824153,79.9177546 L3.21726761,79.9177546 C3.105926,79.9177546 3.0156658,79.8274944 3.0156658,79.7161528 L3.0156658,73.2838472 C3.0156658,73.1725056 3.105926,73.0822454 3.21726761,73.0822454 Z" id="矩形" opacity="0.278366815" transform="translate(3.417755, 76.500000) rotate(270.000000) translate(-3.417755, -76.500000) "></path>
                            <path d="M3.42389898,66.0900073 L3.80645662,66.0900073 C3.91779823,66.0900073 4.00805843,66.1802675 4.00805843,66.2916091 L4.00805843,69.0314505 C4.00805843,69.1427921 3.91779823,69.2330523 3.80645662,69.2330523 L3.42389898,69.2330523 C3.31255737,69.2330523 3.22229717,69.1427921 3.22229717,69.0314505 L3.22229717,66.2916091 C3.22229717,66.1802675 3.31255737,66.0900073 3.42389898,66.0900073 Z" id="矩形" opacity="0.119051" transform="translate(3.615178, 67.661530) rotate(276.000000) translate(-3.615178, -67.661530) "></path>
                            <path d="M4.44985802,58.2442892 L4.83241566,58.2442892 C4.94375727,58.2442892 5.03401747,58.3345494 5.03401747,58.445891 L5.03401747,61.1857324 C5.03401747,61.297074 4.94375727,61.3873342 4.83241566,61.3873342 L4.44985802,61.3873342 C4.33851641,61.3873342 4.24825621,61.297074 4.24825621,61.1857324 L4.24825621,58.445891 C4.24825621,58.3345494 4.33851641,58.2442892 4.44985802,58.2442892 Z" id="矩形" opacity="0.119051" transform="translate(4.641137, 59.815812) rotate(282.000000) translate(-4.641137, -59.815812) "></path>
                            <path d="M6.45783642,50.3896329 L6.84039407,50.3896329 C6.95173567,50.3896329 7.04199587,50.4798931 7.04199587,50.5912347 L7.04199587,53.3310762 C7.04199587,53.4424178 6.95173567,53.532678 6.84039407,53.532678 L6.45783642,53.532678 C6.34649481,53.532678 6.25623461,53.4424178 6.25623461,53.3310762 L6.25623461,50.5912347 C6.25623461,50.4798931 6.34649481,50.3896329 6.45783642,50.3896329 Z" id="矩形" opacity="0.119051" transform="translate(6.649115, 51.961155) rotate(288.000000) translate(-6.649115, -51.961155) "></path>
                            <path d="M9.44774677,43.524446 L9.83030442,43.524446 C9.94164602,43.524446 10.0319062,43.6147062 10.0319062,43.7260478 L10.0319062,46.4658893 C10.0319062,46.5772309 9.94164602,46.6674911 9.83030442,46.6674911 L9.44774677,46.6674911 C9.33640516,46.6674911 9.24614496,46.5772309 9.24614496,46.4658893 L9.24614496,43.7260478 C9.24614496,43.6147062 9.33640516,43.524446 9.44774677,43.524446 Z" id="矩形" opacity="0.119051" transform="translate(9.639026, 45.095969) rotate(294.000000) translate(-9.639026, -45.095969) "></path>
                            <path d="M12.9508004,36.76327 L13.333358,36.76327 C13.4446996,36.76327 13.5349598,36.8535302 13.5349598,36.9648718 L13.5349598,43.240639 C13.5349598,43.3519806 13.4446996,43.4422408 13.333358,43.4422408 L12.9508004,43.4422408 C12.8394587,43.4422408 12.7491985,43.3519806 12.7491985,43.240639 L12.7491985,36.9648718 C12.7491985,36.8535302 12.8394587,36.76327 12.9508004,36.76327 Z" id="矩形" opacity="0.278366815" transform="translate(13.142079, 40.102755) rotate(300.000000) translate(-13.142079, -40.102755) "></path>
                            <path d="M17.3740022,30.7567037 L17.7565599,30.7567037 C17.8679015,30.7567037 17.9581617,30.8469639 17.9581617,30.9583055 L17.9581617,33.698147 C17.9581617,33.8094886 17.8679015,33.8997488 17.7565599,33.8997488 L17.3740022,33.8997488 C17.2626606,33.8997488 17.1724004,33.8094886 17.1724004,33.698147 L17.1724004,30.9583055 C17.1724004,30.8469639 17.2626606,30.7567037 17.3740022,30.7567037 Z" id="矩形" opacity="0.119051" transform="translate(17.565281, 32.328226) rotate(306.000000) translate(-17.565281, -32.328226) "></path>
                            <path d="M22.3111553,23.8516037 L22.693713,23.8516037 C22.8050546,23.8516037 22.8953148,23.9418639 22.8953148,24.0532055 L22.8953148,26.793047 C22.8953148,26.9043886 22.8050546,26.9946488 22.693713,26.9946488 L22.3111553,26.9946488 C22.1998137,26.9946488 22.1095535,26.9043886 22.1095535,26.793047 L22.1095535,24.0532055 C22.1095535,23.9418639 22.1998137,23.8516037 22.3111553,23.8516037 Z" id="矩形" opacity="0.119051" transform="translate(22.502434, 25.423126) rotate(312.000000) translate(-22.502434, -25.423126) "></path>
                            <path d="M27.2318474,18.9309116 L27.6144051,18.9309116 C27.7257467,18.9309116 27.8160069,19.0211718 27.8160069,19.1325134 L27.8160069,21.8723549 C27.8160069,21.9836965 27.7257467,22.0739567 27.6144051,22.0739567 L27.2318474,22.0739567 C27.1205058,22.0739567 27.0302456,21.9836965 27.0302456,21.8723549 L27.0302456,19.1325134 C27.0302456,19.0211718 27.1205058,18.9309116 27.2318474,18.9309116 Z" id="矩形" opacity="0.119051" transform="translate(27.423126, 20.502434) rotate(318.000000) translate(-27.423126, -20.502434) "></path>
                            <path d="M33.1369474,13.9937585 L33.5195051,13.9937585 C33.6308467,13.9937585 33.7211069,14.0840187 33.7211069,14.1953603 L33.7211069,16.9352018 C33.7211069,17.0465434 33.6308467,17.1368036 33.5195051,17.1368036 L33.1369474,17.1368036 C33.0256058,17.1368036 32.9353456,17.0465434 32.9353456,16.9352018 L32.9353456,14.1953603 C32.9353456,14.0840187 33.0256058,13.9937585 33.1369474,13.9937585 Z" id="矩形" opacity="0.119051" transform="translate(33.328226, 15.565281) rotate(324.000000) translate(-33.328226, -15.565281) "></path>
                            <path d="M39.9114766,9.80259379 L40.2940342,9.80259379 C40.4053758,9.80259379 40.495636,9.892854 40.495636,10.0041956 L40.495636,16.2799627 C40.495636,16.3913044 40.4053758,16.4815646 40.2940342,16.4815646 L39.9114766,16.4815646 C39.800135,16.4815646 39.7098748,16.3913044 39.7098748,16.2799627 L39.7098748,10.0041956 C39.7098748,9.892854 39.800135,9.80259379 39.9114766,9.80259379 Z" id="矩形" opacity="0.278366815" transform="translate(40.102755, 13.142079) rotate(330.000000) translate(-40.102755, -13.142079) "></path>
                            <path d="M46.9046897,6.06750306 L47.2872474,6.06750306 C47.398589,6.06750306 47.4888492,6.15776326 47.4888492,6.26910487 L47.4888492,9.00894631 C47.4888492,9.12028792 47.398589,9.21054812 47.2872474,9.21054812 L46.9046897,9.21054812 C46.7933481,9.21054812 46.7030879,9.12028792 46.7030879,9.00894631 L46.7030879,6.26910487 C46.7030879,6.15776326 46.7933481,6.06750306 46.9046897,6.06750306 Z" id="矩形" opacity="0.119051" transform="translate(47.095969, 7.639026) rotate(336.000000) translate(-47.095969, -7.639026) "></path>
                            <path d="M53.7698766,4.07759271 L54.1524343,4.07759271 C54.2637759,4.07759271 54.3540361,4.16785291 54.3540361,4.27919452 L54.3540361,7.01903596 C54.3540361,7.13037757 54.2637759,7.22063777 54.1524343,7.22063777 L53.7698766,7.22063777 C53.658535,7.22063777 53.5682748,7.13037757 53.5682748,7.01903596 L53.5682748,4.27919452 C53.5682748,4.16785291 53.658535,4.07759271 53.7698766,4.07759271 Z" id="矩形" opacity="0.119051" transform="translate(53.961155, 5.649115) rotate(342.000000) translate(-53.961155, -5.649115) "></path>
                            <path d="M61.6245329,2.06961431 L62.0070905,2.06961431 C62.1184321,2.06961431 62.2086923,2.15987451 62.2086923,2.27121612 L62.2086923,5.01105756 C62.2086923,5.12239917 62.1184321,5.21265937 62.0070905,5.21265937 L61.6245329,5.21265937 C61.5131913,5.21265937 61.4229311,5.12239917 61.4229311,5.01105756 L61.4229311,2.27121612 C61.4229311,2.15987451 61.5131913,2.06961431 61.6245329,2.06961431 Z" id="矩形" opacity="0.119051" transform="translate(61.815812, 3.641137) rotate(348.000000) translate(-61.815812, -3.641137) "></path>
                            <path d="M69.470251,0.0436552668 L69.8528086,0.0436552668 C69.9641502,0.0436552668 70.0544104,0.133915471 70.0544104,0.245257076 L70.0544104,2.98509852 C70.0544104,3.09644013 69.9641502,3.18670033 69.8528086,3.18670033 L69.470251,3.18670033 C69.3589094,3.18670033 69.2686491,3.09644013 69.2686491,2.98509852 L69.2686491,0.245257076 C69.2686491,0.133915471 69.3589094,0.0436552668 69.470251,0.0436552668 Z" id="矩形" opacity="0.119051" transform="translate(69.661530, 1.615178) rotate(354.000000) translate(-69.661530, -1.615178) "></path>
                        </g>
                    </g>
                </g>
            </g>
        </g>
    </g>
</svg>