<?xml version="1.0" encoding="UTF-8"?>
<svg width="88px" height="88px" viewBox="0 0 88 88" version="1.1" xmlns="http://www.w3.org/2000/svg" xmlns:xlink="http://www.w3.org/1999/xlink">
    <title>切片</title>
    <defs>
        <linearGradient x1="3.98233708%" y1="26.7297066%" x2="91.4431243%" y2="68.9371143%" id="linearGradient-1">
            <stop stop-color="#4AA5FD" stop-opacity="0.067225743" offset="0%"></stop>
            <stop stop-color="#3485FA" offset="55.3739003%"></stop>
            <stop stop-color="#246CF9" stop-opacity="0.112871503" offset="100%"></stop>
        </linearGradient>
        <linearGradient x1="3.98233708%" y1="26.6915866%" x2="91.4431243%" y2="68.968136%" id="linearGradient-2">
            <stop stop-color="#4AA5FD" stop-opacity="0.067225743" offset="0%"></stop>
            <stop stop-color="#3485FA" offset="55.3739003%"></stop>
            <stop stop-color="#246CF9" stop-opacity="0.112871503" offset="100%"></stop>
        </linearGradient>
        <path d="M35.6631579,70.5833333 C55.3593761,70.5833333 71.3263158,54.782716 71.3263158,35.2916667 C71.3263158,15.8006174 55.3593761,0 35.6631579,0 C15.9669397,0 0,15.8006174 0,35.2916667 C0,54.782716 15.9669397,70.5833333 35.6631579,70.5833333 Z" id="path-3"></path>
        <mask id="mask-4" maskContentUnits="userSpaceOnUse" maskUnits="objectBoundingBox" x="0" y="0" width="71.3263158" height="70.5833333" fill="white">
            <use xlink:href="#path-3"></use>
        </mask>
        <linearGradient x1="50%" y1="0%" x2="78.3141259%" y2="104.467562%" id="linearGradient-5">
            <stop stop-color="#00C3FF" offset="0%"></stop>
            <stop stop-color="#0169FA" offset="26.6617193%"></stop>
            <stop stop-color="#0248F3" offset="65.1514624%"></stop>
            <stop stop-color="#2282CC" offset="100%"></stop>
        </linearGradient>
        <linearGradient x1="50%" y1="0%" x2="69.1276735%" y2="100%" id="linearGradient-6">
            <stop stop-color="#95E5FD" offset="0%"></stop>
            <stop stop-color="#396DEC" offset="57.2540588%"></stop>
            <stop stop-color="#5CEDFA" offset="100%"></stop>
        </linearGradient>
        <linearGradient x1="50%" y1="0%" x2="68.1810816%" y2="38.0536911%" id="linearGradient-7">
            <stop stop-color="#FFFFFF" offset="0%"></stop>
            <stop stop-color="#FFFFFF" stop-opacity="0" offset="100%"></stop>
        </linearGradient>
        <path d="M24.7221741,2.29582929 L34.3488876,10.4531317 C37.4269696,13.0613787 37.4269696,18.1732191 34.3488876,21.870747 L24.7221741,33.4347801 C21.6440921,37.132308 16.6535352,38.0153447 13.5754532,35.4070978 L3.94873974,27.2497953 C0.870657758,24.6415484 0.870657758,19.5297079 3.94873974,15.83218 L13.5754532,4.26814699 C16.6535352,0.570619093 21.6440921,-0.312417622 24.7221741,2.29582929 Z M21.9650632,10.3343716 L21.9648,19.5628321 L26.6920731,23.4063738 L23.4170522,27.2253569 L17.3334842,22.2789758 L17.3334842,11.151896 L21.9650632,10.3343716 Z" id="path-8"></path>
        <filter x="-48.5%" y="-36.0%" width="197.1%" height="194.2%" filterUnits="objectBoundingBox" id="filter-9">
            <feOffset dx="0" dy="4" in="SourceAlpha" result="shadowOffsetOuter1"></feOffset>
            <feGaussianBlur stdDeviation="5" in="shadowOffsetOuter1" result="shadowBlurOuter1"></feGaussianBlur>
            <feComposite in="shadowBlurOuter1" in2="SourceAlpha" operator="out" result="shadowBlurOuter1"></feComposite>
            <feColorMatrix values="0 0 0 0 0.14059037   0 0 0 0 0.424655914   0 0 0 0 0.976076305  0 0 0 0.640816215 0" type="matrix" in="shadowBlurOuter1"></feColorMatrix>
        </filter>
        <filter x="-185.5%" y="-187.5%" width="471.1%" height="475.0%" filterUnits="objectBoundingBox" id="filter-10">
            <feGaussianBlur stdDeviation="9.16666667" in="SourceGraphic"></feGaussianBlur>
        </filter>
    </defs>
    <g id="页面-1" stroke="none" stroke-width="1" fill="none" fill-rule="evenodd">
        <g id="民联新经济大屏" transform="translate(-977.000000, -117.000000)">
            <g id="编组-2" transform="translate(216.000000, 117.000000)">
                <g id="ic_top_3" transform="translate(761.000000, 0.000000)">
                    <rect id="矩形" x="0" y="0" width="88" height="88"></rect>
                    <g id="编组" transform="translate(16.673684, 0.916667)">
                        <ellipse id="椭圆形" stroke-opacity="0.188619974" stroke="#7DC1F5" stroke-width="0.5" cx="35.6631579" cy="35.2916667" rx="30.7815789" ry="30.4583333"></ellipse>
                        <path d="M6.04146547,44.470239 C9.98510671,56.9464559 21.7557187,66 35.6631579,66 C36.91023,66 38.1401206,65.927204 39.3487274,65.7856719" id="路径" stroke="url(#linearGradient-1)" stroke-width="0.5"></path>
                        <path d="M29.4794628,3.51767467 C33.4341945,15.9984558 45.2121496,25.0633694 59.1184883,25.0759606 C60.3654617,25.0770754 61.5951885,25.0053859 62.8035702,24.8649356" id="路径备份-4" stroke="url(#linearGradient-2)" stroke-width="0.5" transform="translate(46.141517, 14.296818) rotate(175.000000) translate(-46.141517, -14.296818) "></path>
                        <path d="M58.7594975,13.4339839 C52.9413305,7.41519305 44.7446098,3.66666667 35.6631579,3.66666667 C18.0133,3.66666667 3.70526316,17.8256615 3.70526316,35.2916667 C3.70526316,52.7576719 18.0133,66.9166667 35.6631579,66.9166667 C53.3130158,66.9166667 67.6210526,52.7576719 67.6210526,35.2916667 C67.6210526,32.7988587 67.3295983,30.3734144 66.7785714,28.0468835" id="路径" stroke-opacity="0.188619974" stroke="#7DC1F5" stroke-width="0.5"></path>
                        <ellipse id="椭圆形备份" fill-opacity="0.06" fill="#B6DFFF" cx="35.6631579" cy="35.2916667" rx="29.1789474" ry="28.875"></ellipse>
                        <use id="椭圆形备份-2" stroke-opacity="0.07" stroke="#B6DFFF" mask="url(#mask-4)" stroke-width="3.66666667" stroke-dasharray="2.75" xlink:href="#path-3"></use>
                        <g id="编组-9" transform="translate(16.673684, 16.500000)">
                            <path d="M23.0819959,1.49875635 L32.7087094,9.65605881 C35.7867913,12.2643057 35.7867913,17.3761462 32.7087094,21.0736741 L23.0819959,32.6377071 C20.0039139,36.335235 15.013357,37.2182718 11.935275,34.6100249 L2.30856148,26.4527224 C-0.769520495,23.8444755 -0.769520495,18.732635 2.30856148,15.0351071 L11.935275,3.47107406 C15.013357,-0.226453838 20.0039139,-1.10949055 23.0819959,1.49875635 Z M20.1124316,9.41770493 L20.1121684,18.6461654 L24.8394415,22.4897072 L21.5644207,26.3086903 L15.4808527,21.3623091 L15.4808527,10.2352293 L20.1124316,9.41770493 Z" id="形状结合备份-6" fill="url(#linearGradient-5)"></path>
                            <path d="M23.9572137,1.99136595 L33.5839272,10.1486684 C36.6620092,12.7569153 36.6620092,17.8687558 33.5839272,21.5662837 L23.9572137,33.1303167 C20.8791317,36.8278446 15.8885748,37.7108814 12.8104928,35.1026344 L3.18377929,26.945332 C0.105697312,24.3370851 0.105697312,19.2252446 3.18377929,15.5277167 L12.8104928,3.96368365 C15.8885748,0.266155757 20.8791317,-0.616880957 23.9572137,1.99136595 Z M20.1124316,9.41770493 L20.1121684,18.6461654 L24.8394415,22.4897072 L21.5644207,26.3086903 L15.4808527,21.3623091 L15.4808527,10.2352293 L20.1124316,9.41770493 Z" id="形状结合备份-7" fill="url(#linearGradient-5)"></path>
                            <g id="形状结合">
                                <use fill="black" fill-opacity="1" filter="url(#filter-9)" xlink:href="#path-8"></use>
                                <path stroke="url(#linearGradient-7)" stroke-width="0.5" d="M24.3456636,2.31283363 L24.5605544,2.48656227 L34.1872679,10.6438647 C35.6709263,11.9010591 36.4074491,13.7632413 36.4074491,15.753459 C36.4074491,17.6602201 35.732615,19.685031 34.3871957,21.4237335 L34.1567508,21.7107988 L24.5300373,33.2748319 C23.0318881,35.0744748 21.0694227,36.1918856 19.1052549,36.5394285 C17.2560078,36.866637 15.4048191,36.5100496 13.9519637,35.3900934 L13.7370729,35.2163648 L4.11035944,27.0590623 C2.62670105,25.8018679 1.89017825,23.9396858 1.89017825,21.949468 C1.89017825,20.0427069 2.56501238,18.0178961 3.91043165,16.2791935 L4.14087659,15.9921282 L13.7675901,4.4280952 C15.2657393,2.62845226 17.2282047,1.51104143 19.1923724,1.16349861 C21.0416195,0.836290021 22.8928083,1.1928775 24.3456636,2.31283363 Z M22.2150717,10.0363777 L17.0834842,10.9421591 L17.0834842,22.3979155 L23.4482933,27.572966 L27.0489152,23.3743013 L22.2148034,19.4438936 L22.2150717,10.0363777 Z" stroke-linejoin="square" fill="url(#linearGradient-6)" fill-rule="evenodd"></path>
                            </g>
                            <line x1="20.5371114" y1="0.797072931" x2="25.4436792" y2="2.55455742" id="路径-12" stroke-opacity="0.5" stroke="#FFFFFF" stroke-width="0.5"></line>
                            <line x1="18.4520053" y1="1.22557184" x2="22.552451" y2="2.8197177" id="路径-12备份" stroke-opacity="0.5" stroke="#FFFFFF" stroke-width="0.5"></line>
                            <line x1="15.1716488" y1="2.8197177" x2="19.2720945" y2="4.41386357" id="路径-12备份-2" stroke-opacity="0.5" stroke="#FFFFFF" stroke-width="0.5"></line>
                            <line x1="14.3515597" y1="3.61679064" x2="18.4520053" y2="5.2109365" id="路径-12备份-3" stroke-opacity="0.5" stroke="#FFFFFF" stroke-width="0.5"></line>
                            <line x1="13.5314706" y1="4.41386357" x2="17.6319162" y2="6.00800943" id="路径-12备份-4" stroke-opacity="0.5" stroke="#FFFFFF" stroke-width="0.5"></line>
                            <line x1="2.87031194" y1="17.9641034" x2="6.97075758" y2="19.5582493" id="路径-12备份-5" stroke-opacity="0.5" stroke="#FFFFFF" stroke-width="0.5"></line>
                            <line x1="1.64017825" y1="21.9122812" x2="5.74062389" y2="23.506427" id="路径-12备份-6" stroke-opacity="0.5" stroke="#FFFFFF" stroke-width="0.5"></line>
                            <line x1="1.8179405" y1="20.791735" x2="5.91838613" y2="22.3858809" id="路径-12备份-7" stroke-opacity="0.5" stroke="#FFFFFF" stroke-width="0.5"></line>
                        </g>
                        <ellipse id="椭圆形" fill="#246CF9" filter="url(#filter-10)" cx="19.4526316" cy="58.6666667" rx="7.41052632" ry="7.33333333"></ellipse>
                    </g>
                    <path d="M60.8671619,21.3236462 L61.0820527,21.4973748 L70.7087662,29.6546773 C72.1924246,30.9118717 72.9289474,32.7740538 72.9289474,34.7642715 C72.9289474,36.6710327 72.2541132,38.6958435 70.908694,40.4345461 L70.678249,40.7216114 L61.0515355,52.2856444 C59.5533863,54.0852873 57.5909209,55.2026982 55.6267532,55.550241 C53.7775061,55.8774496 51.9263173,55.5208621 50.473462,54.400906 L50.2585712,54.2271773 L40.6318577,46.0698749 C39.1481993,44.8126805 38.4116765,42.9504983 38.4116765,40.9602806 C38.4116765,39.0535195 39.0865106,37.0287086 40.4319299,35.2900061 L40.6623749,35.0029408 L50.2890883,23.4389077 C51.7872376,21.6392648 53.7497029,20.521854 55.7138707,20.1743111 C57.5631178,19.8471026 59.4143066,20.20369 60.8671619,21.3236462 Z M57.4150717,28.369711 L52.2834842,29.2754924 L52.2834842,40.7312489 L58.6482933,45.9062993 L62.2489152,41.7076347 L57.4148034,37.777227 L57.4150717,28.369711 Z" id="形状结合备份-4" stroke-opacity="0.2" stroke="#FFFFFF" stroke-width="0.5" fill-opacity="0.18673514" fill="#246CF9"></path>
                </g>
            </g>
        </g>
    </g>
</svg>