<?xml version="1.0" encoding="UTF-8"?>
<svg width="88px" height="88px" viewBox="0 0 88 88" version="1.1" xmlns="http://www.w3.org/2000/svg" xmlns:xlink="http://www.w3.org/1999/xlink">
    <title>切片</title>
    <defs>
        <linearGradient x1="3.98233708%" y1="26.7297066%" x2="91.4431243%" y2="68.9371143%" id="linearGradient-1">
            <stop stop-color="#4AA5FD" stop-opacity="0.067225743" offset="0%"></stop>
            <stop stop-color="#3485FA" offset="55.3739003%"></stop>
            <stop stop-color="#246CF9" stop-opacity="0.112871503" offset="100%"></stop>
        </linearGradient>
        <linearGradient x1="3.98233708%" y1="26.6915866%" x2="91.4431243%" y2="68.968136%" id="linearGradient-2">
            <stop stop-color="#4AA5FD" stop-opacity="0.067225743" offset="0%"></stop>
            <stop stop-color="#3485FA" offset="55.3739003%"></stop>
            <stop stop-color="#246CF9" stop-opacity="0.112871503" offset="100%"></stop>
        </linearGradient>
        <filter x="-185.5%" y="-187.5%" width="471.1%" height="475.0%" filterUnits="objectBoundingBox" id="filter-3">
            <feGaussianBlur stdDeviation="9.16666667" in="SourceGraphic"></feGaussianBlur>
        </filter>
        <path d="M35.6631579,70.5833333 C55.3593761,70.5833333 71.3263158,54.782716 71.3263158,35.2916667 C71.3263158,15.8006174 55.3593761,0 35.6631579,0 C15.9669397,0 0,15.8006174 0,35.2916667 C0,54.782716 15.9669397,70.5833333 35.6631579,70.5833333 Z" id="path-4"></path>
        <mask id="mask-5" maskContentUnits="userSpaceOnUse" maskUnits="objectBoundingBox" x="0" y="0" width="71.3263158" height="70.5833333" fill="white">
            <use xlink:href="#path-4"></use>
        </mask>
        <linearGradient x1="50%" y1="0%" x2="68.755173%" y2="104.467562%" id="linearGradient-6">
            <stop stop-color="#00C3FF" offset="0%"></stop>
            <stop stop-color="#0169FA" offset="26.6617193%"></stop>
            <stop stop-color="#0248F3" offset="65.1514624%"></stop>
            <stop stop-color="#2282CC" offset="100%"></stop>
        </linearGradient>
        <linearGradient x1="50%" y1="0%" x2="72.2980829%" y2="124.718174%" id="linearGradient-7">
            <stop stop-color="#95E5FD" offset="0%"></stop>
            <stop stop-color="#396DEC" offset="49.6779078%"></stop>
            <stop stop-color="#5CEDFA" offset="100%"></stop>
        </linearGradient>
        <linearGradient x1="50%" y1="0%" x2="59.6579803%" y2="62.546017%" id="linearGradient-8">
            <stop stop-color="#FFFFFF" offset="0%"></stop>
            <stop stop-color="#FFFFFF" stop-opacity="0" offset="100%"></stop>
        </linearGradient>
        <path d="M18.6703065,1.1459783 L29.003771,3.45355736 C30.1501834,3.91295734 30.8564026,5.00293656 30.8564026,6.31291039 L30.8564026,18.4384239 C30.8564026,23.4017329 28.1806362,28.4445262 23.8370388,31.6672324 L18.2071487,35.8442958 C17.3473393,36.4822261 16.2880106,36.6629559 15.4282013,36.3184059 L9.79831117,34.0623492 C5.45471373,32.3217465 2.77894737,28.1919666 2.77894737,23.2286577 L2.77894737,11.1031441 C2.77894737,9.79317028 3.48516654,8.46221803 4.63157895,7.61164418 L14.9650434,1.77812521 C16.1114558,0.927551363 17.5238941,0.686578322 18.6703065,1.1459783 Z M23.9837217,12.4824619 C23.6230066,12.1685153 23.0381731,12.2399083 22.6774608,12.6419238 L22.6774608,12.6419238 L17.6711371,18.2214683 C17.3104207,18.6234802 16.7255873,18.6948687 16.36488,18.3809133 L16.36488,18.3809133 L15.4360359,17.5724766 C15.0753216,17.2585292 14.4904881,17.329921 14.1297775,17.7319379 L14.1297775,17.7319379 L12.1703842,19.9156687 C11.8096699,20.3176824 11.8096699,20.8980837 12.1703842,21.2120311 L12.1703842,21.2120311 L16.3648763,24.8627044 C16.7255906,25.1766518 17.3104241,25.10526 17.6711385,24.7032463 L17.6711385,24.7032463 L25.9431149,15.4841835 C26.3038293,15.0821698 26.3038293,14.5017686 25.9431149,14.1878211 L25.9431149,14.1878211 Z" id="path-9"></path>
        <filter x="-60.5%" y="-36.5%" width="221.1%" height="195.6%" filterUnits="objectBoundingBox" id="filter-10">
            <feOffset dx="0" dy="4" in="SourceAlpha" result="shadowOffsetOuter1"></feOffset>
            <feGaussianBlur stdDeviation="5" in="shadowOffsetOuter1" result="shadowBlurOuter1"></feGaussianBlur>
            <feComposite in="shadowBlurOuter1" in2="SourceAlpha" operator="out" result="shadowBlurOuter1"></feComposite>
            <feColorMatrix values="0 0 0 0 0.14059037   0 0 0 0 0.424655914   0 0 0 0 0.976076305  0 0 0 0.640816215 0" type="matrix" in="shadowBlurOuter1"></feColorMatrix>
        </filter>
    </defs>
    <g id="页面-1" stroke="none" stroke-width="1" fill="none" fill-rule="evenodd">
        <g id="民联新经济大屏" transform="translate(-216.000000, -117.000000)">
            <g id="ic_top_2" transform="translate(216.000000, 117.000000)">
                <rect id="矩形" x="0" y="0" width="88" height="88"></rect>
                <g id="编组-15" transform="translate(16.673684, 0.916667)">
                    <ellipse id="椭圆形" stroke-opacity="0.188619974" stroke="#7DC1F5" stroke-width="0.5" cx="35.6631579" cy="35.2916667" rx="30.7815789" ry="30.4583333"></ellipse>
                    <path d="M6.04146547,44.470239 C9.98510671,56.9464559 21.7557187,66 35.6631579,66 C36.91023,66 38.1401206,65.927204 39.3487274,65.7856719" id="路径" stroke="url(#linearGradient-1)" stroke-width="0.5"></path>
                    <path d="M29.4794628,3.51767467 C33.4341945,15.9984558 45.2121496,25.0633694 59.1184883,25.0759606 C60.3654617,25.0770754 61.5951885,25.0053859 62.8035702,24.8649356" id="路径备份-4" stroke="url(#linearGradient-2)" stroke-width="0.5" transform="translate(46.141517, 14.296818) rotate(175.000000) translate(-46.141517, -14.296818) "></path>
                    <path d="M58.7594975,13.4339839 C52.9413305,7.41519305 44.7446098,3.66666667 35.6631579,3.66666667 C18.0133,3.66666667 3.70526316,17.8256615 3.70526316,35.2916667 C3.70526316,52.7576719 18.0133,66.9166667 35.6631579,66.9166667 C53.3130158,66.9166667 67.6210526,52.7576719 67.6210526,35.2916667 C67.6210526,32.7988587 67.3295983,30.3734144 66.7785714,28.0468835" id="路径" stroke-opacity="0.188619974" stroke="#7DC1F5" stroke-width="0.5"></path>
                    <ellipse id="椭圆形备份" fill-opacity="0.06" fill="#B6DFFF" cx="35.6631579" cy="35.2916667" rx="29.1789474" ry="28.875"></ellipse>
                    <ellipse id="椭圆形" fill="#246CF9" filter="url(#filter-3)" cx="19.4526316" cy="58.6666667" rx="7.41052632" ry="7.33333333"></ellipse>
                    <use id="椭圆形备份-2" stroke-opacity="0.07" stroke="#B6DFFF" mask="url(#mask-5)" stroke-width="3.66666667" stroke-dasharray="2.75" xlink:href="#path-4"></use>
                    <g id="编组-11" transform="translate(18.845483, 17.109943)">
                        <path d="M15.8913592,0.229311636 L26.2248236,2.5368907 C27.371236,2.99629068 28.0774552,4.08626989 28.0774552,5.39624372 L28.0774552,17.5217573 C28.0774552,22.4850662 25.4016888,27.5278595 21.0580914,30.7505657 L15.4282013,34.9276291 C14.568392,35.5655595 13.5090632,35.7462893 12.6492539,35.4017393 L7.0193638,33.1456826 C2.67576636,31.4050798 0,27.2752999 0,22.311991 L0,10.1864774 C0,8.87650362 0.706219168,7.54555136 1.85263158,6.69497751 L12.186096,0.861458545 C13.3325084,0.0108846961 14.7449468,-0.230088344 15.8913592,0.229311636 Z M21.2047743,11.5657953 C20.8440592,11.2518486 20.2592257,11.3232416 19.8985135,11.7252571 L19.8985135,11.7252571 L14.8921898,17.3048016 C14.5314734,17.7068135 13.9466399,17.778202 13.5859326,17.4642467 L13.5859326,17.4642467 L12.6570885,16.65581 C12.2963742,16.3418625 11.7115407,16.4132543 11.3508301,16.8152713 L11.3508301,16.8152713 L9.39143685,18.999002 C9.03072251,19.4010158 9.03072251,19.981417 9.39143685,20.2953645 L9.39143685,20.2953645 L13.5859289,23.9460377 C13.9466433,24.2599852 14.5314768,24.1885934 14.8921911,23.7865796 L14.8921911,23.7865796 L23.1641675,14.5675169 C23.5248819,14.1655031 23.5248819,13.5851019 23.1641675,13.2711544 L23.1641675,13.2711544 Z" id="形状结合备份-10" fill="url(#linearGradient-6)"></path>
                        <g id="形状结合备份-9">
                            <use fill="black" fill-opacity="1" filter="url(#filter-10)" xlink:href="#path-9"></use>
                            <path stroke="url(#linearGradient-8)" stroke-width="0.5" d="M18.4023727,1.31450784 L18.5956627,1.38546716 L28.9291232,3.69304533 C29.4443742,3.90377169 29.8613281,4.25439247 30.1501813,4.70020882 C30.4082981,5.09858642 30.5640049,5.57228923 30.5988985,6.08894908 L30.6064026,6.31291039 L30.6064026,18.4384239 C30.6064026,23.2087665 28.092992,28.0505307 23.9981404,31.2310608 L23.6880759,31.4664587 L18.0581858,35.6435221 C17.3305406,36.1833941 16.4453017,36.3743919 15.6924481,36.1464226 L15.5211946,36.0863451 L9.89130453,33.8302884 C7.76900822,32.979824 6.05389902,31.5459411 4.86959034,29.7180781 C3.75238986,27.9937901 3.10768924,25.9196939 3.03570786,23.6554022 L3.02894737,23.2286577 L3.02894737,11.1031441 C3.02894737,9.94402809 3.61890432,8.77037954 4.58310248,7.96765981 L4.7682226,7.8215908 L15.1016873,1.98807166 C16.1167425,1.22953922 17.3585636,0.973497068 18.4023727,1.31450784 Z M23.4615434,12.0441886 L23.3312331,12.0528052 C23.0585553,12.0860924 22.7668889,12.2183295 22.4993728,12.4660609 L22.4993728,12.4660609 L17.4850607,18.0545086 L17.405212,18.1327436 C17.2937393,18.2286086 17.1635934,18.2904074 17.0310698,18.3148722 C16.8711476,18.344395 16.7105055,18.3112861 16.517526,18.1823408 L16.517526,18.1823408 L15.6001668,17.3839003 L15.4877265,17.2987913 C15.2927207,17.1712014 15.0617923,17.114846 14.8264988,17.1288531 C14.5593562,17.1447562 14.2827299,17.2463859 13.9511689,17.5566553 L13.9511689,17.5566553 L11.9843082,19.7487085 L11.8894835,19.8669686 C11.744732,20.0697705 11.6662951,20.2989713 11.6521832,20.5229202 C11.6345104,20.8033768 11.7087073,21.0803513 11.9955752,21.3913138 L11.9955752,21.3913138 L16.2007474,25.0512825 L16.3131867,25.1363907 C16.508191,25.2639793 16.739119,25.3203349 16.9744126,25.3063283 C17.2415555,25.2904257 17.5181827,25.1887968 17.8497463,24.8785297 L17.8497463,24.8785297 L26.129191,15.6511437 L26.2240156,15.5328837 C26.3687672,15.3300818 26.447204,15.1008809 26.461316,14.876932 C26.4789887,14.5964754 26.4047919,14.3195009 26.117924,14.0085385 L26.117924,14.0085385 L24.1478507,12.2938839 L24.0486973,12.2175999 C23.843013,12.078495 23.5946045,12.0206541 23.3312331,12.0528052 Z" stroke-linejoin="square" fill="url(#linearGradient-7)" fill-rule="evenodd"></path>
                        </g>
                        <path d="M22.1076359,3.14784117 L22.3009259,3.21880049 L32.6343864,5.52637866 C33.1496374,5.73710502 33.5665912,6.08772581 33.8554445,6.53354215 C34.1135612,6.93191975 34.2692681,7.40562256 34.3041617,7.92228242 L34.3116657,8.14624372 L34.3116657,20.2717573 C34.3116657,25.0420998 31.7982551,29.883864 27.7034036,33.0643941 L27.3933391,33.299792 L21.763449,37.4768554 C21.0358037,38.0167275 20.1505648,38.2077253 19.3977112,37.9797559 L19.2264578,37.9196784 L13.5965677,35.6636217 C11.4742714,34.8131574 9.75916218,33.3792744 8.57485349,31.5514115 C7.45765302,29.8271234 6.8129524,27.7530273 6.74097102,25.4887356 L6.73421053,25.061991 L6.73421053,12.9364774 C6.73421053,11.7773614 7.32416748,10.6037129 8.28836563,9.80099315 L8.47348576,9.65492413 L18.8069505,3.821405 C19.8220057,3.06287255 21.0638268,2.8068304 22.1076359,3.14784117 Z M27.1668065,13.8775219 L27.0364962,13.8861385 C26.7638184,13.9194257 26.4721521,14.0516629 26.204636,14.2993942 L26.204636,14.2993942 L21.1903238,19.8878419 L21.1104751,19.9660769 C20.9990024,20.0619419 20.8688565,20.1237408 20.736333,20.1482055 C20.5764108,20.1777283 20.4157686,20.1446194 20.2227891,20.0156742 L20.2227891,20.0156742 L19.30543,19.2172336 L19.1929897,19.1321246 C18.9979839,19.0045348 18.7670555,18.9481793 18.5317619,18.9621864 C18.2646194,18.9780896 17.9879931,19.0797192 17.6564321,19.3899886 L17.6564321,19.3899886 L15.6895713,21.5820418 L15.5947467,21.7003019 C15.4499951,21.9031038 15.3715583,22.1323046 15.3574463,22.3562536 C15.3397736,22.6367101 15.4139704,22.9136847 15.7008384,23.2246472 L15.7008384,23.2246472 L19.9060106,26.8846159 L20.0184499,26.969724 C20.2134542,27.0973126 20.4443822,27.1536683 20.6796757,27.1396616 C20.9468187,27.1237591 21.2234458,27.0221301 21.5550095,26.7118631 L21.5550095,26.7118631 L29.8344541,17.4844771 L29.9292787,17.366217 C30.0740303,17.1634151 30.1524672,16.9342143 30.1665791,16.7102653 C30.1842518,16.4298088 30.110055,16.1528343 29.8231871,15.8418718 L29.8231871,15.8418718 L27.8531138,14.1272173 L27.7539605,14.0509332 C27.5482761,13.9118284 27.2998677,13.8539875 27.0364962,13.8861385 Z" id="形状结合备份-12" stroke-opacity="0.2" stroke="#FFFFFF" stroke-width="0.5" fill-opacity="0.18673514" fill="#246CF9"></path>
                        <line x1="16.4444186" y1="1.47490623" x2="20.5448643" y2="3.0690521" id="路径-12备份" stroke-opacity="0.5" stroke="#FFFFFF" stroke-width="0.5"></line>
                        <line x1="12.9386557" y1="3.43095359" x2="17.0391014" y2="5.02509946" id="路径-12备份-8" stroke-opacity="0.5" stroke="#FFFFFF" stroke-width="0.5"></line>
                        <line x1="11.0860242" y1="4.34762026" x2="15.1864698" y2="5.94176612" id="路径-12备份-9" stroke-opacity="0.5" stroke="#FFFFFF" stroke-width="0.5"></line>
                        <line x1="3.67549784" y1="8.93095359" x2="7.77594347" y2="10.5250995" id="路径-12备份-10" stroke-opacity="0.5" stroke="#FFFFFF" stroke-width="0.5"></line>
                        <line x1="3.13416965" y1="10.2621533" x2="7.23461528" y2="11.8562992" id="路径-12备份-11" stroke-opacity="0.5" stroke="#FFFFFF" stroke-width="0.5"></line>
                        <line x1="2.89251886" y1="25.4838445" x2="6.99296449" y2="27.0779903" id="路径-12备份-12" stroke-opacity="0.5" stroke="#FFFFFF" stroke-width="0.5" opacity="0.8"></line>
                        <line x1="3.67549784" y1="27.9089749" x2="7.77594347" y2="29.5031207" id="路径-12备份-13" stroke-opacity="0.5" stroke="#FFFFFF" stroke-width="0.5" opacity="0.8"></line>
                    </g>
                </g>
            </g>
        </g>
    </g>
</svg>