<?xml version="1.0" encoding="UTF-8"?>
<svg width="56px" height="56px" viewBox="0 0 56 56" version="1.1" xmlns="http://www.w3.org/2000/svg" xmlns:xlink="http://www.w3.org/1999/xlink">
    <title>切片</title>
    <defs>
        <filter x="-70.0%" y="-70.0%" width="240.0%" height="240.0%" filterUnits="objectBoundingBox" id="filter-1">
            <feGaussianBlur stdDeviation="6.53333333" in="SourceGraphic"></feGaussianBlur>
        </filter>
    </defs>
    <g id="页面-1" stroke="none" stroke-width="1" fill="none" fill-rule="evenodd">
        <g id="民联新经济大屏" transform="translate(-1195.000000, -532.000000)">
            <g id="icon_top_3备份-9" transform="translate(1195.000000, 532.000000)">
                <g id="编组-9">
                    <circle id="椭圆形" stroke-opacity="0.572579764" stroke="#246CF9" stroke-width="1.30666667" cx="28" cy="28" r="27.3466667"></circle>
                    <g id="编组-14" transform="translate(7.000000, 7.000000)">
                        <path d="M26.7997599,41.2222222 C35.5769499,38.7033519 42,30.6108778 42,21.0170052 C42,9.40963374 32.5979797,0 21,0 C9.40202025,0 0,9.40963374 0,21.0170052 C0,30.5752247 6.37539962,38.643184 15.1024834,41.1939093" id="路径" stroke-opacity="0.913734703" stroke="#246CF9" stroke-width="2.61333333" stroke-linecap="round"></path>
                        <circle id="椭圆形" fill="#FFB545" cx="21.1944444" cy="42.1944444" r="1.75"></circle>
                        <circle id="椭圆形" fill="#1542A9" opacity="0.57124256" filter="url(#filter-1)" cx="21" cy="21" r="14"></circle>
                    </g>
                </g>
                <path d="M21.4055856,18.9018159 C21.8841248,18.9018159 22.2732399,19.287482 22.2732399,19.7647438 L22.2732399,19.7647438 L22.2732399,20.8735338 C22.2732399,21.3507956 22.6599382,21.7388721 23.1384774,21.7388721 L23.1384774,21.7388721 L32.8953587,21.7388721 C33.3738979,21.7388721 33.763013,21.3507956 33.763013,20.8735338 L33.763013,20.8735338 L33.763013,19.7647438 C33.763013,19.2898924 34.1497113,18.9018159 34.6282505,18.9018159 L34.6282505,18.9018159 L36.1299288,18.9018159 C36.608468,18.9018159 36.9975831,19.287482 36.9975831,19.7647438 L36.9975831,19.7647438 L36.9975831,26.8489478 L37,30.0837222 L37,36.1362694 C37,36.6111208 36.6108848,36.9991973 36.1323457,36.9991973 L36.1323457,36.9991973 L20.0284144,36.9991973 C19.4604368,36.9991973 19,36.5387605 19,35.9707829 L19,35.9707829 L19,19.7647438 C19,19.2898924 19.3866983,18.9018159 19.8652374,18.9018159 L19.8652374,18.9018159 Z M31.2,29.5608245 L24.8,29.5608245 C24.3581722,29.5608245 24,29.9230797 24,30.3699442 C24,30.8168087 24.3581722,31.179064 24.8,31.179064 L24.8,31.179064 L29.3328,31.1796642 L28.6406346,31.5994212 C28.2855046,31.8149282 28.1676385,32.2791346 28.3761586,32.6410389 L28.3761586,32.6410389 L28.3927377,32.6683987 C28.6063994,33.0040361 29.0486274,33.1009424 29.3804818,32.8848451 L29.3804818,32.8848451 L31.3273586,31.6170754 C31.7466244,31.3440575 32,30.8742786 32,30.3699442 C32,29.9230797 31.6418278,29.5608245 31.2,29.5608245 L31.2,29.5608245 Z M27.6072623,25.3316013 C27.3936006,24.9959639 26.9513726,24.8990576 26.6195182,25.1151549 L26.6195182,25.1151549 L24.6726414,26.3829246 C24.2533756,26.6559425 24,27.1257214 24,27.6300558 C24,28.0769203 24.3581722,28.4391755 24.8,28.4391755 L24.8,28.4391755 L31.2,28.4391755 C31.6418278,28.4391755 32,28.0769203 32,27.6300558 C32,27.1831913 31.6418278,26.820936 31.2,26.820936 L31.2,26.820936 L26.6672,26.8203358 L27.3593654,26.4005788 C27.7144954,26.1850718 27.8323615,25.7208654 27.6238414,25.3589611 L27.6238414,25.3589611 Z M31.2268457,17 C31.6371796,17 31.9708349,17.337967 31.9708349,17.7562012 L31.9708349,17.7562012 L31.9708349,19.5769984 C31.9708349,19.9931203 31.6371796,20.3331995 31.2268457,20.3331995 L31.2268457,20.3331995 L24.5309431,20.3331995 C24.1206092,20.3331995 23.7869539,19.9952325 23.7890167,19.5769984 L23.7890167,19.5769984 L23.7890167,17.7562012 C23.7890167,17.3400793 24.1206092,17 24.5309431,17 L24.5309431,17 Z" id="形状结合" fill="#39B2F5"></path>
            </g>
        </g>
    </g>
</svg>