<?xml version="1.0" encoding="UTF-8"?>
<svg width="56px" height="56px" viewBox="0 0 56 56" version="1.1" xmlns="http://www.w3.org/2000/svg" xmlns:xlink="http://www.w3.org/1999/xlink">
    <title>切片</title>
    <defs>
        <filter x="-70.0%" y="-70.0%" width="240.0%" height="240.0%" filterUnits="objectBoundingBox" id="filter-1">
            <feGaussianBlur stdDeviation="6.53333333" in="SourceGraphic"></feGaussianBlur>
        </filter>
    </defs>
    <g id="页面-1" stroke="none" stroke-width="1" fill="none" fill-rule="evenodd">
        <g id="民联新经济大屏" transform="translate(-89.000000, -553.000000)">
            <g id="编组-4备份-2" transform="translate(69.000000, 357.000000)">
                <g id="编组-9" transform="translate(20.000000, 196.000000)">
                    <circle id="椭圆形" stroke-opacity="0.572579764" stroke="#246CF9" stroke-width="1.30666667" cx="28" cy="28" r="27.3466667"></circle>
                    <g id="编组-14" transform="translate(7.000000, 7.000000)">
                        <path d="M26.7997599,41.2222222 C35.5769499,38.7033519 42,30.6108778 42,21.0170052 C42,9.40963374 32.5979797,0 21,0 C9.40202025,0 0,9.40963374 0,21.0170052 C0,30.5752247 6.37539962,38.643184 15.1024834,41.1939093" id="路径" stroke-opacity="0.913734703" stroke="#246CF9" stroke-width="2.61333333" stroke-linecap="round"></path>
                        <circle id="椭圆形" fill="#FFB545" cx="21.1944444" cy="42.1944444" r="1.75"></circle>
                        <circle id="椭圆形" fill="#1542A9" opacity="0.57124256" filter="url(#filter-1)" cx="21" cy="21" r="14"></circle>
                        <g id="编组" transform="translate(11.666667, 11.666667)" fill="#39B2F5" fill-rule="nonzero">
                            <path d="M16.3333333,6.22222222 L16.4749206,6.22857927 C17.2676763,6.30010715 17.8888889,6.96639648 17.8888889,7.77777778 L17.8888889,7.77777778 L17.8890296,15.1505755 C18.360731,15.4988063 18.6666667,16.058662 18.6666667,16.6899729 L18.6666667,17.1111111 L0,17.1111111 L0,16.6899729 C-7.72582943e-17,16.0591111 0.305500628,15.4996027 0.776630829,15.1513189 L0.777777778,7.77777778 C0.777777778,6.96639648 1.39899036,6.30010715 2.19174607,6.22857927 L2.33333333,6.22222222 L2.333,14.777 L16.333,14.777 L16.3333333,6.22222222 Z M13.1610588,0 C14.0542637,0 14.7777778,0.734862249 14.7777778,1.64207698 L14.7777778,14.7777778 L3.88888889,14.7756424 L3.88888889,1.64207698 C3.88888889,0.734862232 4.61210261,0 5.50530758,0 L13.1610588,0 Z M8.03703704,6.31944444 L7.51851852,6.31944444 C7.23212076,6.31944444 7,6.5285394 7,6.78652722 L7,8.18569501 C7,8.44333607 7.23212076,8.65277778 7.51851852,8.65277778 L8.03703704,8.65277778 C8.32304986,8.65277778 8.55555556,8.44333605 8.55555556,8.18569501 L8.55555556,6.78652722 C8.55555556,6.5285394 8.32304984,6.31944444 8.03703704,6.31944444 Z M11.1481481,6.31944444 L10.6296296,6.31944444 C10.3432319,6.31944444 10.1111111,6.5285394 10.1111111,6.78652722 L10.1111111,8.18569501 C10.1111111,8.44333607 10.3432319,8.65277778 10.6296296,8.65277778 L11.1481481,8.65277778 C11.434161,8.65277778 11.6666667,8.44333605 11.6666667,8.18569501 L11.6666667,6.78652722 C11.6666667,6.5285394 11.434161,6.31944444 11.1481481,6.31944444 Z M8.03703704,3.20833333 L7.51851852,3.20833333 C7.23212076,3.20833333 7,3.41739722 7,3.6753467 L7,5.0746533 C7,5.33225608 7.23212076,5.54166667 7.51851852,5.54166667 L8.03703704,5.54166667 C8.32304986,5.54166667 8.55555556,5.33225606 8.55555556,5.0746533 L8.55555556,3.6753467 C8.55555556,3.41739722 8.32304984,3.20833333 8.03703704,3.20833333 Z M11.1481481,3.20833333 L10.6296296,3.20833333 C10.3432319,3.20833333 10.1111111,3.41739722 10.1111111,3.6753467 L10.1111111,5.0746533 C10.1111111,5.33225608 10.3432319,5.54166667 10.6296296,5.54166667 L11.1481481,5.54166667 C11.434161,5.54166667 11.6666667,5.33225606 11.6666667,5.0746533 L11.6666667,3.6753467 C11.6666667,3.41739722 11.434161,3.20833333 11.1481481,3.20833333 Z" id="形状结合"></path>
                        </g>
                    </g>
                </g>
            </g>
        </g>
    </g>
</svg>