<?xml version="1.0" encoding="UTF-8"?>
<svg width="56px" height="56px" viewBox="0 0 56 56" version="1.1" xmlns="http://www.w3.org/2000/svg" xmlns:xlink="http://www.w3.org/1999/xlink">
    <title>切片</title>
    <defs>
        <filter x="-70.0%" y="-70.0%" width="240.0%" height="240.0%" filterUnits="objectBoundingBox" id="filter-1">
            <feGaussianBlur stdDeviation="6.53333333" in="SourceGraphic"></feGaussianBlur>
        </filter>
    </defs>
    <g id="页面-1" stroke="none" stroke-width="1" fill="none" fill-rule="evenodd">
        <g id="民联新经济大屏" transform="translate(-89.000000, -455.000000)">
            <g id="编组-4备份-2" transform="translate(69.000000, 357.000000)">
                <g id="icon_top_3备份" transform="translate(20.000000, 98.000000)">
                    <g id="编组-9">
                        <circle id="椭圆形" stroke-opacity="0.572579764" stroke="#246CF9" stroke-width="1.30666667" cx="28" cy="28" r="27.3466667"></circle>
                        <g id="编组-14" transform="translate(7.000000, 7.000000)">
                            <path d="M26.7997599,41.2222222 C35.5769499,38.7033519 42,30.6108778 42,21.0170052 C42,9.40963374 32.5979797,0 21,0 C9.40202025,0 0,9.40963374 0,21.0170052 C0,30.5752247 6.37539962,38.643184 15.1024834,41.1939093" id="路径" stroke-opacity="0.913734703" stroke="#246CF9" stroke-width="2.61333333" stroke-linecap="round"></path>
                            <circle id="椭圆形" fill="#FFB545" cx="21.1944444" cy="42.1944444" r="1.75"></circle>
                            <circle id="椭圆形" fill="#1542A9" opacity="0.57124256" filter="url(#filter-1)" cx="21" cy="21" r="14"></circle>
                        </g>
                    </g>
                    <g id="编组" transform="translate(18.000000, 20.000000)" fill="#39B2F5" fill-rule="nonzero">
                        <path d="M0,1.21391605 C0.920778775,1.52455739 1.83301152,1.8649526 2.76537765,2.1341023 C3.28947811,2.28487344 3.81023806,2.14929771 4.28314731,1.84739145 C5.24548785,1.23329701 6.23915705,0.677800413 7.31471413,0.28681453 C8.23796156,-0.0489401686 9.11408056,0.0350440102 9.93422329,0.591541483 C10.0375085,0.661695107 10.1258969,0.75477832 10.2398357,0.853684912 C9.77613545,1.11282566 9.33536742,1.34976475 8.9043501,1.60381004 C8.38521526,1.90935591 7.86626101,2.21562971 7.3625648,2.54528806 C6.44166476,3.14891858 6.08368743,4.1903951 6.43796312,5.18055299 C6.76786202,6.1038329 7.7639689,6.77097476 8.64216444,6.62739188 C8.93396334,6.57889397 9.22413716,6.47753064 9.49760834,6.3578782 C10.1993883,6.05114944 10.8900634,5.72012626 11.5860652,5.39965796 C12.2595862,5.08928959 12.794611,5.18928807 13.3237674,5.72121815 C14.6764973,7.08216207 16.0284147,8.44401589 17.3827697,9.80423187 C17.7917577,10.2153267 17.8164053,10.8243256 17.4341415,11.2189511 C17.045919,11.619855 16.4417363,11.5991092 16.0150526,11.1731829 C15.5779862,10.7360649 15.1421838,10.297582 14.6959988,9.87019992 C14.6073396,9.78348603 14.5111868,9.59404394 14.3552657,9.73762688 C14.3224925,9.76920056 14.4049221,9.98575779 14.4834695,10.0721077 C14.8925477,10.525786 15.3157103,10.9662707 15.7372478,11.4085752 C16.242208,11.9372296 16.137117,12.7283004 15.5193917,13.0292058 C15.1268355,13.2211046 14.6891372,13.1168296 14.3472304,12.7719758 C13.8094013,12.2324704 13.267772,11.6968265 12.7223836,11.1650848 C12.6525035,11.096114 12.5558993,11.0528026 12.4457524,10.9799193 C12.397992,11.2253205 12.5321545,11.3407873 12.6357106,11.4547983 C13.0386495,11.8945551 13.4499849,12.3264867 13.860598,12.7589642 C14.0456808,12.9525918 14.1725303,13.1677842 14.1800239,13.4444861 C14.190226,13.8623142 13.9731825,14.2149021 13.6035585,14.3743174 C13.2277049,14.5369173 12.8153764,14.4430152 12.5220427,14.1380152 C12.0563419,13.6584176 11.5888161,13.1806233 11.1194758,12.7046429 C11.0439981,12.6286659 10.9647285,12.5524159 10.8746247,12.4963658 C10.8248781,12.4651561 10.7507547,12.475711 10.6875556,12.4674309 C10.6884585,12.532762 10.6691376,12.60883 10.6950492,12.6620594 C10.7352257,12.7444057 10.801675,12.8157422 10.8656866,12.8837121 C11.2298935,13.2696025 11.6058374,13.6469398 11.9633633,14.0411104 C12.2719194,14.3775242 12.3001017,14.8873216 12.0305349,15.2561966 C11.7033445,15.7057804 11.0667498,15.7880357 10.646386,15.4205254 C10.458414,15.2552867 10.2910269,15.0646618 10.1237301,14.8768575 C10.0897832,14.8384596 10.085269,14.7595709 10.0908666,14.7025199 C10.1911724,13.6448471 9.65921725,12.7580543 8.69470991,12.361063 C8.61688484,12.3299443 8.53824718,12.2398638 8.5099882,12.1580634 C8.28373571,11.5084827 7.86725415,11.0466152 7.23436107,10.7781935 C7.15671655,10.744982 7.07889148,10.6559933 7.04783367,10.5759217 C6.81634467,9.97038041 6.41205151,9.54336229 5.816807,9.29259265 C5.73771794,9.25929015 5.65194783,9.17485104 5.62386942,9.09459747 C5.21551345,7.94748109 4.07134031,7.44767064 2.92075697,7.72364462 C2.11307347,7.91727226 1.55258844,8.41307915 1.2327111,9.18549692 C1.22425262,9.20522973 1.21429161,9.22427326 1.20291727,9.24245694 C1.19515281,9.25410372 1.18467985,9.26447663 1.16445616,9.28622333 C0.78038667,9.15192145 0.389997292,9.01561779 0,8.87831322 C0,6.32321087 0,3.76838147 0,1.21391605 L0,1.21391605 Z M19.6986528,9.07476155 C19.1582109,9.15592501 18.6905381,8.9696676 18.2959053,8.57513309 C16.8167774,7.09635658 15.3295238,5.62613316 13.8503055,4.14790256 C13.4000577,3.69795488 12.8710818,3.59113209 12.3154722,3.85063681 C11.4674316,4.24762807 10.6424135,4.69684784 9.80800582,5.12541278 C9.55331377,5.25580208 9.30196223,5.39410752 9.04663817,5.52349595 C8.42665577,5.83768591 7.69688764,5.60229367 7.37105154,4.98565148 C7.05279932,4.38456868 7.26758571,3.6387201 7.86355248,3.29978073 C9.60694265,2.30762104 11.3518676,1.31855504 13.0962509,0.328488131 C13.1025708,0.324757514 13.1086199,0.32175483 13.1146689,0.317569279 C13.860598,-0.173233118 14.559218,-0.0784210956 15.2211826,0.486629522 C15.9636808,1.1211058 16.709339,1.75203349 17.4501218,2.38851155 C17.8136065,2.70142764 18.2245807,2.80215405 18.6873781,2.70060873 C19.7285369,2.47231374 19.4350983,2.47348013 20.4756251,2.24536713 C20.5373795,2.23180955 20.6022037,2.23135462 20.6666667,2.22443933 L20.6666667,8.89294622 C19.8990694,9.03379941 20.4690488,8.96011363 19.6986528,9.07476155 Z M6.53998438,14.19725 C6.32185748,14.2555749 6.13867058,14.3171754 5.95169177,14.3511148 C5.65005186,14.4075289 5.34859252,14.4168099 5.09597702,14.1963401 C4.81618592,13.9514848 4.71199781,13.6484867 4.82810345,13.2831601 C4.88398944,13.1084584 4.94321596,12.9335748 5.01101947,12.7273905 C4.78774636,12.7848965 4.59796872,12.8401277 4.40566312,12.8794355 C3.71480752,13.0228364 3.18547058,12.4223906 3.40775058,11.7501533 C3.45957376,11.5929218 3.51663346,11.438875 3.58561069,11.2411528 C3.44982308,11.2753652 3.34175276,11.2940182 3.23991202,11.3303234 C2.2607786,11.67636 1.76918049,10.8559903 1.93358824,10.1313425 C2.09600973,9.41424687 2.68683029,8.79269122 3.36414325,8.69505847 C4.1507905,8.58141143 4.79180916,9.2339948 4.66622366,10.0209711 C4.65746609,10.0771122 4.64807652,10.1334353 4.63390189,10.221878 C5.07006541,10.1605504 5.47508088,10.1948538 5.79631248,10.5175969 C6.12368342,10.8463453 6.14101801,11.2558022 6.06743628,11.705022 C6.53221995,11.6615286 6.96088989,11.6938302 7.27769755,12.0715315 C7.58872701,12.4433184 7.59956113,12.8682437 7.46756547,13.3239238 C7.63856395,13.3074546 7.78590796,13.2770637 7.93243941,13.2812493 C8.71348904,13.3019041 9.21781724,14.0140862 9.01106616,14.7957851 C8.79104329,15.6266187 7.62411847,16.2270646 6.83042905,15.9171512 C6.36844419,15.7367171 6.14986586,15.2947766 6.29964754,14.814802 C6.36158259,14.6167159 6.44970007,14.4273648 6.53998438,14.197432 L6.53998438,14.19725 L6.53998438,14.19725 Z" id="形状"></path>
                    </g>
                </g>
            </g>
        </g>
    </g>
</svg>