<?xml version="1.0" encoding="UTF-8"?>
<svg width="56px" height="56px" viewBox="0 0 56 56" version="1.1" xmlns="http://www.w3.org/2000/svg" xmlns:xlink="http://www.w3.org/1999/xlink">
    <title>切片</title>
    <defs>
        <filter x="-70.0%" y="-70.0%" width="240.0%" height="240.0%" filterUnits="objectBoundingBox" id="filter-1">
            <feGaussianBlur stdDeviation="6.53333333" in="SourceGraphic"></feGaussianBlur>
        </filter>
    </defs>
    <g id="页面-1" stroke="none" stroke-width="1" fill="none" fill-rule="evenodd">
        <g id="民联新经济大屏" transform="translate(-458.000000, -357.000000)">
            <g id="编组-4备份-2" transform="translate(69.000000, 357.000000)">
                <g id="icon_top_3备份-3" transform="translate(389.000000, 0.000000)">
                    <g id="编组-9">
                        <circle id="椭圆形" stroke-opacity="0.572579764" stroke="#246CF9" stroke-width="1.30666667" cx="28" cy="28" r="27.3466667"></circle>
                        <g id="编组-14" transform="translate(7.000000, 7.000000)">
                            <path d="M26.7997599,41.2222222 C35.5769499,38.7033519 42,30.6108778 42,21.0170052 C42,9.40963374 32.5979797,0 21,0 C9.40202025,0 0,9.40963374 0,21.0170052 C0,30.5752247 6.37539962,38.643184 15.1024834,41.1939093" id="路径" stroke-opacity="0.913734703" stroke="#246CF9" stroke-width="2.61333333" stroke-linecap="round"></path>
                            <circle id="椭圆形" fill="#FFB545" cx="21.1944444" cy="42.1944444" r="1.75"></circle>
                            <circle id="椭圆形" fill="#1542A9" opacity="0.57124256" filter="url(#filter-1)" cx="21" cy="21" r="14"></circle>
                        </g>
                    </g>
                    <g id="编组" transform="translate(19.000000, 17.000000)" fill="#39B2F5" fill-rule="nonzero">
                        <path d="M5.69597615,4.99941886 L12.7444113,4.97929885 C13.0707899,4.9412944 14.2690015,3.55972076 14.5461997,2.10213821 C14.8122206,0.72280012 14.0119225,0.284631132 12.0089419,0.284631132 C9.99925484,0.284631132 10.4150522,2.22062268 10.0104322,2.22062268 C9.7757079,2.22062268 9.5633383,0.7339779 8.64679583,0.103551092 C7.99403875,-0.345795676 7.08867362,0.812222362 6.22131148,0.821164586 C5.21087928,0.83010681 3.89195231,0.702680115 3.89195231,2.18038267 C3.89195231,3.40099628 5.34947839,4.99941886 5.69597615,4.99941886 L5.69597615,4.99941886 Z M5.34053651,4.99941886 C5.07898659,4.99941886 4.86438152,5.11343222 4.86438152,5.24980114 C4.86438152,5.38840561 5.07675112,5.50018341 5.34053651,5.50018341 L12.6594635,5.50018341 C12.9232489,5.50018341 13.1356185,5.38840561 13.1356185,5.24980114 C13.1356185,5.11343222 12.9232489,4.99941886 12.6594635,4.99941886 L5.34053651,4.99941886 Z M13.209389,5.99871241 L4.9538003,5.99871241 C2.2757079,7.55689499 0,10.5950157 0,14.5899543 C0,18.9939998 4.25186289,20 9.10506706,20 C13.9560358,20 18,18.9448175 18,14.5385366 C17.9977645,10.8386913 16.0350224,7.637375 13.209389,5.99871241 Z M11.0906085,11.059306 C11.4872387,11.059306 11.8067463,11.3323712 11.8067463,11.6692367 C11.8067463,12.0061022 11.4872387,12.2791674 11.0906085,12.2791674 L9.65833292,12.2791674 L9.65833292,12.8890981 L11.0906085,12.8890981 C11.4872387,12.8890981 11.8067463,13.1621633 11.8067463,13.4990288 C11.8067463,13.8358943 11.4872387,14.1089596 11.0906085,14.1089596 L9.65833292,14.1089596 L9.65833292,15.3900693 C9.65833292,15.7269348 9.33882528,16 8.94219511,16 C8.54831931,16 8.2260573,15.7269348 8.2260573,15.3900693 L8.2260573,14.1064076 L6.79378168,14.1064076 C6.39715151,14.1064076 6.07764387,13.8333423 6.07764387,13.4964768 C6.07764387,13.1596113 6.39715151,12.8865461 6.79378168,12.8865461 L8.2260573,12.8865461 L8.2260573,12.2766154 L6.79378168,12.2766154 C6.39715151,12.2766154 6.07764387,12.0035502 6.07764387,11.6666847 C6.07764387,11.3298192 6.39715151,11.056754 6.79378168,11.056754 L8.2260573,11.056754 L8.2260573,10.7020244 L6.21811705,9.048321 C5.95645132,8.84160808 5.92615318,8.47922246 6.14925765,8.23678138 C6.16578391,8.2189173 6.18231016,8.20105322 6.2015908,8.18574115 C6.48529154,7.94330007 6.92048298,7.93819605 7.21520123,8.17042908 L9.00003701,9.64038764 L10.7848728,8.17042908 C11.0768367,7.93819605 11.5120281,7.94330007 11.7984832,8.18574115 C12.0739208,8.42818223 12.0656577,8.81353595 11.781957,9.048321 L9.66384167,10.7913448 L9.66384167,11.056754 L11.0906085,11.059306 L11.0906085,11.059306 Z" id="形状"></path>
                    </g>
                </g>
            </g>
        </g>
    </g>
</svg>