<?xml version="1.0" encoding="UTF-8"?>
<svg width="56px" height="56px" viewBox="0 0 56 56" version="1.1" xmlns="http://www.w3.org/2000/svg" xmlns:xlink="http://www.w3.org/1999/xlink">
    <title>切片</title>
    <defs>
        <filter x="-70.0%" y="-70.0%" width="240.0%" height="240.0%" filterUnits="objectBoundingBox" id="filter-1">
            <feGaussianBlur stdDeviation="6.53333333" in="SourceGraphic"></feGaussianBlur>
        </filter>
    </defs>
    <g id="页面-1" stroke="none" stroke-width="1" fill="none" fill-rule="evenodd">
        <g id="民联新经济大屏" transform="translate(-1565.000000, -382.000000)">
            <g id="icon_top_3备份-10" transform="translate(1565.000000, 382.000000)">
                <g id="编组-9">
                    <circle id="椭圆形" stroke-opacity="0.572579764" stroke="#246CF9" stroke-width="1.30666667" cx="28" cy="28" r="27.3466667"></circle>
                    <g id="编组-14" transform="translate(7.000000, 7.000000)">
                        <path d="M26.7997599,41.2222222 C35.5769499,38.7033519 42,30.6108778 42,21.0170052 C42,9.40963374 32.5979797,0 21,0 C9.40202025,0 0,9.40963374 0,21.0170052 C0,30.5752247 6.37539962,38.643184 15.1024834,41.1939093" id="路径" stroke-opacity="0.913734703" stroke="#246CF9" stroke-width="2.61333333" stroke-linecap="round"></path>
                        <circle id="椭圆形" fill="#FFB545" cx="21.1944444" cy="42.1944444" r="1.75"></circle>
                        <circle id="椭圆形" fill="#1542A9" opacity="0.57124256" filter="url(#filter-1)" cx="21" cy="21" r="14"></circle>
                    </g>
                </g>
                <g id="编组" transform="translate(18.000000, 18.000000)" fill="#39B2F5" fill-rule="nonzero">
                    <path d="M19.4277108,9.99409233 C18.7541133,10.000427 15.4516472,8.1303853 15.3473475,8.03290083 C15.0965067,7.79840154 15.1912935,7.5064931 15.4472434,7.4665645 C15.7031934,7.4266359 17.1403866,7.25910347 17.1403866,7.25910347 C16.257121,4.94435566 14.2861375,3.09571398 11.6992966,2.49653349 C7.57053516,1.53986105 3.3008121,4.25353852 2.35715568,8.39515068 C2.34903232,8.4304681 2.29201916,8.85270517 1.95002574,8.83931179 C1.71851001,8.83025712 0.960066171,8.5345759 0.685860046,8.40846021 C0.372811439,8.26450766 0.288221618,8.30169051 0.383158033,7.83833014 C1.45704473,2.57318382 6.95660161,-0.975242386 12.2351176,0.238859471 C16.6157245,1.24625485 19.658799,4.9732384 19.9931393,9.21969195 C20.0491264,9.78877403 19.7536499,9.99095317 19.4276894,9.99409233 L19.4277108,9.99409233 Z M12.5332021,11.148107 C12.9668185,11.148107 13.3184317,11.4924152 13.3184317,11.917901 C13.3184317,12.3426533 12.9668185,12.687737 12.5332021,12.687737 L10.9629141,12.687737 L10.9629141,13.6499847 C10.9629141,14.1815067 10.52359,14.6122744 9.98146264,14.6122744 C9.43937806,14.6122744 9.0000326,14.1815276 9.0000326,13.6499847 L9.0000326,12.687737 L7.42974452,12.687737 C6.99612816,12.687737 6.64462186,12.3426323 6.64462186,11.917901 C6.64462186,11.4923732 6.99614954,11.148107 7.42974452,11.148107 L9.0000326,11.148107 L9.0000326,10.3782501 L7.42974452,10.3782501 C6.99612816,10.3782501 6.64462186,10.0332293 6.64462186,9.60847702 C6.64462186,9.18299117 6.99614954,8.83864108 7.42974452,8.83864108 L9.0000326,8.83864108 L9.0000326,8.78598982 L7.25761482,7.07794711 C6.94882029,6.77497184 6.94882029,6.28409112 7.25761482,5.98147217 C7.56640935,5.67885323 8.06691516,5.67887418 8.37573107,5.98147217 L9.96827287,7.54252316 L11.5669927,5.97505845 C11.8757659,5.67283774 12.3763144,5.67283774 12.6850876,5.97505845 C12.9939035,6.27801275 12.9939035,6.76895635 12.6850876,7.07153338 L10.9629782,8.76004147 L10.9629782,8.83862012 L12.5332663,8.83862012 C12.9668826,8.83862012 13.3184317,9.18297021 13.3184317,9.60845606 C13.3184317,10.0332502 12.9668826,10.3782291 12.5332663,10.3782291 L10.9629782,10.3782291 L10.9629782,11.148086 L12.5332663,11.148086 L12.5332021,11.148107 Z M4.65630146,12.2344164 C5.00073188,12.4503452 4.91772398,12.8840473 4.5392182,12.9226555 C4.16071242,12.9612636 2.97540744,13.0636107 2.97540744,13.0636107 C3.91506631,15.2227733 5.81950235,16.9251778 8.28194903,17.4954126 C12.4106891,18.4516659 16.6329974,15.8693021 17.5769103,11.72769 C17.5962781,11.6427186 17.5956582,11.6560491 17.6294342,11.4736141 C17.6632103,11.2911792 17.7179147,11.0136493 18.0813923,11.1371659 C18.4448698,11.2606826 19.3314276,11.5162256 19.6076004,11.5886211 C19.8837733,11.6610166 19.8526907,11.7677863 19.818081,12.0194098 C19.807542,12.0959344 19.7916159,12.1660033 19.774963,12.2396773 C18.5391436,17.6247142 13.1597483,20.9840612 7.75989494,19.7417264 C3.38446132,18.7354419 0.343118423,15.0167585 0.00283518535,10.7766767 C-0.0433183208,10.0480689 0.481685828,9.89935843 1.01836196,10.1777058 C1.44056286,10.3966738 4.31182828,12.0184456 4.6562587,12.2343745 L4.65630146,12.2344164 Z" id="形状"></path>
                </g>
            </g>
        </g>
    </g>
</svg>