<?xml version="1.0" encoding="UTF-8"?>
<svg width="56px" height="56px" viewBox="0 0 56 56" version="1.1" xmlns="http://www.w3.org/2000/svg" xmlns:xlink="http://www.w3.org/1999/xlink">
    <title>切片</title>
    <defs>
        <filter x="-70.0%" y="-70.0%" width="240.0%" height="240.0%" filterUnits="objectBoundingBox" id="filter-1">
            <feGaussianBlur stdDeviation="6.53333333" in="SourceGraphic"></feGaussianBlur>
        </filter>
    </defs>
    <g id="页面-1" stroke="none" stroke-width="1" fill="none" fill-rule="evenodd">
        <g id="民联新经济大屏" transform="translate(-1195.000000, -382.000000)">
            <g id="icon_top_3备份-6" transform="translate(1195.000000, 382.000000)">
                <g id="编组-9">
                    <circle id="椭圆形" stroke-opacity="0.572579764" stroke="#246CF9" stroke-width="1.30666667" cx="28" cy="28" r="27.3466667"></circle>
                    <g id="编组-14" transform="translate(7.000000, 7.000000)">
                        <path d="M26.7997599,41.2222222 C35.5769499,38.7033519 42,30.6108778 42,21.0170052 C42,9.40963374 32.5979797,0 21,0 C9.40202025,0 0,9.40963374 0,21.0170052 C0,30.5752247 6.37539962,38.643184 15.1024834,41.1939093" id="路径" stroke-opacity="0.913734703" stroke="#246CF9" stroke-width="2.61333333" stroke-linecap="round"></path>
                        <circle id="椭圆形" fill="#FFB545" cx="21.1944444" cy="42.1944444" r="1.75"></circle>
                        <circle id="椭圆形" fill="#1542A9" opacity="0.57124256" filter="url(#filter-1)" cx="21" cy="21" r="14"></circle>
                    </g>
                </g>
                <g id="编组-4" transform="translate(19.000000, 18.000000)">
                    <g id="编组" fill="#39B2F5" fill-rule="nonzero">
                        <path d="M0.0965346535,13.0494217 C0.5,14.6030494 4.34653465,15.8201893 9.02970297,15.8201893 C9.56188119,15.8201893 10.0841584,15.8044164 10.5940594,15.7728707 C10.5816832,15.6230284 10.5742574,15.4705573 10.5742574,15.3180862 C10.5742574,14.426919 10.8044554,13.5935857 11.2054455,12.8785489 C10.509901,12.9284963 9.78217822,12.9574132 9.03217822,12.9574132 C4.34653465,12.9574132 0.502475248,11.8980021 0.099009901,10.544164 L0.0643564356,10.544164 L0.0643564356,13.0494217 L0.0965346535,13.0494217 Z M18,8.76445846 L18,6.26182965 L17.9653465,6.26182965 C17.5618812,7.61303891 13.7153465,8.67507886 9.03217822,8.67507886 C4.3490099,8.67507886 0.5,7.61566772 0.0965346535,6.26182965 L0.0618811881,6.26182965 L0.0618811881,8.76445846 L0.0965346535,8.76445846 C0.5,10.3180862 4.34653465,11.5352261 9.02970297,11.5352261 C10.3316832,11.5352261 11.5668317,11.4405889 12.6831683,11.2723449 C13.3737624,10.8123028 14.1905941,10.5467928 15.0668317,10.5467928 C15.2351485,10.5467928 15.4034653,10.5573081 15.5668317,10.5757098 C16.9059406,10.0946372 17.7846535,9.4637224 17.9653465,8.76445846 L18,8.76445846 Z M17.9653465,10.5467928 C17.8910891,10.7939012 17.7029703,11.0278654 17.4183168,11.2513144 C17.6237624,11.3853838 17.8193069,11.5378549 18,11.70347 L18,10.5467928 L17.9653465,10.5467928 Z" id="形状"></path>
                        <path d="M9,7.37644585 C13.9705627,7.37644585 18,5.7251722 18,3.68822292 C18,1.65127365 13.9705627,0 9,0 C4.02943725,0 0,1.65127365 0,3.68822292 C0,5.7251722 4.02943725,7.37644585 9,7.37644585 Z" id="路径"></path>
                        <path d="M9.03217822,17.1398528 C4.34653465,17.1398528 0.502475248,16.0804416 0.099009901,14.7266036 L0.0643564356,14.7266036 L0.0643564356,17.2292324 L0.099009901,17.2292324 C0.502475248,18.7828601 4.3490099,20 9.03217822,20 C10.5321782,20 11.9455446,19.873817 13.1881188,19.6556257 C12.1435644,19.1430074 11.3168317,18.2202944 10.8910891,17.0820189 C10.2920792,17.1188223 9.66831683,17.1398528 9.03217822,17.1398528 Z" id="路径"></path>
                    </g>
                    <polyline id="路径" stroke="#39B2F5" stroke-width="1.49550181" points="13.711149 15.5 15.3223877 17 18 14"></polyline>
                </g>
            </g>
        </g>
    </g>
</svg>