<?xml version="1.0" encoding="UTF-8"?>
<svg width="305px" height="137px" viewBox="0 0 305 137" version="1.1" xmlns="http://www.w3.org/2000/svg" xmlns:xlink="http://www.w3.org/1999/xlink">
    <title>切片</title>
    <g id="页面-1" stroke="none" stroke-width="1" fill="none" fill-rule="evenodd">
        <g id="民联新经济大屏" transform="translate(-1176.000000, -491.000000)">
            <g id="pic_chart_bg_2" transform="translate(1176.000000, 491.000000)">
                <rect id="矩形" fill-opacity="0.0521743881" fill="#7DC1F5" x="0" y="0" width="305" height="137"></rect>
                <path d="M304,132 L305,131 L305,137 L299,137 L300,136 L304,136 L304,132 Z M0,131 L1,132 L1,136 L5,136 L6,137 L0,137 L0,131 Z M6,0 L5,1 L1,1 L1,5 L0,6 L0,0 L6,0 Z M305,0 L305,6 L304,5 L304,1 L300,1 L299,0 L305,0 Z" id="形状" fill="#246CF9" fill-rule="nonzero" opacity="0.5"></path>
            </g>
        </g>
    </g>
</svg>