<?xml version="1.0" encoding="UTF-8"?>
<svg width="1907px" height="45px" viewBox="0 0 1907 45" version="1.1" xmlns="http://www.w3.org/2000/svg" xmlns:xlink="http://www.w3.org/1999/xlink">
    <title>pic_dk_2</title>
    <defs>
        <polygon id="path-1" points="0 -1.13686838e-13 1920 -1.13686838e-13 1920 89.1803279 1.14241949e-12 89.1803279"></polygon>
        <linearGradient x1="50%" y1="-30.0815621%" x2="50%" y2="152.868166%" id="linearGradient-3">
            <stop stop-color="#0073FF" offset="0%"></stop>
            <stop stop-color="#8CD1FF" stop-opacity="0" offset="100%"></stop>
        </linearGradient>
        <linearGradient x1="95.6515914%" y1="50%" x2="5.73835893%" y2="50%" id="linearGradient-4">
            <stop stop-color="#166FDB" stop-opacity="0" offset="0%"></stop>
            <stop stop-color="#166FDB" stop-opacity="0.170755026" offset="51.0844624%"></stop>
            <stop stop-color="#166FDB" stop-opacity="0" offset="100%"></stop>
        </linearGradient>
        <linearGradient x1="50%" y1="0%" x2="50%" y2="100%" id="linearGradient-5">
            <stop stop-color="#35A9EF" stop-opacity="0.303430944" offset="0%"></stop>
            <stop stop-color="#1870DB" stop-opacity="0" offset="100%"></stop>
        </linearGradient>
        <linearGradient x1="50%" y1="-30.0815621%" x2="50%" y2="82.1164785%" id="linearGradient-6">
            <stop stop-color="#0073FF" offset="0%"></stop>
            <stop stop-color="#8CD1FF" stop-opacity="0" offset="100%"></stop>
        </linearGradient>
    </defs>
    <g id="页面-1" stroke="none" stroke-width="1" fill="none" fill-rule="evenodd">
        <g id="民联新经济大屏" transform="translate(-5.000000, -1034.000000)">
            <g id="pic_dk_2" transform="translate(5.000000, 989.200000)">
                <mask id="mask-2" fill="white">
                    <use xlink:href="#path-1"></use>
                </mask>
                <g id="蒙版"></g>
                <g id="编组-9" mask="url(#mask-2)">
                    <g transform="translate(-538.000000, 44.800000)">
                        <path d="M574.729699,9.33714286 C570.482551,9.33714286 566.407614,11.5002974 563.383118,15.3554932 L563.291789,15.4728348 L542.728209,42.1697405 C540.367564,45.2269538 537.175502,46.9598785 533.840273,46.9993119 L533.72387,47 L106,47 L106,45.6628571 L533.72387,45.6628571 C536.827321,45.6628571 539.803662,44.0662381 541.998127,41.2242403 L562.561708,14.5273346 C565.78886,10.3479524 570.165817,8 574.729699,8 L2407.31991,8 C2411.88379,8 2416.26075,10.3479524 2419.4879,14.5273346 L2419.4879,14.5273346 L2440.05148,41.2242403 C2442.24594,44.0662381 2445.22228,45.6628571 2448.32574,45.6628571 L2448.32574,45.6628571 L2996,45.6628571 L2996,47 L2448.32574,47 L2448.20933,46.9993119 C2444.8741,46.9598785 2441.68204,45.2269538 2439.3214,42.1697405 L2439.3214,42.1697405 L2418.75782,15.4728348 L2418.66649,15.3554932 C2415.64199,11.5002974 2411.56706,9.33714286 2407.31991,9.33714286 L2407.31991,9.33714286 L574.729699,9.33714286 Z" id="形状结合" stroke="none" fill="url(#linearGradient-3)" fill-rule="nonzero"></path>
                        <line x1="574" y1="5.5" x2="2407" y2="5.5" id="直线-2" stroke-opacity="0.75" stroke="#166FDB" stroke-width="0.5" fill="none" stroke-linecap="square"></line>
                        <line x1="580" y1="2.5" x2="2401" y2="2.5" id="直线-2备份" stroke-opacity="0.5" stroke="#166FDB" stroke-width="0.5" fill="none" stroke-linecap="square"></line>
                        <line x1="586" y1="0.5" x2="2395" y2="0.5" id="直线-2备份-2" stroke-opacity="0.25" stroke="#166FDB" stroke-width="0.5" fill="none" stroke-linecap="square"></line>
                        <path d="M2406.9791,12.3 C2411.14227,12.3 2415.13056,14.4478574 2418.09143,18.2543143 L2418.09143,18.2543143 L2438.75415,45.3088693 C2440.37588,47.4271641 2442.38123,48.9266505 2444.55566,49.6993051 L2444.55566,49.6993051 L536.409799,49.6999865 C538.51487,48.9637094 540.433041,47.5672639 542.014937,45.6029459 L542.014937,45.6029459 L562.815606,18.3747815 C565.783847,14.5579098 569.63042,12.4235888 573.657171,12.3053339 L573.657171,12.3053339 Z" id="形状结合" stroke="url(#linearGradient-5)" stroke-width="0.6" fill="url(#linearGradient-4)" fill-rule="nonzero"></path>
                        <path d="M678.745051,13.3371429 C674.497281,13.3371429 670.421749,15.5002974 667.396811,19.3554932 L667.305468,19.4728348 L646.738881,46.1697405 C644.377891,49.2269538 641.185362,50.9598785 637.849645,50.9993119 L637.733226,51 L0,51 L0,49.6628571 L637.733226,49.6628571 C640.837131,49.6628571 643.813907,48.0662381 646.008693,45.2242403 L666.57528,18.5273346 C669.802904,14.3479524 674.180502,12 678.745051,12 L2302.25335,12 C2306.8179,12 2311.19549,14.3479524 2314.42312,18.5273346 L2314.42312,18.5273346 L2334.9897,45.2242403 C2337.18449,48.0662381 2340.16127,49.6628571 2343.26517,49.6628571 L2343.26517,49.6628571 L2975,49.6628571 L2975,51 L2343.26517,51 L2343.14875,50.9993119 C2339.81303,50.9598785 2336.62051,49.2269538 2334.25952,46.1697405 L2334.25952,46.1697405 L2313.69293,19.4728348 L2313.60159,19.3554932 C2310.57665,15.5002974 2306.50112,13.3371429 2302.25335,13.3371429 L2302.25335,13.3371429 L678.745051,13.3371429 Z" id="形状结合" stroke="none" fill="url(#linearGradient-6)" fill-rule="nonzero" opacity="0.374790737"></path>
                    </g>
                </g>
            </g>
        </g>
    </g>
</svg>