<?xml version="1.0" encoding="UTF-8"?>
<svg width="104px" height="156px" viewBox="0 0 104 156" version="1.1" xmlns="http://www.w3.org/2000/svg" xmlns:xlink="http://www.w3.org/1999/xlink">
    <title>切片</title>
    <defs>
        <filter x="-136.4%" y="-136.4%" width="372.7%" height="372.7%" filterUnits="objectBoundingBox" id="filter-1">
            <feGaussianBlur stdDeviation="18.5714286" in="SourceGraphic"></feGaussianBlur>
        </filter>
        <linearGradient x1="50%" y1="-5.67532132e-12%" x2="50%" y2="180.637789%" id="linearGradient-2">
            <stop stop-color="#82CAF1" stop-opacity="0" offset="0%"></stop>
            <stop stop-color="#6ABFF4" stop-opacity="0.113800262" offset="29.2857659%"></stop>
            <stop stop-color="#0090FF" offset="100%"></stop>
        </linearGradient>
        <linearGradient x1="50%" y1="50%" x2="50%" y2="100%" id="linearGradient-3">
            <stop stop-color="#003DE5" stop-opacity="0" offset="0%"></stop>
            <stop stop-color="#67BDFF" offset="100%"></stop>
        </linearGradient>
        <linearGradient x1="50%" y1="-5.67532132e-12%" x2="50%" y2="180.637789%" id="linearGradient-4">
            <stop stop-color="#82CAF1" stop-opacity="0" offset="0%"></stop>
            <stop stop-color="#6ABFF4" stop-opacity="0.113800262" offset="13.8782225%"></stop>
            <stop stop-color="#0090FF" offset="100%"></stop>
        </linearGradient>
        <linearGradient x1="50%" y1="32.3351187%" x2="50%" y2="100%" id="linearGradient-5">
            <stop stop-color="#003DE5" stop-opacity="0" offset="0%"></stop>
            <stop stop-color="#67BDFF" offset="100%"></stop>
        </linearGradient>
        <path d="M42.5182219,0.830539534 L78.3921276,18.7674924 C79.3095162,19.2261867 79.6813614,20.3417223 79.2226671,21.259111 C79.0429631,21.618519 78.7515356,21.9099465 78.3921276,22.0896505 L42.5182219,40.0266033 C41.4725484,40.5494401 40.2417373,40.5494401 39.1960638,40.0266033 L3.32215814,22.0896505 C2.4047695,21.6309562 2.03292428,20.5154205 2.4916186,19.5980319 C2.67132262,19.2386239 2.96275011,18.9471964 3.32215814,18.7674924 L39.1960638,0.830539534 C40.2417373,0.307702766 41.4725484,0.307702766 42.5182219,0.830539534 Z" id="path-6"></path>
        <linearGradient x1="54.3345854%" y1="28.755989%" x2="54.3345854%" y2="76.1456077%" id="linearGradient-8">
            <stop stop-color="#89E3FF" stop-opacity="0" offset="0%"></stop>
            <stop stop-color="#20A1FF" offset="100%"></stop>
        </linearGradient>
        <filter x="-12.5%" y="-15.0%" width="125.0%" height="130.0%" filterUnits="objectBoundingBox" id="filter-9">
            <feGaussianBlur stdDeviation="1.85714286" in="SourceGraphic"></feGaussianBlur>
        </filter>
        <linearGradient x1="58.2536929%" y1="23.3712516%" x2="50%" y2="100%" id="linearGradient-10">
            <stop stop-color="#FFFFFF" stop-opacity="0" offset="0%"></stop>
            <stop stop-color="#FFFFFF" offset="100%"></stop>
        </linearGradient>
        <filter x="-38.2%" y="-20.2%" width="176.5%" height="140.4%" filterUnits="objectBoundingBox" id="filter-11">
            <feGaussianBlur stdDeviation="1.85714286" in="SourceGraphic"></feGaussianBlur>
        </filter>
        <linearGradient x1="49.9560931%" y1="3.09989168%" x2="46.0604284%" y2="100%" id="linearGradient-12">
            <stop stop-color="#0B3A9E" stop-opacity="0.438947771" offset="0%"></stop>
            <stop stop-color="#4099D6" offset="100%"></stop>
        </linearGradient>
        <linearGradient x1="50%" y1="0%" x2="50%" y2="100%" id="linearGradient-13">
            <stop stop-color="#89E6FF" offset="0%"></stop>
            <stop stop-color="#4B89FF" offset="0%"></stop>
            <stop stop-color="#51C9FF" offset="100%"></stop>
        </linearGradient>
        <linearGradient x1="32.8246386%" y1="40.24442%" x2="52.7262001%" y2="59.1162324%" id="linearGradient-14">
            <stop stop-color="#FFFFFF" stop-opacity="0.613035402" offset="0%"></stop>
            <stop stop-color="#FFFFFF" stop-opacity="0" offset="100%"></stop>
        </linearGradient>
    </defs>
    <g id="页面-1" stroke="none" stroke-width="1" fill="none" fill-rule="evenodd">
        <g id="民联新经济大屏3" transform="translate(-1663.000000, -375.000000)">
            <g id="a4" transform="translate(1663.000000, 375.000000)">
                <g id="ic_jx_e2备份-2" transform="translate(11.142857, 13.144532)">
                    <g id="编组-2备份-4" transform="translate(0.000000, 40.712611)">
                        <circle id="椭圆形" fill="#246CF9" filter="url(#filter-1)" cx="40.8571429" cy="43.6428571" r="20.4285714"></circle>
                        <path d="M39.5075161,21.8820156 C40.3571259,21.4572107 41.3571599,21.4572107 42.2067696,21.8820156 L42.2067696,21.8820156 L69.7235324,35.640397 C70.0102163,35.783739 70.2116591,36.0297124 70.3055954,36.3115213 C70.3995317,36.5933303 70.3859616,36.9109747 70.2426196,37.1976586 C70.1303046,37.4222887 69.9481624,37.6044308 69.7235324,37.7167458 L69.7235324,37.7167458 L42.2067696,51.4751272 C41.3571599,51.8999321 40.3571259,51.8999321 39.5075161,51.4751272 L39.5075161,51.4751272 L11.9907533,37.7167458 C11.7040694,37.5734039 11.5026266,37.3274304 11.4086903,37.0456215 C11.314754,36.7638126 11.3283241,36.4461682 11.4716661,36.1594842 C11.5839811,35.9348542 11.7661233,35.752712 11.9907533,35.640397 L11.9907533,35.640397 Z" id="矩形备份" stroke="url(#linearGradient-3)" stroke-width="1.39285714" fill="url(#linearGradient-2)" opacity="0.659946987"></path>
                        <path d="M39.6113336,1.66107907 C40.3955887,1.26895149 41.318697,1.26895149 42.1029522,1.66107907 L42.1029522,1.66107907 L77.9768578,19.5980319 C78.206205,19.7127055 78.3673592,19.9094842 78.4425082,20.1349314 C78.5176573,20.3603785 78.5068012,20.614494 78.3921276,20.8438412 C78.3022756,21.0235452 78.1565618,21.169259 77.9768578,21.259111 L77.9768578,21.259111 L42.1029522,39.1960638 C41.318697,39.5881914 40.3955887,39.5881914 39.6113336,39.1960638 L39.6113336,39.1960638 L3.73742791,21.259111 C3.50808075,21.1444374 3.34692651,20.9476586 3.27177747,20.7222115 C3.19662842,20.4967644 3.20748456,20.2426488 3.32215814,20.0133017 C3.41201015,19.8335976 3.55772389,19.6878839 3.73742791,19.5980319 L3.73742791,19.5980319 Z" id="矩形" stroke="url(#linearGradient-5)" stroke-width="1.85714286" fill="url(#linearGradient-4)"></path>
                        <g id="蒙版">
                            <mask id="mask-7" fill="white">
                                <use xlink:href="#path-6"></use>
                            </mask>
                            <use fill="url(#linearGradient-4)" xlink:href="#path-6"></use>
                            <path d="M40.8571429,43.4215742 C52.1395313,43.4215742 60.0480793,52.4152648 61.9489796,44.3501456 C67.0331731,22.7789847 45.0680705,6.01310114 32.6609438,11.6831625 C20.2538171,17.3532239 18.1243792,23.7820429 18.1243792,35.0644313 C18.1243792,43.2753821 29.5747544,43.4215742 40.8571429,43.4215742 Z" fill="url(#linearGradient-8)" filter="url(#filter-9)" mask="url(#mask-7)" transform="translate(40.411899, 29.139359) scale(1, -1) translate(-40.411899, -29.139359) "></path>
                            <path d="M43.0081561,22.3279288 C43.0081561,22.3279288 47.2577291,21.0757621 55.7568749,18.5714286 L53.2121792,24.8896047 L57.280361,38.5286401 L52.6656834,46.1494415 L42.7142857,43.6347234 L46.2803893,25.4143613 C44.0989005,23.3567396 43.0081561,22.3279288 43.0081561,22.3279288 Z" id="路径-14备份-3" fill="url(#linearGradient-10)" fill-rule="nonzero" filter="url(#filter-11)" mask="url(#mask-7)" transform="translate(49.997323, 32.360435) scale(-1, -1) translate(-49.997323, -32.360435) "></path>
                        </g>
                    </g>
                    <path d="M28.0209017,9.5314513 C27.8133406,10.6991866 27.8552934,13.5924783 28.1035417,15.0144721 C28.3251652,16.1954595 28.3251652,16.2257071 28.0209017,16.9672091 C27.7586847,17.6139055 27.7305131,17.8460295 27.8006376,18.9174845 C27.9801676,21.5615862 28.5327263,22.9534904 29.348955,22.891787 C29.5844065,22.8816089 29.7779989,22.8756027 29.8045769,22.8781967 C29.8326548,22.8817171 29.9293573,23.7300957 30.0262941,24.7489794 C30.1917148,26.5174954 30.2337614,26.6237963 30.7176018,27.1228618 C31.3263164,27.7485464 31.3528943,28.1091938 30.8423822,28.4682097 C30.5240094,28.6923109 30.3444794,29.0406809 29.8748889,30.3036016 C29.1553626,32.2040389 28.7416467,32.8690271 27.8287155,33.5480469 C27.4556868,33.8334957 22.5801323,39.2756996 21.9856207,39.8026007 C19.4415445,42.0959712 18.8189082,43.2869645 18.5708005,46.3020823 C18.5005354,47.2292322 18.4318171,59.3855431 18.4318171,60.420842 L18.4318171,63.5079677 L25.8603885,67.2222534 L26.1533841,59.4537268 L53.7175314,44.9810564 L53.6347507,42.3088491 C53.4832518,37.5788958 53.1788476,26.6515818 49.7909804,26.9933843 C49.0714541,27.0609759 44.6684431,25.7314981 44.2800864,25.8097954 C43.366874,26.0139239 42.9533924,25.7437109 42.2336787,24.575358 C41.7641819,23.782439 41.5845113,23.6095744 41.280154,23.6741472 C40.7543139,23.7945735 40.7824855,23.4195209 41.391247,22.2656351 C41.874853,21.353155 41.9170402,21.2133925 42.0826484,19.3312342 C42.1933196,18.2435642 42.2761002,17.3489618 42.2761002,17.318398 C42.2761002,17.3030906 42.414943,17.2265886 42.5943793,17.1475026 C43.2998432,16.8365715 43.8523081,15.4705339 44.1567123,13.3174968 C44.4329916,11.4047841 44.4048199,10.6389544 44.0598692,10.1561673 C43.7974647,9.77298155 43.7833555,9.71800643 44.0038071,8.41415486 C44.1701809,7.38826309 46.1459036,6.03662959 49.9309752,4.35925435 C45.2214345,1.90452743 42.4322964,0.533919405 41.563561,0.247430274 C40.7494052,-0.0210597309 39.769955,-0.0742134628 38.6535315,0.103505856 C37.3116032,0.309989499 34.6709183,1.317875 33.3582867,2.14531712 C30.5382124,3.89396874 28.5607105,6.63360912 28.0209017,9.5314513 Z" id="路径备份-2" fill="url(#linearGradient-12)" fill-rule="nonzero"></path>
                    <path d="M46.1214046,4.06468299 C47.5065712,3.84418347 48.6736962,3.9873078 49.5589245,4.48009449 C50.4262759,4.96292943 51.0130945,5.78246952 51.2707583,6.89562477 C51.4748581,7.82767652 51.4307077,10.5770568 51.1858771,12.0867628 C50.9393634,13.5447571 50.9930898,13.5895661 51.2850277,14.0157912 C51.610829,14.4717771 51.595955,15.2091635 51.3377455,16.9967847 C51.0550791,18.9960719 50.5902298,20.3385565 49.9221229,20.6330226 C49.5508566,20.864735 49.3912361,21.7525959 49.2708966,22.9378298 C49.102237,24.8418332 49.0672308,24.9792364 48.5987037,25.8632662 C48.269786,26.4867182 48.1085659,26.9015462 48.0896061,27.1419307 C49.0741642,27.83287 49.2299902,28.0502937 49.4493947,28.4207642 C49.8412785,29.0569318 50.1560582,29.4379609 50.4902035,29.6395246 C50.8465729,29.8544943 51.2301633,29.8872075 51.7580666,29.7691501 C51.9273153,29.7350275 52.8951655,30.002721 53.9580584,30.2728345 C55.3247406,30.6201502 56.8419828,30.9942392 57.2446469,30.9564073 C57.7725748,30.9031446 58.2034923,31.1841155 58.568294,31.6691355 C59.0346037,32.2891148 59.3938684,33.2357073 59.6795659,34.3620179 C60.5532905,37.8065182 60.7138407,42.9095787 60.8075176,45.8454351 L60.8075176,45.8454351 L60.8913692,48.5467258 L26.1104253,66.8086053 L26.1106775,63.9723069 C26.1129852,63.1369594 26.1287917,60.1869417 26.1519226,57.2097463 L26.1576115,56.4957663 C26.1828452,53.408855 26.2154666,50.4731748 26.2485298,50.0368707 C26.4904661,47.0967505 27.1020099,45.9377991 29.5800098,43.7039813 C29.8561999,43.4592008 31.0510691,42.1612699 32.2939217,40.8053423 L32.2939217,40.8053423 L32.7060993,40.3555815 L32.7060993,40.3555815 L33.0266221,40.0057816 C34.1934498,38.7323736 35.2442183,37.5871282 35.4064872,37.4629299 C36.352152,36.7595635 36.7906361,36.0784265 37.537786,34.1050164 C37.9714216,32.9387932 38.1183702,32.5956216 38.4148532,32.3869285 C38.9122264,31.3205945 38.6877379,31.0352947 38.3256667,30.66313 C37.8730225,30.1962424 37.8573513,30.0818265 37.7037417,28.439587 C37.6532578,27.908961 37.6028226,27.4243862 37.562044,27.0803087 C37.0974761,26.4211156 36.8175551,26.3457007 36.5734154,26.1866831 C36.3743253,26.0570081 36.211905,25.8513689 36.0743918,25.5795791 C35.7470175,24.9325359 35.5681554,23.9332878 35.4786753,22.6154432 C35.4125899,21.6057031 35.4337138,21.3856837 35.680759,20.7763993 C36.0067452,19.9819581 36.015839,19.9509817 35.7783884,18.6857637 C35.5340792,17.2863333 35.4913282,14.4388023 35.6952453,13.2915193 C36.2232217,10.4571967 38.1617692,7.78151028 40.9201734,6.07109052 C42.2092235,5.25851343 44.8021981,4.26767383 46.1214046,4.06468299 Z" id="路径" stroke="url(#linearGradient-14)" stroke-width="0.5" fill="url(#linearGradient-13)" fill-rule="nonzero"></path>
                    <path d="M42.9390426,37.2223637 C42.9390426,37.2223637 45.9505202,35.6606731 51.9734756,32.537292 L55.6877613,34.3944349 L49.42878,38.8554681 L53.4969617,52.4945036 L48.8822841,60.115305 L46.3594579,60.3863011 L42.6451721,58.5291583 L46.2112757,40.3087962 C44.0297869,38.2511745 42.9390426,37.2223637 42.9390426,37.2223637 Z" id="路径-14备份" fill="#A0C9F1"></path>
                    <path d="M46.6533283,39.0795065 C46.6533283,39.0795065 49.664806,37.517816 55.6877613,34.3944349 L53.1430657,40.7126109 L57.2112474,54.3516464 L52.5965698,61.9724478 L46.3594579,60.3863011 L49.9255614,42.165939 C47.7440727,40.1083174 46.6533283,39.0795065 46.6533283,39.0795065 Z" id="路径-14" fill="#FFFFFF"></path>
                    <path d="M46.6533283,39.0795065 C46.6533283,39.0795065 49.664806,37.517816 55.6877613,34.3944349 L53.1430657,40.7126109 L57.2112474,54.3516464 L52.5965698,61.9724478 L46.3594579,60.3863011 L49.9255614,42.165939 C47.7440727,40.1083174 46.6533283,39.0795065 46.6533283,39.0795065 Z" id="路径-14备份-2" fill="#FFFFFF"></path>
                </g>
            </g>
        </g>
    </g>
</svg>