<?xml version="1.0" encoding="UTF-8"?>
<svg width="104px" height="156px" viewBox="0 0 104 156" version="1.1" xmlns="http://www.w3.org/2000/svg" xmlns:xlink="http://www.w3.org/1999/xlink">
    <title>切片</title>
    <defs>
        <filter x="-136.4%" y="-136.4%" width="372.7%" height="372.7%" filterUnits="objectBoundingBox" id="filter-1">
            <feGaussianBlur stdDeviation="18.5714286" in="SourceGraphic"></feGaussianBlur>
        </filter>
        <linearGradient x1="50%" y1="-5.67532132e-12%" x2="50%" y2="180.637789%" id="linearGradient-2">
            <stop stop-color="#82CAF1" stop-opacity="0" offset="0%"></stop>
            <stop stop-color="#6ABFF4" stop-opacity="0.113800262" offset="29.2857659%"></stop>
            <stop stop-color="#0090FF" offset="100%"></stop>
        </linearGradient>
        <linearGradient x1="50%" y1="50%" x2="50%" y2="100%" id="linearGradient-3">
            <stop stop-color="#003DE5" stop-opacity="0" offset="0%"></stop>
            <stop stop-color="#67BDFF" offset="100%"></stop>
        </linearGradient>
        <linearGradient x1="50%" y1="-5.67532132e-12%" x2="50%" y2="180.637789%" id="linearGradient-4">
            <stop stop-color="#82CAF1" stop-opacity="0" offset="0%"></stop>
            <stop stop-color="#6ABFF4" stop-opacity="0.113800262" offset="13.8782225%"></stop>
            <stop stop-color="#0090FF" offset="100%"></stop>
        </linearGradient>
        <linearGradient x1="50%" y1="32.3351187%" x2="50%" y2="100%" id="linearGradient-5">
            <stop stop-color="#003DE5" stop-opacity="0" offset="0%"></stop>
            <stop stop-color="#67BDFF" offset="100%"></stop>
        </linearGradient>
        <path d="M42.5182219,0.830539534 L78.3921276,18.7674924 C79.3095162,19.2261867 79.6813614,20.3417223 79.2226671,21.259111 C79.0429631,21.618519 78.7515356,21.9099465 78.3921276,22.0896505 L42.5182219,40.0266033 C41.4725484,40.5494401 40.2417373,40.5494401 39.1960638,40.0266033 L3.32215814,22.0896505 C2.4047695,21.6309562 2.03292428,20.5154205 2.4916186,19.5980319 C2.67132262,19.2386239 2.96275011,18.9471964 3.32215814,18.7674924 L39.1960638,0.830539534 C40.2417373,0.307702766 41.4725484,0.307702766 42.5182219,0.830539534 Z" id="path-6"></path>
        <linearGradient x1="54.3345854%" y1="28.755989%" x2="54.3345854%" y2="76.1456077%" id="linearGradient-8">
            <stop stop-color="#89E3FF" stop-opacity="0" offset="0%"></stop>
            <stop stop-color="#20A1FF" offset="100%"></stop>
        </linearGradient>
        <filter x="-12.5%" y="-15.0%" width="125.0%" height="130.0%" filterUnits="objectBoundingBox" id="filter-9">
            <feGaussianBlur stdDeviation="1.85714286" in="SourceGraphic"></feGaussianBlur>
        </filter>
        <linearGradient x1="50%" y1="50%" x2="50%" y2="3.62002095e-12%" id="linearGradient-10">
            <stop stop-color="#FFFFFF" stop-opacity="0" offset="0%"></stop>
            <stop stop-color="#FFFFFF" offset="100%"></stop>
        </linearGradient>
        <filter x="-46.2%" y="-17.6%" width="192.3%" height="135.3%" filterUnits="objectBoundingBox" id="filter-11">
            <feGaussianBlur stdDeviation="1.85714286" in="SourceGraphic"></feGaussianBlur>
        </filter>
        <linearGradient x1="49.9367166%" y1="3.09989168%" x2="44.3218629%" y2="100%" id="linearGradient-12">
            <stop stop-color="#0B3A9E" stop-opacity="0.438947771" offset="0%"></stop>
            <stop stop-color="#4099D6" offset="100%"></stop>
        </linearGradient>
        <linearGradient x1="50%" y1="0%" x2="50%" y2="100%" id="linearGradient-13">
            <stop stop-color="#89E6FF" offset="0%"></stop>
            <stop stop-color="#4B89FF" offset="0%"></stop>
            <stop stop-color="#51C9FF" offset="100%"></stop>
        </linearGradient>
        <linearGradient x1="32.1145251%" y1="40.24442%" x2="52.8389145%" y2="59.1162324%" id="linearGradient-14">
            <stop stop-color="#FFFFFF" stop-opacity="0.613035402" offset="0%"></stop>
            <stop stop-color="#FFFFFF" stop-opacity="0" offset="100%"></stop>
        </linearGradient>
    </defs>
    <g id="页面-1" stroke="none" stroke-width="1" fill="none" fill-rule="evenodd">
        <g id="民联新经济大屏3" transform="translate(-741.000000, -375.000000)">
            <g id="编组-4" transform="translate(96.000000, 375.000000)">
                <g id="a3" transform="translate(645.000000, 0.000000)">
                    <g id="ic_jx_e2备份-2" transform="translate(11.142857, 14.517076)">
                        <g id="编组-6">
                            <g id="编组-2备份-2" transform="translate(0.000000, 39.340067)">
                                <circle id="椭圆形" fill="#246CF9" filter="url(#filter-1)" cx="40.8571429" cy="43.6428571" r="20.4285714"></circle>
                                <path d="M39.5075161,21.8820156 C40.3571259,21.4572107 41.3571599,21.4572107 42.2067696,21.8820156 L42.2067696,21.8820156 L69.7235324,35.640397 C70.0102163,35.783739 70.2116591,36.0297124 70.3055954,36.3115213 C70.3995317,36.5933303 70.3859616,36.9109747 70.2426196,37.1976586 C70.1303046,37.4222887 69.9481624,37.6044308 69.7235324,37.7167458 L69.7235324,37.7167458 L42.2067696,51.4751272 C41.3571599,51.8999321 40.3571259,51.8999321 39.5075161,51.4751272 L39.5075161,51.4751272 L11.9907533,37.7167458 C11.7040694,37.5734039 11.5026266,37.3274304 11.4086903,37.0456215 C11.314754,36.7638126 11.3283241,36.4461682 11.4716661,36.1594842 C11.5839811,35.9348542 11.7661233,35.752712 11.9907533,35.640397 L11.9907533,35.640397 Z" id="矩形备份" stroke="url(#linearGradient-3)" stroke-width="1.39285714" fill="url(#linearGradient-2)" opacity="0.659946987"></path>
                                <path d="M39.6113336,1.66107907 C40.3955887,1.26895149 41.318697,1.26895149 42.1029522,1.66107907 L42.1029522,1.66107907 L77.9768578,19.5980319 C78.206205,19.7127055 78.3673592,19.9094842 78.4425082,20.1349314 C78.5176573,20.3603785 78.5068012,20.614494 78.3921276,20.8438412 C78.3022756,21.0235452 78.1565618,21.169259 77.9768578,21.259111 L77.9768578,21.259111 L42.1029522,39.1960638 C41.318697,39.5881914 40.3955887,39.5881914 39.6113336,39.1960638 L39.6113336,39.1960638 L3.73742791,21.259111 C3.50808075,21.1444374 3.34692651,20.9476586 3.27177747,20.7222115 C3.19662842,20.4967644 3.20748456,20.2426488 3.32215814,20.0133017 C3.41201015,19.8335976 3.55772389,19.6878839 3.73742791,19.5980319 L3.73742791,19.5980319 Z" id="矩形" stroke="url(#linearGradient-5)" stroke-width="1.85714286" fill="url(#linearGradient-4)"></path>
                                <g id="蒙版">
                                    <mask id="mask-7" fill="white">
                                        <use xlink:href="#path-6"></use>
                                    </mask>
                                    <use fill="url(#linearGradient-4)" xlink:href="#path-6"></use>
                                    <path d="M40.8571429,43.4215742 C52.1395313,43.4215742 60.0480793,52.4152648 61.9489796,44.3501456 C67.0331731,22.7789847 45.0680705,6.01310114 32.6609438,11.6831625 C20.2538171,17.3532239 18.1243792,23.7820429 18.1243792,35.0644313 C18.1243792,43.2753821 29.5747544,43.4215742 40.8571429,43.4215742 Z" fill="url(#linearGradient-8)" filter="url(#filter-9)" mask="url(#mask-7)" transform="translate(40.411899, 29.139359) scale(1, -1) translate(-40.411899, -29.139359) "></path>
                                    <rect id="矩形" fill="url(#linearGradient-10)" fill-rule="nonzero" opacity="0.53780692" filter="url(#filter-11)" mask="url(#mask-7)" x="50.1428571" y="21.3571429" width="12.0714286" height="31.5714286" rx="6.03571429"></rect>
                                </g>
                            </g>
                            <path d="M34.9636366,39.6063465 L24.2401733,44.876814 L24.2401733,60.4381024 L23.3307313,67.341741 C18.5630226,65.0305408 15.9976495,63.7455204 15.634612,63.4866797 C15.3984807,63.3183213 15.1984122,63.0919497 15.0580971,62.8153089 C14.9259916,62.5548537 14.8571429,62.266892 14.8571429,61.9748123 L14.8571429,14.6693356 C14.8571429,12.5276406 16.0574074,10.2481572 17.5380087,9.57796688 L40.3253683,0.191899155 C40.9662374,-0.0981885663 41.5545843,-0.0488751483 42.0158076,0.268898987 C42.4187023,0.546485783 44.9257033,1.85782809 49.5368105,4.2029259 L43.0062341,17.792366 L48.3679658,15.2557817 C49.0274203,14.9438 49.6312622,14.9894067 50.0982096,15.3179675 C50.4858353,15.5907148 52.8846083,16.7948415 57.2945287,18.9303475 C53.1307307,21.3459581 51.0488317,22.9574295 51.0488317,23.7647614 C51.0488317,29.3332877 51.0488317,36.8812871 51.0488317,46.4087594 C51.0488317,47.1081786 50.6561211,47.7482828 50.0328197,48.0648225 L42.3922081,58.7449535 L34.9636366,55.0306678 L34.9636366,39.6063465 Z" id="形状结合备份-2" fill="url(#linearGradient-12)" fill-rule="nonzero"></path>
                            <path d="M48.6078071,3.96461346 L48.7472363,3.97502593 C49.0227435,4.0104924 49.2699543,4.13419014 49.4773227,4.33138202 C49.9243378,4.75646014 50.1848056,5.50367024 50.1848056,6.45548867 L50.1848056,6.45548867 L50.1848056,21.9014897 L55.9034492,19.1960537 C56.219485,19.0465402 56.5206337,18.9877558 56.7960877,19.0161848 C57.0703493,19.0444907 57.3166308,19.1602682 57.5231095,19.3498603 C57.9688253,19.7591239 58.2274031,20.4915469 58.2274031,21.4316828 L58.2274031,21.4316828 L58.2274031,50.1230451 C58.2274031,50.4256991 58.1424391,50.7155209 57.9900425,50.9639219 C57.8376661,51.2122901 57.6178734,51.4192488 57.3564921,51.5521805 L57.3564921,51.5521805 L42.6422081,58.3539709 L42.6422081,42.9191964 L31.4187447,48.4354086 L31.4187447,63.9947198 L24.8684705,67.1222581 C24.4730401,67.323075 24.0336985,67.3445036 23.643041,67.2168055 C23.2523388,67.0890927 22.9103413,66.8122258 22.7096286,66.416507 C22.5952977,66.1910957 22.5357143,65.9418785 22.5357143,65.689098 L22.5357143,65.689098 L22.5357143,18.3836213 C22.5357143,17.3529236 22.8252316,16.2893102 23.2921298,15.4026001 C23.7480596,14.5367206 24.3722927,13.8356739 25.0617939,13.5234113 L25.0617939,13.5234113 L47.8570321,4.13393906 C48.1721783,3.99128893 48.4725612,3.93966658 48.7472363,3.97502593 Z" id="形状结合" stroke="url(#linearGradient-14)" stroke-width="0.5" fill="url(#linearGradient-13)" fill-rule="nonzero"></path>
                        </g>
                        <polygon id="路径-13备份" fill="#A0C9F1" fill-rule="nonzero" points="63.2110342 33.7975813 66.9253199 35.6547242 56.7273293 60.2921311 53.0130436 58.4349882 44.7307462 52.1807492 48.93929 45.4069698 52.6535757 47.2641127 53.0129654 48.6636264"></polygon>
                        <polygon id="路径-13" fill="#FFFFFF" fill-rule="nonzero" points="66.9253199 35.6547242 71.1338636 38.6521216 56.7273293 60.2921311 48.445032 54.0378921 52.6535757 47.2641127 56.7272511 50.5207692"></polygon>
                    </g>
                </g>
            </g>
        </g>
    </g>
</svg>