<?xml version="1.0" encoding="UTF-8"?>
<svg width="104px" height="156px" viewBox="0 0 104 156" version="1.1" xmlns="http://www.w3.org/2000/svg" xmlns:xlink="http://www.w3.org/1999/xlink">
    <title>切片</title>
    <defs>
        <filter x="-136.4%" y="-136.4%" width="372.7%" height="372.7%" filterUnits="objectBoundingBox" id="filter-1">
            <feGaussianBlur stdDeviation="18.5714286" in="SourceGraphic"></feGaussianBlur>
        </filter>
        <linearGradient x1="50%" y1="-5.67532132e-12%" x2="50%" y2="180.637789%" id="linearGradient-2">
            <stop stop-color="#82CAF1" stop-opacity="0" offset="0%"></stop>
            <stop stop-color="#6ABFF4" stop-opacity="0.113800262" offset="29.2857659%"></stop>
            <stop stop-color="#0090FF" offset="100%"></stop>
        </linearGradient>
        <linearGradient x1="50%" y1="50%" x2="50%" y2="100%" id="linearGradient-3">
            <stop stop-color="#003DE5" stop-opacity="0" offset="0%"></stop>
            <stop stop-color="#67BDFF" offset="100%"></stop>
        </linearGradient>
        <linearGradient x1="50%" y1="-5.67532132e-12%" x2="50%" y2="180.637789%" id="linearGradient-4">
            <stop stop-color="#82CAF1" stop-opacity="0" offset="0%"></stop>
            <stop stop-color="#6ABFF4" stop-opacity="0.113800262" offset="13.8782225%"></stop>
            <stop stop-color="#0090FF" offset="100%"></stop>
        </linearGradient>
        <linearGradient x1="50%" y1="32.3351187%" x2="50%" y2="100%" id="linearGradient-5">
            <stop stop-color="#003DE5" stop-opacity="0" offset="0%"></stop>
            <stop stop-color="#67BDFF" offset="100%"></stop>
        </linearGradient>
        <path d="M42.5182219,0.830539534 L78.3921276,18.7674924 C79.3095162,19.2261867 79.6813614,20.3417223 79.2226671,21.259111 C79.0429631,21.618519 78.7515356,21.9099465 78.3921276,22.0896505 L42.5182219,40.0266033 C41.4725484,40.5494401 40.2417373,40.5494401 39.1960638,40.0266033 L3.32215814,22.0896505 C2.4047695,21.6309562 2.03292428,20.5154205 2.4916186,19.5980319 C2.67132262,19.2386239 2.96275011,18.9471964 3.32215814,18.7674924 L39.1960638,0.830539534 C40.2417373,0.307702766 41.4725484,0.307702766 42.5182219,0.830539534 Z" id="path-6"></path>
        <linearGradient x1="54.3345854%" y1="28.755989%" x2="54.3345854%" y2="76.1456077%" id="linearGradient-8">
            <stop stop-color="#89E3FF" stop-opacity="0" offset="0%"></stop>
            <stop stop-color="#20A1FF" offset="100%"></stop>
        </linearGradient>
        <filter x="-11.8%" y="-13.8%" width="123.6%" height="127.6%" filterUnits="objectBoundingBox" id="filter-9">
            <feGaussianBlur stdDeviation="1.85714286" in="SourceGraphic"></feGaussianBlur>
        </filter>
        <linearGradient x1="50%" y1="50%" x2="50%" y2="100%" id="linearGradient-10">
            <stop stop-color="#FFFFFF" stop-opacity="0" offset="0%"></stop>
            <stop stop-color="#FFFFFF" offset="100%"></stop>
        </linearGradient>
        <filter x="-23.1%" y="-15.0%" width="146.2%" height="130.0%" filterUnits="objectBoundingBox" id="filter-11">
            <feGaussianBlur stdDeviation="1.85714286" in="SourceGraphic"></feGaussianBlur>
        </filter>
        <linearGradient x1="50%" y1="56.295759%" x2="48.3365054%" y2="11.582233%" id="linearGradient-12">
            <stop stop-color="#FFFFFF" stop-opacity="0" offset="0%"></stop>
            <stop stop-color="#FFFFFF" offset="100%"></stop>
        </linearGradient>
        <filter x="-50.6%" y="-31.1%" width="201.3%" height="162.1%" filterUnits="objectBoundingBox" id="filter-13">
            <feGaussianBlur stdDeviation="1.85714286" in="SourceGraphic"></feGaussianBlur>
        </filter>
        <linearGradient x1="49.9320375%" y1="3.09989168%" x2="43.9020325%" y2="100%" id="linearGradient-14">
            <stop stop-color="#0B3A9E" stop-opacity="0.438947771" offset="0%"></stop>
            <stop stop-color="#4099D6" offset="100%"></stop>
        </linearGradient>
        <linearGradient x1="50%" y1="0%" x2="50%" y2="100%" id="linearGradient-15">
            <stop stop-color="#89E6FF" offset="0%"></stop>
            <stop stop-color="#4B89FF" offset="0%"></stop>
            <stop stop-color="#51C9FF" offset="100%"></stop>
        </linearGradient>
        <linearGradient x1="30.6221735%" y1="40.24442%" x2="53.0757916%" y2="59.1162324%" id="linearGradient-16">
            <stop stop-color="#FFFFFF" stop-opacity="0.613035402" offset="0%"></stop>
            <stop stop-color="#FFFFFF" stop-opacity="0" offset="100%"></stop>
        </linearGradient>
        <linearGradient x1="50%" y1="0%" x2="44.0897769%" y2="50%" id="linearGradient-17">
            <stop stop-color="#CEE6F9" offset="0%"></stop>
            <stop stop-color="#A0C9F1" offset="100%"></stop>
        </linearGradient>
    </defs>
    <g id="页面-1" stroke="none" stroke-width="1" fill="none" fill-rule="evenodd">
        <g id="民联新经济大屏3" transform="translate(-448.000000, -375.000000)">
            <g id="编组-4" transform="translate(96.000000, 375.000000)">
                <g id="a2" transform="translate(352.000000, 0.000000)">
                    <g id="ic_jx_e2备份" transform="translate(11.142857, 17.848527)">
                        <g id="编组-3">
                            <g id="编组-2" transform="translate(0.000000, 35.640479)">
                                <circle id="椭圆形" fill="#246CF9" filter="url(#filter-1)" cx="40.8571429" cy="43.6428571" r="20.4285714"></circle>
                                <path d="M39.5075161,21.8820156 C40.3571259,21.4572107 41.3571599,21.4572107 42.2067696,21.8820156 L42.2067696,21.8820156 L69.7235324,35.640397 C70.0102163,35.783739 70.2116591,36.0297124 70.3055954,36.3115213 C70.3995317,36.5933303 70.3859616,36.9109747 70.2426196,37.1976586 C70.1303046,37.4222887 69.9481624,37.6044308 69.7235324,37.7167458 L69.7235324,37.7167458 L42.2067696,51.4751272 C41.3571599,51.8999321 40.3571259,51.8999321 39.5075161,51.4751272 L39.5075161,51.4751272 L11.9907533,37.7167458 C11.7040694,37.5734039 11.5026266,37.3274304 11.4086903,37.0456215 C11.314754,36.7638126 11.3283241,36.4461682 11.4716661,36.1594842 C11.5839811,35.9348542 11.7661233,35.752712 11.9907533,35.640397 L11.9907533,35.640397 Z" id="矩形备份" stroke="url(#linearGradient-3)" stroke-width="1.39285714" fill="url(#linearGradient-2)" opacity="0.659946987"></path>
                                <path d="M39.6113336,1.66107907 C40.3955887,1.26895149 41.318697,1.26895149 42.1029522,1.66107907 L42.1029522,1.66107907 L77.9768578,19.5980319 C78.206205,19.7127055 78.3673592,19.9094842 78.4425082,20.1349314 C78.5176573,20.3603785 78.5068012,20.614494 78.3921276,20.8438412 C78.3022756,21.0235452 78.1565618,21.169259 77.9768578,21.259111 L77.9768578,21.259111 L42.1029522,39.1960638 C41.318697,39.5881914 40.3955887,39.5881914 39.6113336,39.1960638 L39.6113336,39.1960638 L3.73742791,21.259111 C3.50808075,21.1444374 3.34692651,20.9476586 3.27177747,20.7222115 C3.19662842,20.4967644 3.20748456,20.2426488 3.32215814,20.0133017 C3.41201015,19.8335976 3.55772389,19.6878839 3.73742791,19.5980319 L3.73742791,19.5980319 Z" id="矩形" stroke="url(#linearGradient-5)" stroke-width="1.85714286" fill="url(#linearGradient-4)"></path>
                                <g id="蒙版">
                                    <mask id="mask-7" fill="white">
                                        <use xlink:href="#path-6"></use>
                                    </mask>
                                    <use fill="url(#linearGradient-4)" xlink:href="#path-6"></use>
                                    <path d="M39,45.9395959 C51.3080601,45.9395959 60.9826637,54.6371934 63.4807335,45.9395959 C66.8265875,34.2902453 49.4784739,9.47206347 39,9.47206347 C28.5215261,9.47206347 16.7142857,20.4627046 16.7142857,32.7707648 C16.7142857,41.7281656 26.6919399,45.9395959 39,45.9395959 Z" fill="url(#linearGradient-8)" filter="url(#filter-9)" mask="url(#mask-7)" transform="translate(40.308314, 29.638629) scale(1, -1) translate(-40.308314, -29.638629) "></path>
                                    <path d="M46.8928571,44.7324466 C43.2861498,44.076874 40.8571429,40.9287634 40.8571429,36.1196017 C40.8571429,28.9454733 46.2635235,21.0499989 52.9285714,18.4904962 C59.5936193,15.9309935 65,19.3634055 65,26.1544251 C65,30.7067707 62.570993,35.7326286 58.9642857,39.449358 L58.9642857,43.8567559 C58.9642857,44.5298442 58.4380009,45.3107889 57.7865854,45.6043243 L48.0705575,49.9824797 C47.419142,50.2760151 46.8928571,49.9542451 46.8928571,49.262435 L46.8928571,44.7324466 Z M48.5121951,52.275852 L57.3449477,48.2461782 C57.5068815,48.1723008 57.6393728,48.249173 57.6393728,48.4170052 L57.6393728,49.6376031 C57.6393728,50.3127463 57.113088,51.1016226 56.4616725,51.4029207 L49.3954704,54.6712391 C48.7440549,54.9725372 48.21777,54.6586989 48.21777,53.9689436 L48.21777,52.7219283 C48.21777,52.5504637 48.3502613,52.3497294 48.5121951,52.275852 Z" id="形状备份" fill="url(#linearGradient-10)" fill-rule="nonzero" filter="url(#filter-11)" mask="url(#mask-7)" transform="translate(52.928571, 36.214286) scale(-1, -1) translate(-52.928571, -36.214286) "></path>
                                    <path d="M54.5482862,33.0056178 L47.5298351,39.7045116 C47.4345157,39.8028207 47.3574947,39.9305145 47.3110613,40.0672184 L44.2065135,50.1513228 C44.1211519,50.3891087 44.1515434,50.6200604 44.2815321,50.7213314 C44.4115208,50.8225538 44.6109204,50.7705837 44.7737318,50.5931226 L51.8781667,44.1647953 C51.9731503,44.0660468 52.0498759,43.9385331 52.0962161,43.8024091 L55.1155044,33.4474176 C55.200866,33.2134309 55.1704745,32.9852012 55.0404858,32.8839788 C54.9104971,32.7827077 54.7110975,32.8317996 54.5482862,33.0056178 Z" id="形状" fill="url(#linearGradient-12)" fill-rule="nonzero" opacity="0.561430432" filter="url(#filter-13)" mask="url(#mask-7)"></path>
                                </g>
                            </g>
                            <g id="编组-4" transform="translate(15.785714, 0.000000)" fill-rule="nonzero">
                                <path d="M30.3333723,2.24653214 C30.6959592,2.06311936 31.1736383,1.87489962 31.7664096,1.68187291 C32.6770905,1.22120953 33.514378,1.14752293 34.1757589,1.3985365 C34.4301963,1.49510299 40.4137918,3.86783651 41.8425656,4.97352418 L35.640362,40.2648343 C35.640362,42.6468608 33.9059344,45.4552264 31.7664096,46.5374943 L8.56307794,64.0714286 C6.59201068,63.0669369 1.78159039,61.1950217 1.07644642,60.7323944 C0.409684249,60.2949485 0,59.4510254 0,58.2933331 L0,22.0637927 C0,19.6817662 1.73442756,16.8734007 3.87395239,15.7911328 L7.74790479,13.8315134 L7.74790479,12.9689053 C7.74790479,10.5868788 9.48233235,7.77851324 11.6218572,6.69624531 L24.0185048,0.425463143 C25.0353006,-0.088877911 25.9606025,-0.120804956 26.6517242,0.243000296 C26.9023991,0.374955111 28.1392761,0.961478952 30.3333723,2.24653214 Z" id="路径备份" fill="url(#linearGradient-14)"></path>
                                <path d="M31.1716063,4.15625131 C32.1456249,3.66904509 33.0340829,3.63876242 33.6780255,4.02559292 C34.3196766,4.41104679 34.6946064,5.19834465 34.6946064,6.26637101 L34.6946064,6.26637101 L34.6946064,7.5263354 L38.9412856,5.40213716 C39.9153042,4.91493094 40.8037622,4.88464827 41.4477048,5.27147877 C42.0893559,5.65693264 42.4642857,6.4442305 42.4642857,7.51225686 L42.4642857,7.51225686 L42.4642857,43.438332 C42.4642857,44.576524 42.0415093,45.8151498 41.3644011,46.8992857 C40.6866238,47.9844926 39.7523951,48.9172588 38.7176065,49.4348623 L38.7176065,49.4348623 L10.746761,63.4259405 C9.77274246,63.9131467 8.88428449,63.9434294 8.2403418,63.5565989 C7.59869073,63.171145 7.22376093,62.3838471 7.22376093,61.3158208 L7.22376093,61.3158208 L7.22376093,25.3897456 C7.22376093,24.2515537 7.6465373,23.0129279 8.32364559,21.928792 C9.00142283,20.843585 9.93565158,19.9108188 10.9704401,19.3932153 L10.9704401,19.3932153 L14.9934402,17.3809019 L14.9934402,16.3710386 C14.9934402,15.2328466 15.4162166,13.9942208 16.0933249,12.9100849 C16.7711021,11.8248779 17.7053309,10.8921118 18.7401194,10.3745083 L18.7401194,10.3745083 Z" id="路径" stroke="url(#linearGradient-16)" stroke-width="0.5" fill="url(#linearGradient-15)"></path>
                            </g>
                        </g>
                        <g id="编组" transform="translate(40.857143, 27.651473)" fill-rule="nonzero">
                            <path d="M1.80186211,20.901747 L16.216759,13.6810321 C16.6766609,13.4506579 17.0963201,13.4617614 17.4147067,13.666521 C17.7852486,13.9048224 20.5866038,15.152883 21.6948147,15.849254 L18.0186211,19.7219282 C18.0186211,21.0001886 17.2119,22.4405264 16.216759,22.9390127 L4.89417935,32.3531597 C3.78191411,31.7500591 0.832510137,30.3738178 0.504790354,30.1015234 C0.192238148,29.8418314 0,29.3718114 0,28.7478218 L0,24.1188315 C0,22.8405711 0.806721146,21.4002333 1.80186211,20.901747 Z M9.00931056,0.511299687 C10.2209276,-0.0956239359 11.339441,-0.143876415 12.2408569,0.269382994 C12.5170129,0.39598835 15.698046,1.57155357 17.0961739,2.74861754 C18.3955536,3.84254678 13.6573064,9.19029271 12.4669928,11.060215 C12.016232,11.7347949 11.2616382,12.8389388 11.2616382,13.8486577 C11.2616382,15.0828401 12.0136826,15.7146862 12.9612522,15.3081178 L13.0635003,15.2605635 L4.95512081,19.3222156 C5.95026177,18.8237292 6.75698292,17.3833915 6.75698292,16.1051311 C6.75698292,15.0954122 6.00474513,14.7460709 5.55162837,14.5242616 C4.36131476,13.8468439 3.60372422,12.3080877 3.60372422,10.1625532 C3.60372422,6.32777209 6.02388766,2.0067587 9.00931056,0.511299687 Z" id="形状结合" fill="url(#linearGradient-17)"></path>
                            <path d="M6.06895528,23.0715862 L20.4838522,15.8508713 C21.4789931,15.352385 22.2857143,15.9845167 22.2857143,17.2627771 L22.2857143,21.8917674 C22.2857143,23.1700278 21.4789931,24.6103656 20.4838522,25.1088519 L6.06895528,32.3295668 C5.07381431,32.8280531 4.26709316,32.1959214 4.26709316,30.917661 L4.26709316,26.2886707 C4.26709316,25.0104103 5.07381431,23.5700725 6.06895528,23.0715862 Z M13.2764037,2.68113889 C16.2618266,1.18567988 18.6819901,3.08207514 18.6819901,6.91685627 C18.6819901,9.06239077 17.9243995,11.3601319 16.7340859,13.2300542 C16.2833252,13.9046341 15.5287314,15.008778 15.5287314,16.0184969 C15.5287314,17.2526793 16.2807758,17.8845254 17.2283453,17.477957 L17.3305935,17.4304027 L9.22221397,21.4920548 C10.2173549,20.9935685 11.0240761,19.5532307 11.0240761,18.2749703 C11.0240761,17.2652514 10.2718383,16.9159101 9.81872154,16.6941008 C8.62840792,16.0166831 7.87081739,14.4779269 7.87081739,12.3323924 C7.87081739,8.49761129 10.2909808,4.1765979 13.2764037,2.68113889 Z" id="形状结合备份" fill="#FFFFFF"></path>
                        </g>
                    </g>
                </g>
            </g>
        </g>
    </g>
</svg>