<?xml version="1.0" encoding="UTF-8"?>
<svg width="104px" height="156px" viewBox="0 0 104 156" version="1.1" xmlns="http://www.w3.org/2000/svg" xmlns:xlink="http://www.w3.org/1999/xlink">
    <title>切片</title>
    <defs>
        <filter x="-146.9%" y="-146.9%" width="393.7%" height="393.7%" filterUnits="objectBoundingBox" id="filter-1">
            <feGaussianBlur stdDeviation="20" in="SourceGraphic"></feGaussianBlur>
        </filter>
        <linearGradient x1="50%" y1="-5.67532132e-12%" x2="50%" y2="180.637789%" id="linearGradient-2">
            <stop stop-color="#82CAF1" stop-opacity="0" offset="0%"></stop>
            <stop stop-color="#6ABFF4" stop-opacity="0.113800262" offset="29.2857659%"></stop>
            <stop stop-color="#0090FF" offset="100%"></stop>
        </linearGradient>
        <linearGradient x1="50%" y1="50%" x2="50%" y2="100%" id="linearGradient-3">
            <stop stop-color="#003DE5" stop-opacity="0" offset="0%"></stop>
            <stop stop-color="#67BDFF" offset="100%"></stop>
        </linearGradient>
        <linearGradient x1="50%" y1="-5.67532132e-12%" x2="50%" y2="180.637789%" id="linearGradient-4">
            <stop stop-color="#82CAF1" stop-opacity="0" offset="0%"></stop>
            <stop stop-color="#6ABFF4" stop-opacity="0.113800262" offset="13.8782225%"></stop>
            <stop stop-color="#0090FF" offset="100%"></stop>
        </linearGradient>
        <linearGradient x1="50%" y1="32.3351187%" x2="50%" y2="100%" id="linearGradient-5">
            <stop stop-color="#003DE5" stop-opacity="0" offset="0%"></stop>
            <stop stop-color="#67BDFF" offset="100%"></stop>
        </linearGradient>
        <path d="M42.6459972,0.894427191 L78.136577,18.639717 C79.1245339,19.1336955 79.5249826,20.3350416 79.0310041,21.3229986 C78.8374767,21.7100534 78.5236318,22.0238984 78.136577,22.2174258 L42.6459972,39.9627157 C41.5198873,40.5257706 40.1943984,40.5257706 39.0682885,39.9627157 L3.57770876,22.2174258 C2.58975177,21.7234473 2.18930308,20.5221012 2.68328157,19.5341442 C2.87680898,19.1470894 3.19065396,18.8332444 3.57770876,18.639717 L39.0682885,0.894427191 C40.1943984,0.33137221 41.5198873,0.33137221 42.6459972,0.894427191 Z" id="path-6"></path>
        <linearGradient x1="54.3345854%" y1="28.755989%" x2="54.3345854%" y2="76.1456077%" id="linearGradient-8">
            <stop stop-color="#89E3FF" stop-opacity="0" offset="0%"></stop>
            <stop stop-color="#20A1FF" offset="100%"></stop>
        </linearGradient>
        <filter x="-13.5%" y="-16.2%" width="126.9%" height="132.3%" filterUnits="objectBoundingBox" id="filter-9">
            <feGaussianBlur stdDeviation="2" in="SourceGraphic"></feGaussianBlur>
        </filter>
        <linearGradient x1="61.5571083%" y1="23.3712516%" x2="50%" y2="100%" id="linearGradient-10">
            <stop stop-color="#FFFFFF" stop-opacity="0" offset="0%"></stop>
            <stop stop-color="#FFFFFF" offset="100%"></stop>
        </linearGradient>
        <filter x="-32.3%" y="-20.2%" width="164.6%" height="140.4%" filterUnits="objectBoundingBox" id="filter-11">
            <feGaussianBlur stdDeviation="2" in="SourceGraphic"></feGaussianBlur>
        </filter>
        <linearGradient x1="50%" y1="0%" x2="50%" y2="100%" id="linearGradient-12">
            <stop stop-color="#89E6FF" offset="0%"></stop>
            <stop stop-color="#4B89FF" offset="0%"></stop>
            <stop stop-color="#51C9FF" offset="100%"></stop>
        </linearGradient>
        <linearGradient x1="33.6467435%" y1="40.24442%" x2="52.5957095%" y2="59.1162324%" id="linearGradient-13">
            <stop stop-color="#FFFFFF" stop-opacity="0.613035402" offset="0%"></stop>
            <stop stop-color="#FFFFFF" stop-opacity="0" offset="100%"></stop>
        </linearGradient>
        <linearGradient x1="50%" y1="0%" x2="45.3260284%" y2="50%" id="linearGradient-14">
            <stop stop-color="#CEE6F9" offset="0%"></stop>
            <stop stop-color="#A0C9F1" offset="100%"></stop>
        </linearGradient>
        <linearGradient x1="60.472734%" y1="0%" x2="45.4889482%" y2="90.3516275%" id="linearGradient-15">
            <stop stop-color="#FFFFFF" offset="0%"></stop>
            <stop stop-color="#E4F2FF" offset="100%"></stop>
        </linearGradient>
    </defs>
    <g id="页面-1" stroke="none" stroke-width="1" fill="none" fill-rule="evenodd">
        <g id="民联新经济大屏3" transform="translate(-155.000000, -375.000000)">
            <g id="编组-4" transform="translate(96.000000, 375.000000)">
                <g id="a1" transform="translate(59.000000, 0.000000)">
                    <g id="ic_jx_e2" transform="translate(11.142857, 11.142857)">
                        <g id="编组-2备份-2" transform="translate(0.000000, 42.714286)">
                            <circle id="椭圆形" fill="#246CF9" filter="url(#filter-1)" cx="40.8571429" cy="43.6428571" r="20.4285714"></circle>
                            <path d="M39.4036987,21.993819 C40.318663,21.5363368 41.3956227,21.5363368 42.310587,21.993819 L42.310587,21.993819 L69.4440239,35.5605374 C69.7527605,35.7149057 69.9696988,35.9798002 70.070861,36.2832867 C70.1720232,36.5867733 70.1574092,36.9288519 70.0030409,37.2375884 C69.8820863,37.4794977 69.6859331,37.6756508 69.4440239,37.7966054 L69.4440239,37.7966054 L42.310587,51.3633238 C41.3956227,51.820806 40.318663,51.820806 39.4036987,51.3633238 L39.4036987,51.3633238 L12.2702618,37.7966054 C11.9615253,37.6422371 11.7445869,37.3773427 11.6434247,37.0738561 C11.5422625,36.7703696 11.5568765,36.428291 11.7112448,36.1195544 C11.8321994,35.8776452 12.0283526,35.6814921 12.2702618,35.5605374 L12.2702618,35.5605374 Z" id="矩形备份" stroke="url(#linearGradient-3)" stroke-width="1.5" fill="url(#linearGradient-2)" opacity="0.659946987"></path>
                            <path d="M39.5155021,1.78885438 C40.3600845,1.36656315 41.3542012,1.36656315 42.1987836,1.78885438 L42.1987836,1.78885438 L77.6893634,19.5341442 C77.9363526,19.6576389 78.1099033,19.8695544 78.1908331,20.1123437 C78.2717628,20.3551329 78.2600716,20.6287958 78.136577,20.875785 C78.0398132,21.0693124 77.8828908,21.2262349 77.6893634,21.3229986 L77.6893634,21.3229986 L42.1987836,39.0682885 C41.3542012,39.4905797 40.3600845,39.4905797 39.5155021,39.0682885 L39.5155021,39.0682885 L4.02492236,21.3229986 C3.77793311,21.199504 3.6043824,20.9875884 3.52345266,20.7447992 C3.44252291,20.50201 3.45421414,20.2283471 3.57770876,19.9813578 C3.67447247,19.7878304 3.83139496,19.6309079 4.02492236,19.5341442 L4.02492236,19.5341442 Z" id="矩形" stroke="url(#linearGradient-5)" stroke-width="2" fill="url(#linearGradient-4)"></path>
                            <g id="蒙版">
                                <mask id="mask-7" fill="white">
                                    <use xlink:href="#path-6"></use>
                                </mask>
                                <use fill="url(#linearGradient-4)" xlink:href="#path-6"></use>
                                <path d="M40.8571429,43.4215742 C52.1395313,43.4215742 60.0480793,52.4152648 61.9489796,44.3501456 C67.0331731,22.7789847 45.0680705,6.01310114 32.6609438,11.6831625 C20.2538171,17.3532239 18.1243792,23.7820429 18.1243792,35.0644313 C18.1243792,43.2753821 29.5747544,43.4215742 40.8571429,43.4215742 Z" fill="url(#linearGradient-8)" filter="url(#filter-9)" mask="url(#mask-7)" transform="translate(40.411899, 29.139359) scale(1, -1) translate(-40.411899, -29.139359) "></path>
                                <path d="M58.5,14.5943686 C63.6283584,12.5513474 67.7857143,15.3678089 67.7857143,20.8851114 C67.7857143,23.8436199 66.5903253,27.0555576 64.6908306,29.7883225 L64.6904762,37.4246123 L58.4984556,36.3841862 L52.3095238,43.6428571 L52.3091694,35.6187148 C50.4096747,34.5517613 49.2142857,32.2421272 49.2142857,29.0551188 C49.2142857,23.1116882 53.3716416,16.6373898 58.5,14.5943686 Z" id="形状结合" fill="url(#linearGradient-10)" fill-rule="nonzero" filter="url(#filter-11)" mask="url(#mask-7)" transform="translate(58.500000, 28.785714) scale(-1, -1) translate(-58.500000, -28.785714) "></path>
                            </g>
                        </g>
                        <path d="M54.7505028,6.08576528 C55.1938026,5.8933725 55.6731179,5.89887629 56.0897064,6.06330324 C56.5062949,6.2277302 56.8601567,6.55108031 57.0525495,6.99438017 C57.1479778,7.21426046 57.1972187,7.45140061 57.1972187,7.69109607 L57.1972187,7.69109607 L57.1972187,49.8222727 C57.1972187,50.1566767 57.1019203,50.4764591 56.9314972,50.7493203 C56.7610741,51.0221815 56.5155263,51.2481215 56.2150275,51.3948405 L56.2150275,51.3948405 L25.9820945,66.1561197 C25.5478419,66.3681442 25.06876,66.3840808 24.6452352,66.2384481 C24.2217103,66.0928153 23.8537424,65.7856133 23.6417179,65.3513607 C23.5249682,65.1122428 23.4642857,64.8496493 23.4642857,64.5835519 L23.4642857,64.5835519 L23.4642857,20.8122331 C23.4642857,20.4636636 23.5677298,20.1317177 23.7511123,19.8522208 C23.9344948,19.5727239 24.1978159,19.345676 24.5175698,19.2069023 L24.5175698,19.2069023 Z" id="矩形备份-9" stroke="url(#linearGradient-13)" stroke-width="0.5" fill="url(#linearGradient-12)" fill-rule="nonzero" opacity="0.519182478"></path>
                        <path d="M48.2505028,1.44290814 C48.6938026,1.25051535 49.1731179,1.25601915 49.5897064,1.4204461 C50.0062949,1.58487305 50.3601567,1.90822317 50.5525495,2.35152302 C50.6479778,2.57140331 50.6972187,2.80854347 50.6972187,3.04823893 L50.6972187,3.04823893 L50.6972187,45.1794156 C50.6972187,45.5138195 50.6019203,45.833602 50.4314972,46.1064632 C50.2610741,46.3793244 50.0155263,46.6052644 49.7150275,46.7519834 L49.7150275,46.7519834 L19.4820945,61.5132625 C19.0478419,61.7252871 18.56876,61.7412237 18.1452352,61.5955909 C17.7217103,61.4499582 17.3537424,61.1427562 17.1417179,60.7085035 C17.0249682,60.4693856 16.9642857,60.2067922 16.9642857,59.9406947 L16.9642857,59.9406947 L16.9642857,16.169376 C16.9642857,15.8208064 17.0677298,15.4888606 17.2511123,15.2093637 C17.4344948,14.9298668 17.6978159,14.7028188 18.0175698,14.5640452 L18.0175698,14.5640452 Z" id="矩形备份-13" stroke="url(#linearGradient-13)" stroke-width="0.5" fill="url(#linearGradient-12)" fill-rule="nonzero" opacity="0.366582961"></path>
                        <path d="M62.1790742,9.800051 C62.6223741,9.60765821 63.1016893,9.613162 63.5182778,9.77758896 C63.9348664,9.94201591 64.2887281,10.265366 64.4811209,10.7086659 C64.5765493,10.9285462 64.6257901,11.1656863 64.6257901,11.4053818 L64.6257901,11.4053818 L64.6257901,53.5365584 C64.6257901,53.8709624 64.5304917,54.1907448 64.3600686,54.463606 C64.1896455,54.7364672 63.9440977,54.9624072 63.6435989,55.1091263 L63.6435989,55.1091263 L33.410666,69.8704054 C32.9764134,70.08243 32.4973315,70.0983665 32.0738066,69.9527338 C31.6502817,69.807101 31.2823139,69.499899 31.0702893,69.0656464 C30.9535396,68.8265285 30.8928571,68.563935 30.8928571,68.2978376 L30.8928571,68.2978376 L30.8928571,24.5265188 C30.8928571,24.1779493 30.9963012,23.8460034 31.1796837,23.5665065 C31.3630663,23.2870096 31.6263873,23.0599617 31.9461412,22.921188 L31.9461412,22.921188 Z" id="矩形" stroke="url(#linearGradient-13)" stroke-width="0.5" fill="url(#linearGradient-12)" fill-rule="nonzero"></path>
                        <path d="M56.6428571,34.0943686 C58.831072,33.2226337 60.8425026,33.2356337 62.4296185,33.9656757 C63.0858274,34.2675188 64.3372409,35.0848984 66.183859,36.4178143 C66.0136673,37.9272824 65.9285714,39.2497148 65.9285714,40.3851114 C65.9285714,43.3436199 64.7331824,46.5555576 62.8336878,49.2883225 L62.8333333,56.9246123 L56.6413127,55.8841862 L53.2380952,65 L50.452381,63.1428571 L50.4520265,55.1187148 C48.5525319,54.0517613 47.3571429,51.7421272 47.3571429,48.5551188 C47.3571429,42.6116882 51.5144988,36.1373898 56.6428571,34.0943686 Z M56.6428571,38.5411171 C53.7123666,39.7607367 51.3367347,43.4603358 51.3367347,46.8044029 C51.3367347,50.14847 53.7123666,51.7578765 56.6428571,50.399113 C59.5733477,49.0403495 61.9489796,45.3407505 61.9489796,42.1358273 C61.9489796,38.930904 59.5733477,37.3214975 56.6428571,38.5411171 Z" id="形状结合备份-2" fill="url(#linearGradient-14)" fill-rule="nonzero"></path>
                        <path d="M59.4285714,35.9515115 C64.5569298,33.9084903 68.7142857,36.7249518 68.7142857,42.2422542 C68.7142857,45.2007627 67.5188967,48.4127004 65.619402,51.1454654 L65.6190476,58.7817552 L59.427027,57.741329 L53.2380952,65 L53.2377408,56.9758576 C51.3382461,55.9089042 50.1428571,53.5992701 50.1428571,50.4122616 C50.1428571,44.468831 54.300213,37.9945327 59.4285714,35.9515115 Z M59.4285714,40.39826 C56.4980809,41.6178796 54.122449,45.3174787 54.122449,48.6615458 C54.122449,52.0056129 56.4980809,53.6150194 59.4285714,52.2562559 C62.3590619,50.8974924 64.7346939,47.1978933 64.7346939,43.9929701 C64.7346939,40.7880469 62.3590619,39.1786403 59.4285714,40.39826 Z" id="形状结合" fill="url(#linearGradient-15)" fill-rule="nonzero"></path>
                    </g>
                </g>
            </g>
        </g>
    </g>
</svg>